{
.appVersion = "1057";
DisplayStrings = (
"Hnwnovoony/y.001 nxn\012HHXHOXOOHYH\012PRK\012ni.n:n;n,n\U00B7n/bullet n/ellipsis n\012n-n/endash n/emdash n_n\012n/guilsinglleft non/guilsinglright n\U00ABn\U00BBn\012H#H^H*H|H//H/backslash H!HSH?HH\U00BFnSl!\U00A1nh?\012CH&HNM\012BPR\012h(h[{ho-oh}])(p)\012JOZEFg\012HheAVH}\012HMHWH\012HXHKH",
"ABCDEFGHIJKLMNOPQRSTUVWXYZabcdefghijklmnopqrstuvwXxyz\012CGJSsaceg\012OBJEV\012Hnnopka no\012nnznozoon/idotless/jdotless \012HHZHOZOOH\012FIGHTC\012OHVINA\012MUZEUM\012WHOM\012H\U00C6H/AEacute H\U00D0H/Dcroat \012H/Hbar H\U00DEHPH/Tbar H/Eng HgJO/OE H\U00D8HOH/Oslashacute H/Schwa HOH/Germandbls H3J\012STRA/Germandbls E/Eng \012HLH/Lslash HH/Uogonek H\012nn/schwa nen/oe n/tbar ontn/eogonek nen\U00F8non/oslashacute n/eng n/jdotless l/lslash ld\U00DFibnnfn\U00F0ndo./apostrophemodifier \012rock /napostrophe \012no/ldot lno/periodcentered.CAT   /periodcentered.CAT.case \012HO/Ldot LHO\012zd/lslash noty\012stra\U00DFero\012straer",

glyphs = (
{
color = 4;
glyphname = A;
lastChange = "2017-09-20 14:09:04 +0000";
layers = (
{
anchors = (
{
name = ogonek;
position = "{647, 0}";
},
{
name = top;
position = "{439, 710}";
}
);
background = {
paths = (
{
closed = 1;
nodes = (
"548 136 LINE",
"568 251 LINE",
"147 251 LINE",
"126 136 LINE"
);
},
{
closed = 1;
nodes = (
"544 710 LINE",
"336 710 LINE",
"-36 0 LINE",
"119 0 LINE",
"417 599 LINE",
"423 599 LINE",
"511 0 LINE",
"666 0 LINE"
);
}
);
};
layerId = "C76CAC8E-7AD6-478C-8F7E-02FEF6F1EA84";
paths = (
{
closed = 1;
nodes = (
"548 136 LINE",
"568 251 LINE",
"147 251 LINE",
"126 136 LINE"
);
},
{
closed = 1;
nodes = (
"542 710 LINE",
"334 710 LINE",
"-36 0 LINE",
"125 0 LINE",
"420 599 LINE",
"426 599 LINE",
"517 0 LINE",
"666 0 LINE"
);
}
);
width = 722;
},
{
anchors = (
{
name = ogonek;
position = "{578, 0}";
},
{
name = top;
position = "{409, 710}";
}
);
layerId = "CC363ACD-D5A5-4E19-A940-9AF36D109D9E";
paths = (
{
closed = 1;
nodes = (
"515 172 LINE",
"524 223 LINE",
"123 223 LINE",
"114 172 LINE"
);
},
{
closed = 1;
nodes = (
"446 710 LINE",
"375 710 LINE",
"-25 0 LINE",
"41 0 LINE",
"401 650 LINE",
"405 650 LINE",
"533 0 LINE",
"595 0 LINE"
);
}
);
width = 660;
},
{
anchors = (
{
name = ogonek;
position = "{663, 0}";
},
{
name = top;
position = "{459, 710}";
}
);
layerId = "C1DA716A-5F29-4CD0-A38F-CCADF5849A80";
paths = (
{
closed = 1;
nodes = (
"560 111 LINE",
"587 263 LINE",
"175 263 LINE",
"148 111 LINE"
);
},
{
closed = 1;
nodes = (
"616 710 LINE",
"300 710 LINE",
"-37 0 LINE",
"191 0 LINE",
"433 566 LINE",
"441 566 LINE",
"484 0 LINE",
"702 0 LINE"
);
}
);
width = 759;
}
);
unicode = 0041;
userData = {
RMXScaler = {
source = A;
};
};
},
{
color = 4;
glyphname = B;
lastChange = "2017-09-20 14:09:04 +0000";
layers = (
{
background = {
paths = (
{
closed = 1;
nodes = (
"194 0 LINE",
"319 710 LINE",
"174 710 LINE",
"49 0 LINE"
);
},
{
closed = 1;
nodes = (
"568 362 LINE",
"677 390 OFFCURVE",
"717 460 OFFCURVE",
"717 566 CURVE SMOOTH",
"717 654 OFFCURVE",
"664 710 OFFCURVE",
"519 710 CURVE SMOOTH",
"301 710 LINE",
"281 593 LINE",
"470 593 LINE SMOOTH",
"531 593 OFFCURVE",
"562 578 OFFCURVE",
"562 524 CURVE SMOOTH",
"562 444 OFFCURVE",
"524 409 OFFCURVE",
"437 409 CURVE SMOOTH",
"248 409 LINE",
"229 302 LINE",
"436 302 LINE SMOOTH",
"501 302 OFFCURVE",
"534 282 OFFCURVE",
"534 231 CURVE SMOOTH",
"534 147 OFFCURVE",
"496 117 OFFCURVE",
"404 117 CURVE SMOOTH",
"197 117 LINE",
"176 0 LINE",
"404 0 LINE SMOOTH",
"604 0 OFFCURVE",
"679 93 OFFCURVE",
"679 226 CURVE SMOOTH",
"679 301 OFFCURVE",
"640 340 OFFCURVE",
"567 356 CURVE"
);
}
);
};
layerId = "C76CAC8E-7AD6-478C-8F7E-02FEF6F1EA84";
paths = (
{
closed = 1;
nodes = (
"194 0 LINE",
"319 710 LINE",
"174 710 LINE",
"49 0 LINE"
);
},
{
closed = 1;
nodes = (
"568 362 LINE",
"668 388 OFFCURVE",
"717 461 OFFCURVE",
"717 552 CURVE SMOOTH",
"717 654 OFFCURVE",
"664 710 OFFCURVE",
"505 710 CURVE SMOOTH",
"301 710 LINE",
"281 593 LINE",
"470 593 LINE SMOOTH",
"531 593 OFFCURVE",
"562 578 OFFCURVE",
"562 524 CURVE SMOOTH",
"562 444 OFFCURVE",
"524 409 OFFCURVE",
"437 409 CURVE SMOOTH",
"248 409 LINE",
"229 302 LINE",
"436 302 LINE SMOOTH",
"501 302 OFFCURVE",
"534 282 OFFCURVE",
"534 231 CURVE SMOOTH",
"534 147 OFFCURVE",
"496 117 OFFCURVE",
"404 117 CURVE SMOOTH",
"197 117 LINE",
"176 0 LINE",
"396 0 LINE SMOOTH",
"604 0 OFFCURVE",
"679 93 OFFCURVE",
"679 219 CURVE SMOOTH",
"679 297 OFFCURVE",
"644 339 OFFCURVE",
"567 356 CURVE"
);
}
);
width = 743;
},
{
layerId = "CC363ACD-D5A5-4E19-A940-9AF36D109D9E";
paths = (
{
closed = 1;
nodes = (
"140 0 LINE",
"265 710 LINE",
"205 710 LINE",
"80 0 LINE"
);
},
{
closed = 1;
nodes = (
"531 357 LINE",
"612 378 OFFCURVE",
"688 432 OFFCURVE",
"688 557 CURVE SMOOTH",
"688 645 OFFCURVE",
"623 710 OFFCURVE",
"494 710 CURVE SMOOTH",
"253 710 LINE",
"244 657 LINE",
"495 657 LINE SMOOTH",
"589 657 OFFCURVE",
"630 611 OFFCURVE",
"630 548 CURVE SMOOTH",
"630 441 OFFCURVE",
"551 380 OFFCURVE",
"433 380 CURVE SMOOTH",
"195 380 LINE",
"186 329 LINE",
"434 329 LINE SMOOTH",
"537 329 OFFCURVE",
"589 290 OFFCURVE",
"589 219 CURVE SMOOTH",
"589 103 OFFCURVE",
"513 53 OFFCURVE",
"382 53 CURVE SMOOTH",
"138 53 LINE",
"128 0 LINE",
"376 0 LINE SMOOTH",
"543 0 OFFCURVE",
"646 67 OFFCURVE",
"646 217 CURVE SMOOTH",
"646 299 OFFCURVE",
"586 340 OFFCURVE",
"530 352 CURVE"
);
}
);
width = 735;
},
{
layerId = "C1DA716A-5F29-4CD0-A38F-CCADF5849A80";
paths = (
{
closed = 1;
nodes = (
"241 0 LINE",
"366 710 LINE",
"156 710 LINE",
"31 0 LINE"
);
},
{
closed = 1;
nodes = (
"589 359 LINE",
"679 386 OFFCURVE",
"732 448 OFFCURVE",
"732 544 CURVE SMOOTH",
"732 644 OFFCURVE",
"664 710 OFFCURVE",
"513 710 CURVE SMOOTH",
"347 710 LINE",
"319 552 LINE",
"450 552 LINE SMOOTH",
"504 552 OFFCURVE",
"522 535 OFFCURVE",
"522 503 CURVE SMOOTH",
"522 447 OFFCURVE",
"490 417 OFFCURVE",
"426 417 CURVE SMOOTH",
"295 417 LINE",
"274 293 LINE",
"417 293 LINE SMOOTH",
"471 293 OFFCURVE",
"490 271 OFFCURVE",
"490 241 CURVE SMOOTH",
"490 184 OFFCURVE",
"457 158 OFFCURVE",
"392 158 CURVE SMOOTH",
"250 158 LINE",
"222 0 LINE",
"420 0 LINE SMOOTH",
"592 0 OFFCURVE",
"700 65 OFFCURVE",
"700 214 CURVE SMOOTH",
"700 281 OFFCURVE",
"658 330 OFFCURVE",
"588 353 CURVE"
);
}
);
width = 739;
}
);
leftMetricsKey = H;
unicode = 0042;
userData = {
RMXScaler = {
source = B;
};
};
},
{
glyphname = C;
lastChange = "2017-09-20 14:09:04 +0000";
layers = (
{
anchors = (
{
name = bottom;
position = "{361, 0}";
},
{
name = top;
position = "{481, 710}";
}
);
background = {
anchors = (
{
name = bottom;
position = "{408, 0}";
},
{
name = top;
position = "{403, 710}";
}
);
paths = (
{
closed = 1;
nodes = (
"607 -15 OFFCURVE",
"711 74 OFFCURVE",
"737 244 CURVE",
"585 244 LINE",
"566 150 OFFCURVE",
"518 110 OFFCURVE",
"408 110 CURVE SMOOTH",
"278 110 OFFCURVE",
"208 195 OFFCURVE",
"208 355 CURVE SMOOTH",
"208 514 OFFCURVE",
"278 600 OFFCURVE",
"406 600 CURVE SMOOTH",
"506 600 OFFCURVE",
"563 557 OFFCURVE",
"583 466 CURVE",
"735 466 LINE",
"712 637 OFFCURVE",
"601 725 OFFCURVE",
"406 725 CURVE SMOOTH",
"185 725 OFFCURVE",
"55 588 OFFCURVE",
"55 355 CURVE SMOOTH",
"55 121 OFFCURVE",
"184 -15 OFFCURVE",
"408 -15 CURVE SMOOTH"
);
}
);
};
layerId = "C76CAC8E-7AD6-478C-8F7E-02FEF6F1EA84";
paths = (
{
closed = 1;
nodes = (
"554 -15 OFFCURVE",
"673 74 OFFCURVE",
"727 244 CURVE",
"576 244 LINE",
"541 150 OFFCURVE",
"487 110 OFFCURVE",
"380 110 CURVE SMOOTH",
"276 110 OFFCURVE",
"222 174 OFFCURVE",
"222 292 CURVE SMOOTH",
"222 478 OFFCURVE",
"309 600 OFFCURVE",
"465 600 CURVE SMOOTH",
"562 600 OFFCURVE",
"610 557 OFFCURVE",
"613 466 CURVE",
"765 466 LINE",
"773 637 OFFCURVE",
"679 725 OFFCURVE",
"487 725 CURVE SMOOTH",
"230 725 OFFCURVE",
"67 547 OFFCURVE",
"67 277 CURVE SMOOTH",
"67 93 OFFCURVE",
"170 -15 OFFCURVE",
"358 -15 CURVE SMOOTH"
);
}
);
width = 785;
},
{
anchors = (
{
name = bottom;
position = "{394, 0}";
},
{
name = top;
position = "{391, 710}";
}
);
layerId = "CC363ACD-D5A5-4E19-A940-9AF36D109D9E";
paths = (
{
closed = 1;
nodes = (
"569 -15 OFFCURVE",
"666 73 OFFCURVE",
"692 219 CURVE",
"632 219 LINE",
"602 98 OFFCURVE",
"531 39 OFFCURVE",
"392 39 CURVE SMOOTH",
"228 39 OFFCURVE",
"132 158 OFFCURVE",
"132 355 CURVE SMOOTH",
"132 552 OFFCURVE",
"228 671 OFFCURVE",
"391 671 CURVE SMOOTH",
"529 671 OFFCURVE",
"599 613 OFFCURVE",
"629 492 CURVE",
"689 492 LINE",
"663 628 OFFCURVE",
"567 725 OFFCURVE",
"392 725 CURVE SMOOTH",
"195 725 OFFCURVE",
"70 581 OFFCURVE",
"70 355 CURVE SMOOTH",
"70 129 OFFCURVE",
"193 -15 OFFCURVE",
"393 -15 CURVE SMOOTH"
);
}
);
width = 762;
},
{
anchors = (
{
name = bottom;
position = "{399, 0}";
},
{
name = top;
position = "{394, 710}";
}
);
layerId = "C1DA716A-5F29-4CD0-A38F-CCADF5849A80";
paths = (
{
closed = 1;
nodes = (
"602 -15 OFFCURVE",
"717 76 OFFCURVE",
"723 265 CURVE",
"517 265 LINE",
"511 191 OFFCURVE",
"470 158 OFFCURVE",
"398 158 CURVE SMOOTH",
"306 158 OFFCURVE",
"263 215 OFFCURVE",
"263 353 CURVE SMOOTH",
"263 489 OFFCURVE",
"304 553 OFFCURVE",
"395 553 CURVE SMOOTH",
"473 553 OFFCURVE",
"507 517 OFFCURVE",
"516 445 CURVE",
"722 445 LINE",
"715 631 OFFCURVE",
"596 725 OFFCURVE",
"394 725 CURVE SMOOTH",
"167 725 OFFCURVE",
"40 592 OFFCURVE",
"40 353 CURVE SMOOTH",
"40 120 OFFCURVE",
"167 -15 OFFCURVE",
"394 -15 CURVE SMOOTH"
);
}
);
width = 763;
}
);
leftMetricsKey = O;
rightMetricsKey = O;
unicode = 0043;
userData = {
RMXScaler = {
source = C;
};
};
},
{
glyphname = D;
lastChange = "2017-09-20 14:09:04 +0000";
layers = (
{
anchors = (
{
name = top;
position = "{427, 710}";
}
);
background = {
anchors = (
{
name = top;
position = "{352, 710}";
}
);
paths = (
{
closed = 1;
nodes = (
"243 0 LINE",
"243 710 LINE",
"95 710 LINE",
"95 0 LINE"
);
},
{
closed = 1;
nodes = (
"208 124 LINE",
"208 0 LINE",
"378 0 LINE SMOOTH",
"609 0 OFFCURVE",
"717 116 OFFCURVE",
"717 356 CURVE SMOOTH",
"717 597 OFFCURVE",
"608 710 OFFCURVE",
"388 710 CURVE SMOOTH",
"208 710 LINE",
"208 586 LINE",
"377 586 LINE SMOOTH",
"503 586 OFFCURVE",
"564 533 OFFCURVE",
"564 356 CURVE SMOOTH",
"564 177 OFFCURVE",
"503 124 OFFCURVE",
"377 124 CURVE SMOOTH"
);
}
);
};
layerId = "C76CAC8E-7AD6-478C-8F7E-02FEF6F1EA84";
paths = (
{
closed = 1;
nodes = (
"197 0 LINE",
"322 710 LINE",
"174 710 LINE",
"49 0 LINE"
);
},
{
closed = 1;
nodes = (
"184 124 LINE",
"163 0 LINE",
"327 0 LINE SMOOTH",
"611 0 OFFCURVE",
"733 167 OFFCURVE",
"733 445 CURVE SMOOTH",
"733 623 OFFCURVE",
"642 710 OFFCURVE",
"462 710 CURVE SMOOTH",
"288 710 LINE",
"266 586 LINE",
"429 586 LINE SMOOTH",
"528 586 OFFCURVE",
"579 547 OFFCURVE",
"579 430 CURVE SMOOTH",
"579 225 OFFCURVE",
"529 124 OFFCURVE",
"348 124 CURVE SMOOTH"
);
}
);
width = 768;
},
{
anchors = (
{
name = top;
position = "{327, 710}";
}
);
layerId = "CC363ACD-D5A5-4E19-A940-9AF36D109D9E";
paths = (
{
closed = 1;
nodes = (
"180 0 LINE",
"180 710 LINE",
"120 710 LINE",
"120 0 LINE"
);
},
{
closed = 1;
nodes = (
"145 51 LINE",
"145 0 LINE",
"328 0 LINE SMOOTH",
"568 0 OFFCURVE",
"672 105 OFFCURVE",
"672 353 CURVE SMOOTH",
"672 607 OFFCURVE",
"567 710 OFFCURVE",
"337 710 CURVE SMOOTH",
"145 710 LINE",
"145 659 LINE",
"346 659 LINE SMOOTH",
"521 659 OFFCURVE",
"610 589 OFFCURVE",
"610 353 CURVE SMOOTH",
"610 121 OFFCURVE",
"521 51 OFFCURVE",
"346 51 CURVE SMOOTH"
);
}
);
width = 742;
},
{
anchors = (
{
name = top;
position = "{357, 710}";
}
);
layerId = "C1DA716A-5F29-4CD0-A38F-CCADF5849A80";
paths = (
{
closed = 1;
nodes = (
"291 0 LINE",
"291 710 LINE",
"73 710 LINE",
"73 0 LINE"
);
},
{
closed = 1;
nodes = (
"252 167 LINE",
"252 0 LINE",
"389 0 LINE SMOOTH",
"615 0 OFFCURVE",
"746 118 OFFCURVE",
"746 355 CURVE SMOOTH",
"746 595 OFFCURVE",
"614 710 OFFCURVE",
"400 710 CURVE SMOOTH",
"252 710 LINE",
"252 543 LINE",
"372 543 LINE SMOOTH",
"476 543 OFFCURVE",
"523 491 OFFCURVE",
"523 355 CURVE SMOOTH",
"523 219 OFFCURVE",
"476 167 OFFCURVE",
"372 167 CURVE SMOOTH"
);
}
);
width = 786;
}
);
leftMetricsKey = H;
rightMetricsKey = O;
unicode = 0044;
userData = {
RMXScaler = {
source = D;
};
};
},
{
glyphname = E;
lastChange = "2017-09-20 14:09:04 +0000";
layers = (
{
anchors = (
{
name = ogonek;
position = "{557, 0}";
},
{
name = top;
position = "{445, 710}";
}
);
background = {
anchors = (
{
name = ogonek;
position = "{615, 0}";
},
{
name = top;
position = "{372, 710}";
}
);
paths = (
{
closed = 1;
nodes = (
"240 0 LINE",
"240 710 LINE",
"95 710 LINE",
"95 0 LINE"
);
},
{
closed = 1;
nodes = (
"633 585 LINE",
"633 710 LINE",
"192 710 LINE",
"192 585 LINE"
);
},
{
closed = 1;
nodes = (
"570 297 LINE",
"570 412 LINE",
"216 412 LINE",
"216 297 LINE"
);
},
{
closed = 1;
nodes = (
"633 0 LINE",
"633 125 LINE",
"192 125 LINE",
"192 0 LINE"
);
}
);
};
layerId = "C76CAC8E-7AD6-478C-8F7E-02FEF6F1EA84";
paths = (
{
closed = 1;
nodes = (
"194 0 LINE",
"319 710 LINE",
"174 710 LINE",
"49 0 LINE"
);
},
{
closed = 1;
nodes = (
"679 585 LINE",
"701 710 LINE",
"270 710 LINE",
"248 585 LINE"
);
},
{
closed = 1;
nodes = (
"567 297 LINE",
"587 412 LINE",
"241 412 LINE",
"220 297 LINE"
);
},
{
closed = 1;
nodes = (
"576 0 LINE",
"598 125 LINE",
"167 125 LINE",
"145 0 LINE"
);
}
);
width = 682;
},
{
anchors = (
{
name = ogonek;
position = "{572, 0}";
},
{
name = top;
position = "{360, 710}";
}
);
layerId = "CC363ACD-D5A5-4E19-A940-9AF36D109D9E";
paths = (
{
closed = 1;
nodes = (
"180 0 LINE",
"180 710 LINE",
"120 710 LINE",
"120 0 LINE"
);
},
{
closed = 1;
nodes = (
"590 657 LINE",
"590 710 LINE",
"167 710 LINE",
"167 657 LINE"
);
},
{
closed = 1;
nodes = (
"524 336 LINE",
"524 387 LINE",
"167 387 LINE",
"167 336 LINE"
);
},
{
closed = 1;
nodes = (
"590 0 LINE",
"590 53 LINE",
"167 53 LINE",
"167 0 LINE"
);
}
);
width = 670;
},
{
anchors = (
{
name = ogonek;
position = "{606, 0}";
},
{
name = top;
position = "{367, 710}";
}
);
layerId = "C1DA716A-5F29-4CD0-A38F-CCADF5849A80";
paths = (
{
closed = 1;
nodes = (
"287 0 LINE",
"287 710 LINE",
"73 710 LINE",
"73 0 LINE"
);
},
{
closed = 1;
nodes = (
"646 541 LINE",
"646 710 LINE",
"191 710 LINE",
"191 541 LINE"
);
},
{
closed = 1;
nodes = (
"584 281 LINE",
"584 428 LINE",
"209 428 LINE",
"209 281 LINE"
);
},
{
closed = 1;
nodes = (
"646 0 LINE",
"646 169 LINE",
"191 169 LINE",
"191 0 LINE"
);
}
);
width = 695;
}
);
leftMetricsKey = "=H";
unicode = 0045;
userData = {
RMXScaler = {
source = E;
};
};
},
{
glyphname = F;
lastChange = "2017-09-20 14:09:04 +0000";
layers = (
{
background = {
paths = (
{
closed = 1;
nodes = (
"243 0 LINE",
"243 710 LINE",
"95 710 LINE",
"95 0 LINE"
);
},
{
closed = 1;
nodes = (
"609 585 LINE",
"609 710 LINE",
"195 710 LINE",
"195 585 LINE"
);
},
{
closed = 1;
nodes = (
"546 275 LINE",
"546 392 LINE",
"195 392 LINE",
"195 275 LINE"
);
}
);
};
layerId = "C76CAC8E-7AD6-478C-8F7E-02FEF6F1EA84";
paths = (
{
closed = 1;
nodes = (
"197 0 LINE",
"322 710 LINE",
"174 710 LINE",
"49 0 LINE"
);
},
{
closed = 1;
nodes = (
"655 585 LINE",
"677 710 LINE",
"273 710 LINE",
"251 585 LINE"
);
},
{
closed = 1;
nodes = (
"539 275 LINE",
"560 392 LINE",
"217 392 LINE",
"196 275 LINE"
);
}
);
width = 623;
},
{
layerId = "CC363ACD-D5A5-4E19-A940-9AF36D109D9E";
paths = (
{
closed = 1;
nodes = (
"180 0 LINE",
"180 710 LINE",
"120 710 LINE",
"120 0 LINE"
);
},
{
closed = 1;
nodes = (
"577 657 LINE",
"577 710 LINE",
"167 710 LINE",
"167 657 LINE"
);
},
{
closed = 1;
nodes = (
"510 331 LINE",
"510 382 LINE",
"167 382 LINE",
"167 331 LINE"
);
}
);
width = 607;
},
{
layerId = "C1DA716A-5F29-4CD0-A38F-CCADF5849A80";
paths = (
{
closed = 1;
nodes = (
"291 0 LINE",
"291 710 LINE",
"73 710 LINE",
"73 0 LINE"
);
},
{
closed = 1;
nodes = (
"629 538 LINE",
"629 710 LINE",
"191 710 LINE",
"191 538 LINE"
);
},
{
closed = 1;
nodes = (
"566 248 LINE",
"566 401 LINE",
"191 401 LINE",
"191 248 LINE"
);
}
);
width = 649;
}
);
leftMetricsKey = H;
unicode = 0046;
userData = {
RMXScaler = {
source = F;
};
};
},
{
glyphname = G;
lastChange = "2017-09-20 14:09:04 +0000";
layers = (
{
anchors = (
{
name = bottom;
position = "{360, 0}";
},
{
name = top;
position = "{493, 710}";
}
);
background = {
anchors = (
{
name = bottom;
position = "{407, 0}";
},
{
name = top;
position = "{415, 710}";
}
);
paths = (
{
closed = 1;
nodes = (
"496 -16 OFFCURVE",
"558 25 OFFCURVE",
"602 111 CURVE",
"608 111 LINE",
"624 0 LINE",
"740 0 LINE",
"740 371 LINE",
"435 371 LINE",
"435 260 LINE",
"665 260 LINE",
"610 301 LINE",
"596 197 OFFCURVE",
"533 106 OFFCURVE",
"407 106 CURVE SMOOTH",
"286 106 OFFCURVE",
"208 185 OFFCURVE",
"208 355 CURVE SMOOTH",
"208 513 OFFCURVE",
"278 600 OFFCURVE",
"411 600 CURVE SMOOTH",
"524 600 OFFCURVE",
"573 554 OFFCURVE",
"588 487 CURVE",
"735 487 LINE",
"723 630 OFFCURVE",
"613 725 OFFCURVE",
"407 725 CURVE SMOOTH",
"185 725 OFFCURVE",
"55 590 OFFCURVE",
"55 355 CURVE SMOOTH",
"55 105 OFFCURVE",
"192 -16 OFFCURVE",
"374 -16 CURVE SMOOTH"
);
}
);
};
layerId = "C76CAC8E-7AD6-478C-8F7E-02FEF6F1EA84";
paths = (
{
closed = 1;
nodes = (
"444 -16 OFFCURVE",
"512 25 OFFCURVE",
"570 111 CURVE",
"576 111 LINE",
"572 0 LINE",
"688 0 LINE",
"753 371 LINE",
"453 371 LINE",
"433 260 LINE",
"657 260 LINE",
"611 301 LINE",
"579 197 OFFCURVE",
"502 106 OFFCURVE",
"379 106 CURVE SMOOTH",
"281 106 OFFCURVE",
"222 166 OFFCURVE",
"222 290 CURVE SMOOTH",
"222 476 OFFCURVE",
"308 600 OFFCURVE",
"470 600 CURVE SMOOTH",
"579 600 OFFCURVE",
"619 554 OFFCURVE",
"622 487 CURVE",
"769 487 LINE",
"782 630 OFFCURVE",
"691 725 OFFCURVE",
"488 725 CURVE SMOOTH",
"230 725 OFFCURVE",
"67 549 OFFCURVE",
"67 272 CURVE SMOOTH",
"67 80 OFFCURVE",
"171 -16 OFFCURVE",
"325 -16 CURVE SMOOTH"
);
}
);
width = 809;
},
{
anchors = (
{
name = bottom;
position = "{387, 0}";
},
{
name = top;
position = "{394, 710}";
}
);
layerId = "CC363ACD-D5A5-4E19-A940-9AF36D109D9E";
paths = (
{
closed = 1;
nodes = (
"544 -15 OFFCURVE",
"617 82 OFFCURVE",
"641 140 CURVE",
"646 140 LINE",
"654 0 LINE",
"699 0 LINE",
"699 346 LINE",
"445 346 LINE",
"445 299 LINE",
"668 299 LINE",
"651 309 LINE",
"631 139 OFFCURVE",
"538 38 OFFCURVE",
"388 38 CURVE SMOOTH",
"230 38 OFFCURVE",
"132 160 OFFCURVE",
"132 353 CURVE SMOOTH",
"132 589 OFFCURVE",
"253 671 OFFCURVE",
"394 671 CURVE SMOOTH",
"541 671 OFFCURVE",
"607 609 OFFCURVE",
"634 502 CURVE",
"694 502 LINE",
"671 630 OFFCURVE",
"573 725 OFFCURVE",
"396 725 CURVE SMOOTH",
"219 725 OFFCURVE",
"70 617 OFFCURVE",
"70 353 CURVE SMOOTH",
"70 131 OFFCURVE",
"195 -15 OFFCURVE",
"387 -15 CURVE SMOOTH"
);
}
);
width = 794;
},
{
anchors = (
{
name = bottom;
position = "{397, 0}";
},
{
name = top;
position = "{410, 710}";
}
);
layerId = "C1DA716A-5F29-4CD0-A38F-CCADF5849A80";
paths = (
{
closed = 1;
nodes = (
"472 -16 OFFCURVE",
"532 40 OFFCURVE",
"559 101 CURVE",
"567 101 LINE",
"592 0 LINE",
"748 0 LINE",
"748 390 LINE",
"417 390 LINE",
"417 253 LINE",
"596 253 LINE",
"560 288 LINE",
"553 200 OFFCURVE",
"499 149 OFFCURVE",
"410 149 CURVE SMOOTH",
"302 149 OFFCURVE",
"263 218 OFFCURVE",
"263 353 CURVE SMOOTH",
"263 489 OFFCURVE",
"304 556 OFFCURVE",
"408 556 CURVE SMOOTH",
"475 556 OFFCURVE",
"512 529 OFFCURVE",
"528 475 CURVE",
"738 475 LINE",
"728 636 OFFCURVE",
"612 725 OFFCURVE",
"403 725 CURVE SMOOTH",
"167 725 OFFCURVE",
"40 592 OFFCURVE",
"40 353 CURVE SMOOTH",
"40 120 OFFCURVE",
"158 -16 OFFCURVE",
"362 -16 CURVE SMOOTH"
);
}
);
width = 811;
}
);
leftMetricsKey = O;
unicode = 0047;
userData = {
RMXScaler = {
source = G;
};
};
},
{
color = 4;
glyphname = H;
lastChange = "2017-09-20 14:09:04 +0000";
layers = (
{
anchors = (
{
name = top;
position = "{480, 710}";
}
);
background = {
anchors = (
{
name = top;
position = "{477, 710}";
}
);
paths = (
{
closed = 1;
nodes = (
"593 419 LINE",
"268 419 LINE",
"314 710 LINE",
"166 710 LINE",
"54 0 LINE",
"202 0 LINE",
"248 295 LINE",
"573 295 LINE",
"527 0 LINE",
"675 0 LINE",
"787 710 LINE",
"639 710 LINE"
);
}
);
};
layerId = "C76CAC8E-7AD6-478C-8F7E-02FEF6F1EA84";
paths = (
{
closed = 1;
nodes = (
"585 419 LINE",
"271 419 LINE",
"322 710 LINE",
"174 710 LINE",
"49 0 LINE",
"197 0 LINE",
"249 295 LINE",
"563 295 LINE",
"511 0 LINE",
"659 0 LINE",
"784 710 LINE",
"636 710 LINE"
);
}
);
width = 800;
},
{
anchors = (
{
name = top;
position = "{471, 710}";
}
);
layerId = "CC363ACD-D5A5-4E19-A940-9AF36D109D9E";
paths = (
{
closed = 1;
nodes = (
"626 389 LINE",
"209 389 LINE",
"265 710 LINE",
"205 710 LINE",
"80 0 LINE",
"140 0 LINE",
"199 336 LINE",
"616 336 LINE",
"557 0 LINE",
"617 0 LINE",
"742 710 LINE",
"682 710 LINE"
);
}
);
width = 787;
},
{
anchors = (
{
name = top;
position = "{482, 710}";
}
);
layerId = "C1DA716A-5F29-4CD0-A38F-CCADF5849A80";
paths = (
{
closed = 1;
nodes = (
"546 440 LINE",
"328 440 LINE",
"376 710 LINE",
"156 710 LINE",
"31 0 LINE",
"251 0 LINE",
"298 270 LINE",
"516 270 LINE",
"469 0 LINE",
"689 0 LINE",
"814 710 LINE",
"594 710 LINE"
);
}
);
width = 814;
}
);
unicode = 0048;
userData = {
RMXScaler = {
source = H;
};
};
},
{
glyphname = I;
lastChange = "2017-09-20 14:09:04 +0000";
layers = (
{
anchors = (
{
name = ogonek;
position = "{177, 0}";
},
{
name = top;
position = "{247, 710}";
}
);
background = {
anchors = (
{
name = ogonek;
position = "{225, 0}";
},
{
name = top;
position = "{168, 710}";
}
);
paths = (
{
closed = 1;
nodes = (
"243 0 LINE",
"243 710 LINE",
"95 710 LINE",
"95 0 LINE"
);
}
);
};
layerId = "C76CAC8E-7AD6-478C-8F7E-02FEF6F1EA84";
paths = (
{
closed = 1;
nodes = (
"197 0 LINE",
"323 710 LINE",
"174 710 LINE",
"49 0 LINE"
);
}
);
width = 339;
},
{
anchors = (
{
name = ogonek;
position = "{162, 0}";
},
{
name = top;
position = "{150, 710}";
}
);
layerId = "CC363ACD-D5A5-4E19-A940-9AF36D109D9E";
paths = (
{
closed = 1;
nodes = (
"180 0 LINE",
"180 710 LINE",
"120 710 LINE",
"120 0 LINE"
);
}
);
width = 300;
},
{
anchors = (
{
name = ogonek;
position = "{252, 0}";
},
{
name = top;
position = "{179, 710}";
}
);
layerId = "C1DA716A-5F29-4CD0-A38F-CCADF5849A80";
paths = (
{
closed = 1;
nodes = (
"292 0 LINE",
"292 710 LINE",
"73 710 LINE",
"73 0 LINE"
);
}
);
width = 365;
}
);
leftMetricsKey = "=H";
rightMetricsKey = "=H";
unicode = 0049;
userData = {
RMXScaler = {
source = I;
};
};
},
{
glyphname = J;
lastChange = "2017-09-20 14:09:04 +0000";
layers = (
{
anchors = (
{
name = top;
position = "{561, 710}";
}
);
background = {
anchors = (
{
name = top;
position = "{494, 710}";
}
);
paths = (
{
closed = 1;
nodes = (
"472 -15 OFFCURVE",
"561 67 OFFCURVE",
"561 269 CURVE SMOOTH",
"561 710 LINE",
"413 710 LINE",
"413 254 LINE SMOOTH",
"413 157 OFFCURVE",
"377 110 OFFCURVE",
"295 110 CURVE SMOOTH",
"210 110 OFFCURVE",
"174 147 OFFCURVE",
"164 242 CURVE",
"15 242 LINE",
"22 72 OFFCURVE",
"118 -15 OFFCURVE",
"289 -15 CURVE SMOOTH"
);
}
);
};
layerId = "C76CAC8E-7AD6-478C-8F7E-02FEF6F1EA84";
paths = (
{
closed = 1;
nodes = (
"413 -15 OFFCURVE",
"515 67 OFFCURVE",
"551 269 CURVE SMOOTH",
"629 710 LINE",
"480 710 LINE",
"400 254 LINE SMOOTH",
"383 157 OFFCURVE",
"340 110 OFFCURVE",
"261 110 CURVE SMOOTH",
"180 110 OFFCURVE",
"152 147 OFFCURVE",
"160 242 CURVE",
"11 242 LINE",
"-12 72 OFFCURVE",
"66 -15 OFFCURVE",
"234 -15 CURVE SMOOTH"
);
}
);
width = 635;
},
{
anchors = (
{
name = top;
position = "{455, 710}";
}
);
layerId = "CC363ACD-D5A5-4E19-A940-9AF36D109D9E";
paths = (
{
closed = 1;
nodes = (
"391 -15 OFFCURVE",
"485 54 OFFCURVE",
"485 265 CURVE SMOOTH",
"485 710 LINE",
"425 710 LINE",
"425 263 LINE SMOOTH",
"425 73 OFFCURVE",
"354 36 OFFCURVE",
"245 36 CURVE SMOOTH",
"140 36 OFFCURVE",
"80 89 OFFCURVE",
"74 206 CURVE",
"15 206 LINE",
"24 60 OFFCURVE",
"104 -15 OFFCURVE",
"246 -15 CURVE SMOOTH"
);
}
);
width = 595;
},
{
anchors = (
{
name = top;
position = "{493, 710}";
}
);
layerId = "C1DA716A-5F29-4CD0-A38F-CCADF5849A80";
paths = (
{
closed = 1;
nodes = (
"499 -15 OFFCURVE",
"601 74 OFFCURVE",
"601 274 CURVE SMOOTH",
"601 710 LINE",
"381 710 LINE",
"381 273 LINE SMOOTH",
"381 192 OFFCURVE",
"357 158 OFFCURVE",
"299 158 CURVE SMOOTH",
"243 158 OFFCURVE",
"221 187 OFFCURVE",
"216 274 CURVE",
"5 274 LINE",
"10 69 OFFCURVE",
"103 -15 OFFCURVE",
"302 -15 CURVE SMOOTH"
);
}
);
width = 664;
}
);
rightMetricsKey = U;
unicode = 004A;
userData = {
RMXScaler = {
source = J;
};
};
},
{
glyphname = K;
lastChange = "2017-09-20 14:09:04 +0000";
layers = (
{
anchors = (
{
name = bottom;
position = "{328, 0}";
}
);
background = {
anchors = (
{
name = bottom;
position = "{379, 0}";
}
);
paths = (
{
closed = 1;
nodes = (
"309 304 LINE",
"702 710 LINE",
"523 710 LINE",
"249 422 LINE",
"224 422 LINE",
"224 304 LINE"
);
},
{
closed = 1;
nodes = (
"243 0 LINE",
"243 710 LINE",
"95 710 LINE",
"95 0 LINE"
);
},
{
closed = 1;
nodes = (
"708 0 LINE",
"322 422 LINE",
"208 346 LINE",
"532 0 LINE"
);
}
);
};
layerId = "C76CAC8E-7AD6-478C-8F7E-02FEF6F1EA84";
paths = (
{
closed = 1;
nodes = (
"318 304 LINE",
"770 710 LINE",
"592 710 LINE",
"278 422 LINE",
"252 422 LINE",
"231 304 LINE"
);
},
{
closed = 1;
nodes = (
"197 0 LINE",
"322 710 LINE",
"174 710 LINE",
"49 0 LINE"
);
},
{
closed = 1;
nodes = (
"651 0 LINE",
"352 422 LINE",
"224 346 LINE",
"475 0 LINE"
);
}
);
width = 702;
},
{
anchors = (
{
name = bottom;
position = "{354, 0}";
}
);
layerId = "CC363ACD-D5A5-4E19-A940-9AF36D109D9E";
paths = (
{
closed = 1;
nodes = (
"202 336 LINE",
"622 710 LINE",
"544 710 LINE",
"183 386 LINE",
"158 386 LINE",
"158 336 LINE"
);
},
{
closed = 1;
nodes = (
"180 0 LINE",
"180 710 LINE",
"120 710 LINE",
"120 0 LINE"
);
},
{
closed = 1;
nodes = (
"632 0 LINE",
"206 391 LINE",
"168 350 LINE",
"554 0 LINE"
);
}
);
width = 642;
},
{
anchors = (
{
name = bottom;
position = "{394, 0}";
}
);
layerId = "C1DA716A-5F29-4CD0-A38F-CCADF5849A80";
paths = (
{
closed = 1;
nodes = (
"410 279 LINE",
"745 710 LINE",
"505 710 LINE",
"301 432 LINE",
"259 432 LINE",
"259 279 LINE"
);
},
{
closed = 1;
nodes = (
"292 0 LINE",
"292 710 LINE",
"73 710 LINE",
"73 0 LINE"
);
},
{
closed = 1;
nodes = (
"751 0 LINE",
"429 435 LINE",
"256 332 LINE",
"503 0 LINE"
);
}
);
width = 756;
}
);
leftMetricsKey = H;
unicode = 004B;
userData = {
RMXScaler = {
source = K;
};
};
},
{
glyphname = L;
lastChange = "2017-09-20 14:09:04 +0000";
layers = (
{
anchors = (
{
name = bottom;
position = "{287, 0}";
},
{
name = periodcentered;
position = "{440, 370}";
},
{
name = top;
position = "{249, 710}";
},
{
name = topright;
position = "{426, 475}";
}
);
background = {
anchors = (
{
name = bottom;
position = "{339, 0}";
},
{
name = periodcentered;
position = "{430, 370}";
},
{
name = top;
position = "{170, 710}";
},
{
name = topright;
position = "{394, 475}";
}
);
paths = (
{
closed = 1;
nodes = (
"243 0 LINE",
"243 710 LINE",
"95 710 LINE",
"95 0 LINE"
);
},
{
closed = 1;
nodes = (
"568 0 LINE",
"568 125 LINE",
"192 125 LINE",
"192 0 LINE"
);
}
);
};
layerId = "C76CAC8E-7AD6-478C-8F7E-02FEF6F1EA84";
paths = (
{
closed = 1;
nodes = (
"197 0 LINE",
"322 710 LINE",
"174 710 LINE",
"49 0 LINE"
);
},
{
closed = 1;
nodes = (
"511 0 LINE",
"533 125 LINE",
"167 125 LINE",
"145 0 LINE"
);
}
);
width = 582;
},
{
anchors = (
{
name = bottom;
position = "{334, 0}";
},
{
name = periodcentered;
position = "{380, 370}";
},
{
name = top;
position = "{151, 710}";
},
{
name = topright;
position = "{329, 464}";
}
);
layerId = "CC363ACD-D5A5-4E19-A940-9AF36D109D9E";
paths = (
{
closed = 1;
nodes = (
"180 0 LINE",
"180 710 LINE",
"120 710 LINE",
"120 0 LINE"
);
},
{
closed = 1;
nodes = (
"524 0 LINE",
"524 53 LINE",
"167 53 LINE",
"167 0 LINE"
);
}
);
width = 534;
},
{
anchors = (
{
name = bottom;
position = "{334, 0}";
},
{
name = periodcentered;
position = "{418, 370}";
},
{
name = top;
position = "{179, 710}";
},
{
name = topright;
position = "{419, 484}";
}
);
layerId = "C1DA716A-5F29-4CD0-A38F-CCADF5849A80";
paths = (
{
closed = 1;
nodes = (
"293 0 LINE",
"293 710 LINE",
"73 710 LINE",
"73 0 LINE"
);
},
{
closed = 1;
nodes = (
"583 0 LINE",
"583 174 LINE",
"191 174 LINE",
"191 0 LINE"
);
}
);
width = 597;
}
);
leftMetricsKey = "=H";
unicode = 004C;
userData = {
RMXScaler = {
source = L;
};
};
},
{
glyphname = M;
lastChange = "2017-09-20 14:09:04 +0000";
layers = (
{
background = {
paths = (
{
closed = 1;
nodes = (
"684 710 LINE",
"502 175 LINE",
"494 175 LINE",
"312 710 LINE",
"95 710 LINE",
"95 0 LINE",
"231 0 LINE",
"231 557 LINE",
"239 557 LINE",
"431 0 LINE",
"565 0 LINE",
"757 557 LINE",
"765 557 LINE",
"765 0 LINE",
"901 0 LINE",
"901 710 LINE"
);
}
);
};
layerId = "C76CAC8E-7AD6-478C-8F7E-02FEF6F1EA84";
paths = (
{
closed = 1;
nodes = (
"753 710 LINE",
"481 175 LINE",
"473 175 LINE",
"390 710 LINE",
"174 710 LINE",
"49 0 LINE",
"185 0 LINE",
"283 557 LINE",
"291 557 LINE",
"380 0 LINE",
"513 0 LINE",
"799 557 LINE",
"806 557 LINE",
"708 0 LINE",
"844 0 LINE",
"969 710 LINE"
);
}
);
width = 985;
},
{
layerId = "CC363ACD-D5A5-4E19-A940-9AF36D109D9E";
paths = (
{
closed = 1;
nodes = (
"722 710 LINE",
"473 68 LINE",
"466 68 LINE",
"215 710 LINE",
"120 710 LINE",
"120 0 LINE",
"176 0 LINE",
"176 645 LINE",
"182 645 LINE",
"437 0 LINE",
"500 0 LINE",
"755 645 LINE",
"761 645 LINE",
"761 0 LINE",
"817 0 LINE",
"817 710 LINE"
);
}
);
width = 937;
},
{
layerId = "C1DA716A-5F29-4CD0-A38F-CCADF5849A80";
paths = (
{
closed = 1;
nodes = (
"656 710 LINE",
"518 246 LINE",
"509 246 LINE",
"370 710 LINE",
"73 710 LINE",
"73 0 LINE",
"265 0 LINE",
"265 500 LINE",
"272 500 LINE",
"428 0 LINE",
"598 0 LINE",
"754 500 LINE",
"761 500 LINE",
"761 0 LINE",
"953 0 LINE",
"953 710 LINE"
);
}
);
width = 1026;
}
);
leftMetricsKey = H;
rightMetricsKey = H;
unicode = 004D;
userData = {
RMXScaler = {
source = M;
};
};
},
{
color = 4;
glyphname = N;
lastChange = "2017-09-20 14:25:30 +0000";
layers = (
{
anchors = (
{
name = bottom;
position = "{359, 0}";
},
{
name = top;
position = "{491, 710}";
}
);
background = {
paths = (
{
closed = 1;
nodes = (
"561 218 LINE",
"322 710 LINE",
"174 710 LINE",
"52 0 LINE",
"190 0 LINE",
"277 492 LINE",
"282 492 LINE",
"521 0 LINE",
"669 0 LINE",
"794 710 LINE",
"653 710 LINE",
"567 218 LINE"
);
}
);
};
layerId = "C76CAC8E-7AD6-478C-8F7E-02FEF6F1EA84";
paths = (
{
closed = 1;
nodes = (
"49 0 LINE",
"191 0 LINE",
"277 492 LINE",
"283 492 LINE",
"522 0 LINE",
"669 0 LINE",
"794 710 LINE",
"652 710 LINE",
"566 218 LINE",
"560 218 LINE",
"321 710 LINE",
"174 710 LINE"
);
}
);
width = 810;
},
{
anchors = (
{
name = bottom;
position = "{350, 0}";
},
{
name = top;
position = "{481, 710}";
}
);
layerId = "CC363ACD-D5A5-4E19-A940-9AF36D109D9E";
paths = (
{
closed = 1;
nodes = (
"80 0 LINE",
"135 0 LINE",
"242 604 LINE",
"246 604 LINE",
"572 0 LINE",
"621 0 LINE",
"746 710 LINE",
"691 710 LINE",
"584 106 LINE",
"579 106 LINE",
"255 710 LINE",
"205 710 LINE"
);
}
);
width = 791;
},
{
anchors = (
{
name = bottom;
position = "{373, 0}";
},
{
name = top;
position = "{500, 710}";
}
);
layerId = "C1DA716A-5F29-4CD0-A38F-CCADF5849A80";
paths = (
{
closed = 1;
nodes = (
"31 0 LINE",
"215 0 LINE",
"290 423 LINE",
"297 423 LINE",
"462 0 LINE",
"699 0 LINE",
"824 710 LINE",
"639 710 LINE",
"565 289 LINE",
"558 289 LINE",
"393 710 LINE",
"156 710 LINE"
);
}
);
width = 824;
}
);
leftMetricsKey = "=H";
rightMetricsKey = "=H";
unicode = 004E;
userData = {
RMXScaler = {
source = N;
};
};
},
{
color = 4;
glyphname = O;
lastChange = "2017-09-20 14:25:04 +0000";
layers = (
{
anchors = (
{
name = bottom;
position = "{364, 0}";
},
{
name = top;
position = "{490, 710}";
}
);
background = {
anchors = (
{
name = bottom;
position = "{364, 0}";
},
{
name = top;
position = "{490, 710}";
}
);
paths = (
{
closed = 1;
nodes = (
"629 -23 OFFCURVE",
"788 160 OFFCURVE",
"788 424 CURVE SMOOTH",
"788 618 OFFCURVE",
"685 718 OFFCURVE",
"486 725 CURVE SMOOTH",
"226 734 OFFCURVE",
"67 559 OFFCURVE",
"67 295 CURVE SMOOTH",
"67 101 OFFCURVE",
"170 -9 OFFCURVE",
"369 -15 CURVE SMOOTH"
);
},
{
closed = 1;
nodes = (
"276 112 OFFCURVE",
"222 176 OFFCURVE",
"222 293 CURVE SMOOTH",
"222 487 OFFCURVE",
"312 603 OFFCURVE",
"466 600 CURVE SMOOTH",
"579 598 OFFCURVE",
"634 536 OFFCURVE",
"634 417 CURVE SMOOTH",
"634 224 OFFCURVE",
"543 107 OFFCURVE",
"389 110 CURVE SMOOTH"
);
}
);
};
layerId = "C76CAC8E-7AD6-478C-8F7E-02FEF6F1EA84";
paths = (
{
closed = 1;
nodes = (
"637 -15 OFFCURVE",
"788 157 OFFCURVE",
"788 415 CURVE SMOOTH",
"788 610 OFFCURVE",
"679 725 OFFCURVE",
"470 725 CURVE SMOOTH",
"218 725 OFFCURVE",
"67 553 OFFCURVE",
"67 295 CURVE SMOOTH",
"67 100 OFFCURVE",
"176 -15 OFFCURVE",
"385 -15 CURVE SMOOTH"
);
},
{
closed = 1;
nodes = (
"278 110 OFFCURVE",
"222 174 OFFCURVE",
"222 293 CURVE SMOOTH",
"222 485 OFFCURVE",
"310 600 OFFCURVE",
"460 600 CURVE SMOOTH",
"577 600 OFFCURVE",
"633 536 OFFCURVE",
"633 417 CURVE SMOOTH",
"633 225 OFFCURVE",
"545 110 OFFCURVE",
"395 110 CURVE SMOOTH"
);
}
);
width = 823;
},
{
anchors = (
{
name = bottom;
position = "{350, 0}";
},
{
name = top;
position = "{475, 710}";
}
);
layerId = "CC363ACD-D5A5-4E19-A940-9AF36D109D9E";
paths = (
{
closed = 1;
nodes = (
"621 -15 OFFCURVE",
"743 224 OFFCURVE",
"743 428 CURVE SMOOTH",
"743 601 OFFCURVE",
"645 725 OFFCURVE",
"465 725 CURVE SMOOTH",
"205 725 OFFCURVE",
"83 486 OFFCURVE",
"83 282 CURVE SMOOTH",
"83 109 OFFCURVE",
"181 -15 OFFCURVE",
"361 -15 CURVE SMOOTH"
);
},
{
closed = 1;
nodes = (
"218 39 OFFCURVE",
"144 140 OFFCURVE",
"144 282 CURVE SMOOTH",
"144 456 OFFCURVE",
"235 671 OFFCURVE",
"462 671 CURVE SMOOTH",
"608 671 OFFCURVE",
"682 570 OFFCURVE",
"682 428 CURVE SMOOTH",
"682 254 OFFCURVE",
"591 39 OFFCURVE",
"364 39 CURVE SMOOTH"
);
}
);
width = 792;
},
{
anchors = (
{
name = bottom;
position = "{357, 0}";
},
{
name = top;
position = "{482, 710}";
}
);
layerId = "C1DA716A-5F29-4CD0-A38F-CCADF5849A80";
paths = (
{
closed = 1;
nodes = (
"646 -15 OFFCURVE",
"788 179 OFFCURVE",
"788 421 CURVE SMOOTH",
"788 604 OFFCURVE",
"673 725 OFFCURVE",
"465 725 CURVE SMOOTH",
"195 725 OFFCURVE",
"53 531 OFFCURVE",
"53 289 CURVE SMOOTH",
"53 106 OFFCURVE",
"168 -15 OFFCURVE",
"376 -15 CURVE SMOOTH"
);
},
{
closed = 1;
nodes = (
"311 158 OFFCURVE",
"276 217 OFFCURVE",
"276 297 CURVE SMOOTH",
"276 392 OFFCURVE",
"320 552 OFFCURVE",
"455 552 CURVE SMOOTH",
"530 552 OFFCURVE",
"565 493 OFFCURVE",
"565 413 CURVE SMOOTH",
"565 318 OFFCURVE",
"521 158 OFFCURVE",
"386 158 CURVE SMOOTH"
);
}
);
width = 810;
}
);
unicode = 004F;
userData = {
RMXScaler = {
source = O;
};
};
},
{
glyphname = P;
lastChange = "2017-09-20 14:09:04 +0000";
layers = (
{
background = {
paths = (
{
closed = 1;
nodes = (
"243 0 LINE",
"243 710 LINE",
"95 710 LINE",
"95 0 LINE"
);
},
{
closed = 1;
nodes = (
"224 374 LINE",
"224 253 LINE",
"418 253 LINE SMOOTH",
"608 253 OFFCURVE",
"681 341 OFFCURVE",
"681 482 CURVE SMOOTH",
"681 626 OFFCURVE",
"607 710 OFFCURVE",
"422 710 CURVE SMOOTH",
"224 710 LINE",
"224 588 LINE",
"388 588 LINE SMOOTH",
"494 588 OFFCURVE",
"538 566 OFFCURVE",
"538 483 CURVE SMOOTH",
"538 400 OFFCURVE",
"494 374 OFFCURVE",
"386 374 CURVE SMOOTH"
);
}
);
};
layerId = "C76CAC8E-7AD6-478C-8F7E-02FEF6F1EA84";
paths = (
{
closed = 1;
nodes = (
"197 0 LINE",
"322 710 LINE",
"174 710 LINE",
"49 0 LINE"
);
},
{
closed = 1;
nodes = (
"245 374 LINE",
"223 253 LINE",
"411 253 LINE SMOOTH",
"636 253 OFFCURVE",
"715 372 OFFCURVE",
"715 531 CURVE SMOOTH",
"715 643 OFFCURVE",
"650 710 OFFCURVE",
"496 710 CURVE SMOOTH",
"304 710 LINE",
"282 588 LINE",
"441 588 LINE SMOOTH",
"529 588 OFFCURVE",
"569 570 OFFCURVE",
"569 508 CURVE SMOOTH",
"569 411 OFFCURVE",
"531 374 OFFCURVE",
"401 374 CURVE SMOOTH"
);
}
);
width = 719;
},
{
layerId = "CC363ACD-D5A5-4E19-A940-9AF36D109D9E";
paths = (
{
closed = 1;
nodes = (
"180 0 LINE",
"180 710 LINE",
"120 710 LINE",
"120 0 LINE"
);
},
{
closed = 1;
nodes = (
"160 351 LINE",
"160 302 LINE",
"390 302 LINE SMOOTH",
"547 302 OFFCURVE",
"629 365 OFFCURVE",
"629 505 CURVE SMOOTH",
"629 645 OFFCURVE",
"547 710 OFFCURVE",
"390 710 CURVE SMOOTH",
"160 710 LINE",
"160 658 LINE",
"375 658 LINE SMOOTH",
"523 658 OFFCURVE",
"572 615 OFFCURVE",
"572 505 CURVE SMOOTH",
"572 395 OFFCURVE",
"523 351 OFFCURVE",
"375 351 CURVE SMOOTH"
);
}
);
width = 674;
},
{
layerId = "C1DA716A-5F29-4CD0-A38F-CCADF5849A80";
paths = (
{
closed = 1;
nodes = (
"293 0 LINE",
"293 710 LINE",
"73 710 LINE",
"73 0 LINE"
);
},
{
closed = 1;
nodes = (
"274 381 LINE",
"274 222 LINE",
"441 222 LINE SMOOTH",
"632 222 OFFCURVE",
"715 315 OFFCURVE",
"715 464 CURVE SMOOTH",
"715 622 OFFCURVE",
"632 710 OFFCURVE",
"450 710 CURVE SMOOTH",
"274 710 LINE",
"274 551 LINE",
"410 551 LINE SMOOTH",
"479 551 OFFCURVE",
"506 528 OFFCURVE",
"506 468 CURVE SMOOTH",
"506 406 OFFCURVE",
"479 381 OFFCURVE",
"410 381 CURVE SMOOTH"
);
}
);
width = 743;
}
);
leftMetricsKey = H;
unicode = 0050;
userData = {
RMXScaler = {
source = P;
};
};
},
{
glyphname = Q;
lastChange = "2017-09-20 14:09:04 +0000";
layers = (
{
background = {
paths = (
{
closed = 1;
nodes = (
"747 -97 LINE",
"604 92 LINE",
"579 92 LINE",
"478 237 LINE",
"341 237 LINE",
"489 19 LINE",
"513 19 LINE",
"602 -97 LINE"
);
},
{
closed = 1;
nodes = (
"636 -15 OFFCURVE",
"768 116 OFFCURVE",
"768 356 CURVE SMOOTH",
"768 596 OFFCURVE",
"636 725 OFFCURVE",
"412 725 CURVE SMOOTH",
"187 725 OFFCURVE",
"55 596 OFFCURVE",
"55 356 CURVE SMOOTH",
"55 116 OFFCURVE",
"187 -15 OFFCURVE",
"412 -15 CURVE SMOOTH"
);
},
{
closed = 1;
nodes = (
"271 110 OFFCURVE",
"208 200 OFFCURVE",
"208 356 CURVE SMOOTH",
"208 510 OFFCURVE",
"271 600 OFFCURVE",
"412 600 CURVE SMOOTH",
"552 600 OFFCURVE",
"616 510 OFFCURVE",
"616 356 CURVE SMOOTH",
"616 200 OFFCURVE",
"552 110 OFFCURVE",
"412 110 CURVE SMOOTH"
);
}
);
};
layerId = "C76CAC8E-7AD6-478C-8F7E-02FEF6F1EA84";
paths = (
{
closed = 1;
nodes = (
"679 -97 LINE",
"571 92 LINE",
"547 92 LINE",
"473 237 LINE",
"338 237 LINE",
"444 19 LINE",
"468 19 LINE",
"535 -97 LINE"
);
},
{
closed = 1;
nodes = (
"625 -15 OFFCURVE",
"788 156 OFFCURVE",
"788 435 CURVE SMOOTH",
"788 622 OFFCURVE",
"683 725 OFFCURVE",
"494 725 CURVE SMOOTH",
"231 725 OFFCURVE",
"68 556 OFFCURVE",
"68 276 CURVE SMOOTH",
"68 89 OFFCURVE",
"173 -15 OFFCURVE",
"363 -15 CURVE SMOOTH"
);
},
{
closed = 1;
nodes = (
"273 110 OFFCURVE",
"222 177 OFFCURVE",
"222 291 CURVE SMOOTH",
"222 466 OFFCURVE",
"295 600 OFFCURVE",
"472 600 CURVE SMOOTH",
"584 600 OFFCURVE",
"635 533 OFFCURVE",
"635 419 CURVE SMOOTH",
"635 244 OFFCURVE",
"560 110 OFFCURVE",
"385 110 CURVE SMOOTH"
);
}
);
width = 823;
},
{
layerId = "CC363ACD-D5A5-4E19-A940-9AF36D109D9E";
paths = (
{
closed = 1;
nodes = (
"692 -106 LINE",
"564 44 LINE",
"558 44 LINE",
"414 213 LINE",
"350 213 LINE",
"514 17 LINE",
"521 17 LINE",
"628 -106 LINE"
);
},
{
closed = 1;
nodes = (
"586 -15 OFFCURVE",
"722 116 OFFCURVE",
"722 354 CURVE SMOOTH",
"722 595 OFFCURVE",
"586 725 OFFCURVE",
"396 725 CURVE SMOOTH",
"205 725 OFFCURVE",
"70 595 OFFCURVE",
"70 354 CURVE SMOOTH",
"70 116 OFFCURVE",
"205 -15 OFFCURVE",
"396 -15 CURVE SMOOTH"
);
},
{
closed = 1;
nodes = (
"229 36 OFFCURVE",
"132 154 OFFCURVE",
"132 354 CURVE SMOOTH",
"132 556 OFFCURVE",
"229 674 OFFCURVE",
"396 674 CURVE SMOOTH",
"562 674 OFFCURVE",
"660 556 OFFCURVE",
"660 354 CURVE SMOOTH",
"660 154 OFFCURVE",
"562 36 OFFCURVE",
"396 36 CURVE SMOOTH"
);
}
);
width = 792;
},
{
layerId = "C1DA716A-5F29-4CD0-A38F-CCADF5849A80";
paths = (
{
closed = 1;
nodes = (
"751 -88 LINE",
"611 112 LINE",
"584 112 LINE",
"487 262 LINE",
"327 262 LINE",
"459 34 LINE",
"481 34 LINE",
"570 -88 LINE"
);
},
{
closed = 1;
nodes = (
"647 -15 OFFCURVE",
"771 116 OFFCURVE",
"771 355 CURVE SMOOTH",
"771 595 OFFCURVE",
"647 725 OFFCURVE",
"405 725 CURVE SMOOTH",
"165 725 OFFCURVE",
"40 595 OFFCURVE",
"40 355 CURVE SMOOTH",
"40 116 OFFCURVE",
"165 -15 OFFCURVE",
"405 -15 CURVE SMOOTH"
);
},
{
closed = 1;
nodes = (
"294 155 OFFCURVE",
"258 222 OFFCURVE",
"258 355 CURVE SMOOTH",
"258 481 OFFCURVE",
"294 553 OFFCURVE",
"405 553 CURVE SMOOTH",
"519 553 OFFCURVE",
"553 481 OFFCURVE",
"553 355 CURVE SMOOTH",
"553 222 OFFCURVE",
"519 155 OFFCURVE",
"405 155 CURVE SMOOTH"
);
}
);
width = 811;
}
);
leftMetricsKey = O;
rightMetricsKey = O;
unicode = 0051;
userData = {
RMXScaler = {
source = Q;
};
};
},
{
glyphname = R;
lastChange = "2017-09-20 14:09:04 +0000";
layers = (
{
anchors = (
{
name = bottom;
position = "{329, 0}";
},
{
name = top;
position = "{451, 710}";
}
);
background = {
anchors = (
{
name = bottom;
position = "{380, 0}";
},
{
name = top;
position = "{377, 710}";
}
);
paths = (
{
closed = 1;
nodes = (
"243 0 LINE",
"243 710 LINE",
"95 710 LINE",
"95 0 LINE"
);
},
{
closed = 1;
nodes = (
"224 385 LINE",
"224 270 LINE",
"404 270 LINE SMOOTH",
"604 270 OFFCURVE",
"687 355 OFFCURVE",
"687 488 CURVE SMOOTH",
"687 626 OFFCURVE",
"611 710 OFFCURVE",
"426 710 CURVE SMOOTH",
"224 710 LINE",
"224 588 LINE",
"393 588 LINE SMOOTH",
"499 588 OFFCURVE",
"544 566 OFFCURVE",
"544 489 CURVE SMOOTH",
"544 413 OFFCURVE",
"499 385 OFFCURVE",
"392 385 CURVE SMOOTH"
);
},
{
closed = 1;
nodes = (
"686 0 LINE",
"464 331 LINE",
"307 331 LINE",
"521 0 LINE"
);
}
);
};
layerId = "C76CAC8E-7AD6-478C-8F7E-02FEF6F1EA84";
paths = (
{
closed = 1;
nodes = (
"197 0 LINE",
"322 710 LINE",
"174 710 LINE",
"49 0 LINE"
);
},
{
closed = 1;
nodes = (
"246 385 LINE",
"226 270 LINE",
"401 270 LINE SMOOTH",
"629 270 OFFCURVE",
"721 378 OFFCURVE",
"721 533 CURVE SMOOTH",
"721 643 OFFCURVE",
"655 710 OFFCURVE",
"500 710 CURVE SMOOTH",
"304 710 LINE",
"282 588 LINE",
"446 588 LINE SMOOTH",
"535 588 OFFCURVE",
"576 570 OFFCURVE",
"576 511 CURVE SMOOTH",
"576 423 OFFCURVE",
"533 385 OFFCURVE",
"409 385 CURVE SMOOTH"
);
},
{
closed = 1;
nodes = (
"630 0 LINE",
"472 331 LINE",
"316 331 LINE",
"465 0 LINE"
);
}
);
width = 739;
},
{
anchors = (
{
name = bottom;
position = "{355, 0}";
},
{
name = top;
position = "{352, 710}";
}
);
layerId = "CC363ACD-D5A5-4E19-A940-9AF36D109D9E";
paths = (
{
closed = 1;
nodes = (
"180 0 LINE",
"180 710 LINE",
"120 710 LINE",
"120 0 LINE"
);
},
{
closed = 1;
nodes = (
"161 364 LINE",
"161 314 LINE",
"374 314 LINE SMOOTH",
"582 314 OFFCURVE",
"634 410 OFFCURVE",
"634 510 CURVE SMOOTH",
"634 647 OFFCURVE",
"552 710 OFFCURVE",
"395 710 CURVE SMOOTH",
"161 710 LINE",
"161 658 LINE",
"381 658 LINE SMOOTH",
"528 658 OFFCURVE",
"577 615 OFFCURVE",
"577 510 CURVE SMOOTH",
"577 418 OFFCURVE",
"528 364 OFFCURVE",
"369 364 CURVE SMOOTH"
);
},
{
closed = 1;
nodes = (
"621 0 LINE",
"363 328 LINE",
"296 328 LINE",
"550 0 LINE"
);
}
);
width = 709;
},
{
anchors = (
{
name = bottom;
position = "{385, 0}";
},
{
name = top;
position = "{382, 710}";
}
);
layerId = "C1DA716A-5F29-4CD0-A38F-CCADF5849A80";
paths = (
{
closed = 1;
nodes = (
"292 0 LINE",
"292 710 LINE",
"73 710 LINE",
"73 0 LINE"
);
},
{
closed = 1;
nodes = (
"273 393 LINE",
"273 249 LINE",
"437 249 LINE SMOOTH",
"632 249 OFFCURVE",
"716 329 OFFCURVE",
"716 477 CURVE SMOOTH",
"716 626 OFFCURVE",
"634 710 OFFCURVE",
"450 710 CURVE SMOOTH",
"273 710 LINE",
"273 551 LINE",
"412 551 LINE SMOOTH",
"481 551 OFFCURVE",
"507 527 OFFCURVE",
"507 472 CURVE SMOOTH",
"507 418 OFFCURVE",
"481 393 OFFCURVE",
"411 393 CURVE SMOOTH"
);
},
{
closed = 1;
nodes = (
"735 0 LINE",
"530 320 LINE",
"305 320 LINE",
"502 0 LINE"
);
}
);
width = 757;
}
);
leftMetricsKey = H;
unicode = 0052;
userData = {
RMXScaler = {
source = R;
};
};
},
{
glyphname = S;
lastChange = "2017-09-20 14:09:04 +0000";
layers = (
{
anchors = (
{
name = bottom;
position = "{309, 0}";
},
{
name = top;
position = "{425, 710}";
}
);
background = {
anchors = (
{
name = bottom;
position = "{361, 0}";
},
{
name = top;
position = "{352, 710}";
}
);
paths = (
{
closed = 1;
nodes = (
"551 -15 OFFCURVE",
"654 65 OFFCURVE",
"654 198 CURVE SMOOTH",
"654 316 OFFCURVE",
"592 377 OFFCURVE",
"428 410 CURVE SMOOTH",
"343 427 LINE SMOOTH",
"252 445 OFFCURVE",
"217 469 OFFCURVE",
"217 523 CURVE SMOOTH",
"217 578 OFFCURVE",
"266 608 OFFCURVE",
"349 608 CURVE SMOOTH",
"452 608 OFFCURVE",
"491 585 OFFCURVE",
"503 508 CURVE",
"648 508 LINE",
"635 659 OFFCURVE",
"544 725 OFFCURVE",
"352 725 CURVE SMOOTH",
"173 725 OFFCURVE",
"71 642 OFFCURVE",
"71 514 CURVE SMOOTH",
"71 397 OFFCURVE",
"139 333 OFFCURVE",
"294 302 CURVE SMOOTH",
"379 285 LINE SMOOTH",
"477 265 OFFCURVE",
"508 243 OFFCURVE",
"508 189 CURVE SMOOTH",
"508 130 OFFCURVE",
"452 102 OFFCURVE",
"368 102 CURVE SMOOTH",
"255 102 OFFCURVE",
"216 134 OFFCURVE",
"201 200 CURVE",
"55 200 LINE",
"65 62 OFFCURVE",
"162 -15 OFFCURVE",
"363 -15 CURVE SMOOTH"
);
}
);
};
layerId = "C76CAC8E-7AD6-478C-8F7E-02FEF6F1EA84";
paths = (
{
closed = 1;
nodes = (
"516 -15 OFFCURVE",
"636 81 OFFCURVE",
"636 237 CURVE SMOOTH",
"636 329 OFFCURVE",
"581 382 OFFCURVE",
"449 410 CURVE SMOOTH",
"368 427 LINE SMOOTH",
"293 443 OFFCURVE",
"260 465 OFFCURVE",
"260 508 CURVE SMOOTH",
"260 573 OFFCURVE",
"316 608 OFFCURVE",
"405 608 CURVE SMOOTH",
"504 608 OFFCURVE",
"538 585 OFFCURVE",
"536 508 CURVE",
"681 508 LINE",
"695 659 OFFCURVE",
"617 725 OFFCURVE",
"428 725 CURVE SMOOTH",
"231 725 OFFCURVE",
"111 626 OFFCURVE",
"111 478 CURVE SMOOTH",
"111 384 OFFCURVE",
"169 328 OFFCURVE",
"296 302 CURVE SMOOTH",
"378 285 LINE SMOOTH",
"456 268 OFFCURVE",
"486 247 OFFCURVE",
"486 204 CURVE SMOOTH",
"486 135 OFFCURVE",
"423 102 OFFCURVE",
"334 102 CURVE SMOOTH",
"225 102 OFFCURVE",
"192 134 OFFCURVE",
"190 200 CURVE",
"44 200 LINE",
"29 62 OFFCURVE",
"111 -15 OFFCURVE",
"308 -15 CURVE SMOOTH"
);
}
);
width = 700;
},
{
anchors = (
{
name = bottom;
position = "{330, 0}";
},
{
name = top;
position = "{327, 710}";
}
);
layerId = "CC363ACD-D5A5-4E19-A940-9AF36D109D9E";
paths = (
{
closed = 1;
nodes = (
"496 -15 OFFCURVE",
"590 55 OFFCURVE",
"590 183 CURVE SMOOTH",
"590 294 OFFCURVE",
"516 349 OFFCURVE",
"389 376 CURVE SMOOTH",
"294 396 LINE SMOOTH",
"194 417 OFFCURVE",
"152 471 OFFCURVE",
"152 536 CURVE SMOOTH",
"152 630 OFFCURVE",
"230 675 OFFCURVE",
"330 675 CURVE SMOOTH",
"453 675 OFFCURVE",
"512 638 OFFCURVE",
"534 530 CURVE",
"592 530 LINE",
"572 666 OFFCURVE",
"487 725 OFFCURVE",
"329 725 CURVE SMOOTH",
"181 725 OFFCURVE",
"94 648 OFFCURVE",
"94 533 CURVE SMOOTH",
"94 440 OFFCURVE",
"157 365 OFFCURVE",
"282 340 CURVE SMOOTH",
"377 321 LINE SMOOTH",
"477 301 OFFCURVE",
"532 263 OFFCURVE",
"532 177 CURVE SMOOTH",
"532 86 OFFCURVE",
"462 35 OFFCURVE",
"349 35 CURVE SMOOTH",
"217 35 OFFCURVE",
"151 72 OFFCURVE",
"129 175 CURVE",
"70 175 LINE",
"88 42 OFFCURVE",
"180 -15 OFFCURVE",
"348 -15 CURVE SMOOTH"
);
}
);
width = 662;
},
{
anchors = (
{
name = bottom;
position = "{377, 0}";
},
{
name = top;
position = "{370, 710}";
}
);
layerId = "C1DA716A-5F29-4CD0-A38F-CCADF5849A80";
paths = (
{
closed = 1;
nodes = (
"587 -15 OFFCURVE",
"697 66 OFFCURVE",
"697 212 CURVE SMOOTH",
"697 332 OFFCURVE",
"637 399 OFFCURVE",
"473 429 CURVE SMOOTH",
"374 447 LINE SMOOTH",
"303 460 OFFCURVE",
"268 473 OFFCURVE",
"268 512 CURVE SMOOTH",
"268 551 OFFCURVE",
"306 569 OFFCURVE",
"366 569 CURVE SMOOTH",
"450 569 OFFCURVE",
"483 548 OFFCURVE",
"491 492 CURVE",
"694 492 LINE",
"681 643 OFFCURVE",
"590 725 OFFCURVE",
"370 725 CURVE SMOOTH",
"164 725 OFFCURVE",
"61 636 OFFCURVE",
"61 496 CURVE SMOOTH",
"61 374 OFFCURVE",
"142 299 OFFCURVE",
"293 275 CURVE SMOOTH",
"392 259 LINE SMOOTH",
"455 249 OFFCURVE",
"490 232 OFFCURVE",
"490 194 CURVE SMOOTH",
"490 156 OFFCURVE",
"447 141 OFFCURVE",
"384 141 CURVE SMOOTH",
"303 141 OFFCURVE",
"257 163 OFFCURVE",
"253 218 CURVE",
"48 218 LINE",
"58 54 OFFCURVE",
"163 -15 OFFCURVE",
"378 -15 CURVE SMOOTH"
);
}
);
width = 745;
}
);
unicode = 0053;
userData = {
RMXScaler = {
source = S;
};
};
},
{
glyphname = T;
lastChange = "2017-09-20 14:09:04 +0000";
layers = (
{
anchors = (
{
name = bottom;
position = "{257, 0}";
},
{
name = top;
position = "{380, 710}";
}
);
background = {
anchors = (
{
name = bottom;
position = "{309, 0}";
},
{
name = top;
position = "{306, 710}";
}
);
paths = (
{
closed = 1;
nodes = (
"15 710 LINE",
"15 585 LINE",
"233 585 LINE",
"233 0 LINE",
"381 0 LINE",
"381 585 LINE",
"599 585 LINE",
"599 710 LINE"
);
}
);
};
layerId = "C76CAC8E-7AD6-478C-8F7E-02FEF6F1EA84";
paths = (
{
closed = 1;
nodes = (
"94 710 LINE",
"72 585 LINE",
"284 585 LINE",
"181 0 LINE",
"329 0 LINE",
"433 585 LINE",
"645 585 LINE",
"667 710 LINE"
);
}
);
width = 603;
},
{
anchors = (
{
name = bottom;
position = "{271, 0}";
},
{
name = top;
position = "{268, 710}";
}
);
layerId = "CC363ACD-D5A5-4E19-A940-9AF36D109D9E";
paths = (
{
closed = 1;
nodes = (
"10 710 LINE",
"10 657 LINE",
"240 657 LINE",
"240 0 LINE",
"300 0 LINE",
"300 657 LINE",
"530 657 LINE",
"530 710 LINE"
);
}
);
width = 540;
},
{
anchors = (
{
name = bottom;
position = "{324, 0}";
},
{
name = top;
position = "{321, 710}";
}
);
layerId = "C1DA716A-5F29-4CD0-A38F-CCADF5849A80";
paths = (
{
closed = 1;
nodes = (
"5 710 LINE",
"5 535 LINE",
"210 535 LINE",
"210 0 LINE",
"430 0 LINE",
"430 535 LINE",
"635 535 LINE",
"635 710 LINE"
);
}
);
width = 640;
}
);
unicode = 0054;
userData = {
RMXScaler = {
source = T;
};
};
},
{
glyphname = U;
lastChange = "2017-09-20 14:09:04 +0000";
layers = (
{
anchors = (
{
name = ogonek;
position = "{441, 0}";
},
{
name = top;
position = "{465, 710}";
}
);
background = {
anchors = (
{
name = ogonek;
position = "{496, 0}";
},
{
name = top;
position = "{392, 710}";
}
);
paths = (
{
closed = 1;
nodes = (
"85 710 LINE",
"85 310 LINE SMOOTH",
"85 81 OFFCURVE",
"186 -15 OFFCURVE",
"392 -15 CURVE SMOOTH",
"597 -15 OFFCURVE",
"699 81 OFFCURVE",
"699 310 CURVE SMOOTH",
"699 710 LINE",
"551 710 LINE",
"551 321 LINE SMOOTH",
"551 165 OFFCURVE",
"504 110 OFFCURVE",
"392 110 CURVE SMOOTH",
"279 110 OFFCURVE",
"233 165 OFFCURVE",
"233 321 CURVE SMOOTH",
"233 710 LINE"
);
}
);
};
layerId = "C76CAC8E-7AD6-478C-8F7E-02FEF6F1EA84";
paths = (
{
closed = 1;
nodes = (
"164 710 LINE",
"93 310 LINE SMOOTH",
"53 81 OFFCURVE",
"135 -15 OFFCURVE",
"337 -15 CURVE SMOOTH",
"539 -15 OFFCURVE",
"656 81 OFFCURVE",
"696 310 CURVE SMOOTH",
"767 710 LINE",
"619 710 LINE",
"550 321 LINE SMOOTH",
"522 165 OFFCURVE",
"468 110 OFFCURVE",
"359 110 CURVE SMOOTH",
"250 110 OFFCURVE",
"215 165 OFFCURVE",
"243 321 CURVE SMOOTH",
"312 710 LINE"
);
}
);
width = 773;
},
{
anchors = (
{
name = ogonek;
position = "{468, 0}";
},
{
name = top;
position = "{377, 710}";
}
);
layerId = "CC363ACD-D5A5-4E19-A940-9AF36D109D9E";
paths = (
{
closed = 1;
nodes = (
"110 710 LINE",
"110 286 LINE SMOOTH",
"110 71 OFFCURVE",
"216 -15 OFFCURVE",
"380 -15 CURVE SMOOTH",
"545 -15 OFFCURVE",
"650 71 OFFCURVE",
"650 286 CURVE SMOOTH",
"650 710 LINE",
"590 710 LINE",
"590 297 LINE SMOOTH",
"590 90 OFFCURVE",
"510 36 OFFCURVE",
"380 36 CURVE SMOOTH",
"249 36 OFFCURVE",
"170 90 OFFCURVE",
"170 297 CURVE SMOOTH",
"170 710 LINE"
);
}
);
width = 760;
},
{
anchors = (
{
name = ogonek;
position = "{486, 0}";
},
{
name = top;
position = "{388, 710}";
}
);
layerId = "C1DA716A-5F29-4CD0-A38F-CCADF5849A80";
paths = (
{
closed = 1;
nodes = (
"63 710 LINE",
"63 320 LINE SMOOTH",
"63 84 OFFCURVE",
"162 -15 OFFCURVE",
"392 -15 CURVE SMOOTH",
"622 -15 OFFCURVE",
"720 84 OFFCURVE",
"720 320 CURVE SMOOTH",
"720 710 LINE",
"500 710 LINE",
"500 325 LINE SMOOTH",
"500 207 OFFCURVE",
"481 158 OFFCURVE",
"392 158 CURVE SMOOTH",
"303 158 OFFCURVE",
"283 207 OFFCURVE",
"283 325 CURVE SMOOTH",
"283 710 LINE"
);
}
);
width = 783;
}
);
unicode = 0055;
userData = {
RMXScaler = {
source = U;
};
};
},
{
glyphname = V;
lastChange = "2017-09-20 14:09:04 +0000";
layers = (
{
background = {
paths = (
{
closed = 1;
nodes = (
"350 123 LINE",
"342 123 LINE",
"163 710 LINE",
"5 710 LINE",
"242 0 LINE",
"447 0 LINE",
"684 710 LINE",
"528 710 LINE"
);
}
);
};
layerId = "C76CAC8E-7AD6-478C-8F7E-02FEF6F1EA84";
paths = (
{
closed = 1;
nodes = (
"320 123 LINE",
"312 123 LINE",
"242 710 LINE",
"84 710 LINE",
"190 0 LINE",
"396 0 LINE",
"752 710 LINE",
"596 710 LINE"
);
}
);
width = 678;
},
{
layerId = "CC363ACD-D5A5-4E19-A940-9AF36D109D9E";
paths = (
{
closed = 1;
nodes = (
"319 69 LINE",
"312 69 LINE",
"74 710 LINE",
"10 710 LINE",
"281 0 LINE",
"349 0 LINE",
"620 710 LINE",
"556 710 LINE"
);
}
);
width = 630;
},
{
layerId = "C1DA716A-5F29-4CD0-A38F-CCADF5849A80";
paths = (
{
closed = 1;
nodes = (
"373 183 LINE",
"363 183 LINE",
"235 710 LINE",
"5 710 LINE",
"213 0 LINE",
"523 0 LINE",
"731 710 LINE",
"503 710 LINE"
);
}
);
width = 736;
}
);
unicode = 0056;
userData = {
RMXScaler = {
source = V;
};
};
},
{
glyphname = W;
lastChange = "2017-09-20 14:09:04 +0000";
layers = (
{
anchors = (
{
name = top;
position = "{592, 710}";
}
);
background = {
anchors = (
{
name = top;
position = "{518, 710}";
}
);
paths = (
{
closed = 1;
nodes = (
"741 127 LINE",
"733 127 LINE",
"600 710 LINE",
"439 710 LINE",
"308 127 LINE",
"300 127 LINE",
"168 710 LINE",
"10 710 LINE",
"191 0 LINE",
"401 0 LINE",
"516 539 LINE",
"522 539 LINE",
"638 0 LINE",
"848 0 LINE",
"1029 710 LINE",
"871 710 LINE"
);
}
);
};
layerId = "C76CAC8E-7AD6-478C-8F7E-02FEF6F1EA84";
paths = (
{
closed = 1;
nodes = (
"709 127 LINE",
"701 127 LINE",
"673 710 LINE",
"513 710 LINE",
"281 127 LINE",
"273 127 LINE",
"247 710 LINE",
"89 710 LINE",
"142 0 LINE",
"352 0 LINE",
"559 539 LINE",
"565 539 LINE",
"584 0 LINE",
"793 0 LINE",
"1097 710 LINE",
"939 710 LINE"
);
}
);
width = 1028;
},
{
anchors = (
{
name = top;
position = "{489, 710}";
}
);
layerId = "CC363ACD-D5A5-4E19-A940-9AF36D109D9E";
paths = (
{
closed = 1;
nodes = (
"708 66 LINE",
"703 66 LINE",
"528 710 LINE",
"449 710 LINE",
"274 66 LINE",
"269 66 LINE",
"84 710 LINE",
"20 710 LINE",
"234 0 LINE",
"310 0 LINE",
"486 650 LINE",
"490 650 LINE",
"667 0 LINE",
"743 0 LINE",
"957 710 LINE",
"893 710 LINE"
);
}
);
width = 977;
},
{
anchors = (
{
name = top;
position = "{554, 710}";
}
);
layerId = "C1DA716A-5F29-4CD0-A38F-CCADF5849A80";
paths = (
{
closed = 1;
nodes = (
"780 183 LINE",
"770 183 LINE",
"670 710 LINE",
"439 710 LINE",
"342 183 LINE",
"332 183 LINE",
"231 710 LINE",
"5 710 LINE",
"180 0 LINE",
"467 0 LINE",
"551 487 LINE",
"557 487 LINE",
"642 0 LINE",
"929 0 LINE",
"1104 710 LINE",
"878 710 LINE"
);
}
);
width = 1109;
}
);
unicode = 0057;
userData = {
RMXScaler = {
source = W;
};
};
},
{
glyphname = X;
lastChange = "2017-09-20 14:09:04 +0000";
layers = (
{
background = {
paths = (
{
closed = 1;
nodes = (
"175 0 LINE",
"375 318 LINE",
"425 318 LINE",
"678 710 LINE",
"519 710 LINE",
"319 394 LINE",
"269 394 LINE",
"15 0 LINE"
);
},
{
closed = 1;
nodes = (
"678 0 LINE",
"397 445 LINE",
"347 445 LINE",
"175 710 LINE",
"15 710 LINE",
"297 267 LINE",
"348 267 LINE",
"519 0 LINE"
);
}
);
};
layerId = "C76CAC8E-7AD6-478C-8F7E-02FEF6F1EA84";
paths = (
{
closed = 1;
nodes = (
"129 0 LINE",
"380 318 LINE",
"431 318 LINE",
"746 710 LINE",
"587 710 LINE",
"337 394 LINE",
"286 394 LINE",
"-31 0 LINE"
);
},
{
closed = 1;
nodes = (
"621 0 LINE",
"425 445 LINE",
"374 445 LINE",
"254 710 LINE",
"94 710 LINE",
"292 267 LINE",
"343 267 LINE",
"462 0 LINE"
);
}
);
width = 682;
},
{
layerId = "CC363ACD-D5A5-4E19-A940-9AF36D109D9E";
paths = (
{
closed = 1;
nodes = (
"108 0 LINE",
"342 341 LINE",
"361 341 LINE",
"616 710 LINE",
"548 710 LINE",
"313 368 LINE",
"294 368 LINE",
"40 0 LINE"
);
},
{
closed = 1;
nodes = (
"616 0 LINE",
"347 391 LINE",
"328 391 LINE",
"108 710 LINE",
"40 710 LINE",
"309 318 LINE",
"328 318 LINE",
"548 0 LINE"
);
}
);
width = 656;
},
{
layerId = "C1DA716A-5F29-4CD0-A38F-CCADF5849A80";
paths = (
{
closed = 1;
nodes = (
"229 0 LINE",
"408 331 LINE",
"498 331 LINE",
"714 710 LINE",
"489 710 LINE",
"320 394 LINE",
"230 394 LINE",
"5 0 LINE"
);
},
{
closed = 1;
nodes = (
"716 0 LINE",
"451 476 LINE",
"361 476 LINE",
"232 710 LINE",
"7 710 LINE",
"270 237 LINE",
"360 237 LINE",
"491 0 LINE"
);
}
);
width = 721;
}
);
unicode = 0058;
userData = {
RMXScaler = {
source = X;
};
};
},
{
glyphname = Y;
lastChange = "2017-09-20 14:09:04 +0000";
layers = (
{
anchors = (
{
name = top;
position = "{429, 710}";
}
);
background = {
anchors = (
{
name = top;
position = "{356, 710}";
}
);
paths = (
{
closed = 1;
nodes = (
"430 0 LINE",
"430 302 LINE",
"423 245 LINE",
"709 710 LINE",
"547 710 LINE",
"360 403 LINE",
"354 403 LINE",
"165 710 LINE",
"2 710 LINE",
"288 245 LINE",
"282 302 LINE",
"282 0 LINE"
);
}
);
};
layerId = "C76CAC8E-7AD6-478C-8F7E-02FEF6F1EA84";
paths = (
{
closed = 1;
nodes = (
"378 0 LINE",
"432 302 LINE",
"415 245 LINE",
"777 710 LINE",
"616 710 LINE",
"379 403 LINE",
"374 403 LINE",
"244 710 LINE",
"81 710 LINE",
"279 245 LINE",
"283 302 LINE",
"230 0 LINE"
);
}
);
width = 700;
},
{
anchors = (
{
name = top;
position = "{313, 710}";
}
);
layerId = "CC363ACD-D5A5-4E19-A940-9AF36D109D9E";
paths = (
{
closed = 1;
nodes = (
"345 0 LINE",
"345 287 LINE",
"337 255 LINE",
"625 710 LINE",
"560 710 LINE",
"318 324 LINE",
"315 324 LINE",
"70 710 LINE",
"5 710 LINE",
"292 255 LINE",
"286 287 LINE",
"286 0 LINE"
);
}
);
width = 630;
},
{
anchors = (
{
name = top;
position = "{377, 710}";
}
);
layerId = "C1DA716A-5F29-4CD0-A38F-CCADF5849A80";
paths = (
{
closed = 1;
nodes = (
"487 0 LINE",
"487 310 LINE",
"482 254 LINE",
"750 710 LINE",
"528 710 LINE",
"387 456 LINE",
"379 456 LINE",
"234 710 LINE",
"5 710 LINE",
"275 254 LINE",
"268 310 LINE",
"268 0 LINE"
);
}
);
width = 755;
}
);
unicode = 0059;
userData = {
RMXScaler = {
source = Y;
};
};
},
{
color = 4;
glyphname = Z;
lastChange = "2017-09-20 14:09:04 +0000";
layers = (
{
anchors = (
{
name = top;
position = "{419, 710}";
}
);
background = {
anchors = (
{
name = top;
position = "{346, 710}";
}
);
paths = (
{
closed = 1;
nodes = (
"244 131 LINE",
"616 590 LINE",
"616 710 LINE",
"76 710 LINE",
"76 586 LINE",
"437 586 LINE",
"437 580 LINE",
"65 120 LINE",
"65 0 LINE",
"616 0 LINE",
"616 125 LINE",
"244 125 LINE"
);
}
);
};
layerId = "C76CAC8E-7AD6-478C-8F7E-02FEF6F1EA84";
paths = (
{
closed = 1;
nodes = (
"226 131 LINE",
"660 590 LINE",
"681 710 LINE",
"152 710 LINE",
"130 586 LINE",
"476 586 LINE",
"475 580 LINE",
"40 120 LINE",
"19 0 LINE",
"559 0 LINE",
"581 125 LINE",
"225 125 LINE"
);
}
);
width = 670;
},
{
anchors = (
{
name = top;
position = "{386, 710}";
}
);
layerId = "CC363ACD-D5A5-4E19-A940-9AF36D109D9E";
paths = (
{
closed = 1;
nodes = (
"109 56 LINE",
"613 661 LINE",
"621 710 LINE",
"161 710 LINE",
"152 657 LINE",
"537 657 LINE",
"537 654 LINE",
"33 49 LINE",
"25 0 LINE",
"496 0 LINE",
"506 53 LINE",
"109 53 LINE"
);
}
);
width = 612;
},
{
anchors = (
{
name = top;
position = "{437, 710}";
}
);
layerId = "C1DA716A-5F29-4CD0-A38F-CCADF5849A80";
paths = (
{
closed = 1;
nodes = (
"323 182 LINE",
"703 541 LINE",
"731 710 LINE",
"150 710 LINE",
"119 535 LINE",
"422 535 LINE",
"421 527 LINE",
"41 169 LINE",
"14 0 LINE",
"606 0 LINE",
"636 174 LINE",
"322 174 LINE"
);
}
);
width = 713;
}
);
unicode = 005A;
userData = {
RMXScaler = {
source = Z;
};
};
},
{
color = 4;
glyphname = a;
lastChange = "2017-09-20 14:09:04 +0000";
layers = (
{
anchors = (
{
name = ogonek;
position = "{509, 0}";
},
{
name = top;
position = "{312, 525}";
}
);
background = {
anchors = (
{
name = ogonek;
position = "{457, 0}";
},
{
name = top;
position = "{358, 525}";
}
);
paths = (
{
closed = 1;
nodes = (
"416 320 LINE",
"240 300 LINE SMOOTH",
"87 282 OFFCURVE",
"31 225 OFFCURVE",
"31 113 CURVE SMOOTH",
"31 38 OFFCURVE",
"78 -13 OFFCURVE",
"184 -13 CURVE SMOOTH",
"267 -13 OFFCURVE",
"331 17 OFFCURVE",
"358 79 CURVE",
"344 72 LINE",
"372 72 LINE",
"361 81 LINE",
"362 0 LINE",
"477 0 LINE",
"539 354 LINE SMOOTH",
"561 481 OFFCURVE",
"496 540 OFFCURVE",
"359 540 CURVE SMOOTH",
"207 540 OFFCURVE",
"132 479 OFFCURVE",
"97 360 CURVE",
"238 360 LINE",
"254 411 OFFCURVE",
"277 432 OFFCURVE",
"337 432 CURVE SMOOTH",
"397 432 OFFCURVE",
"414 403 OFFCURVE",
"403 342 CURVE SMOOTH",
"379 208 LINE SMOOTH",
"367 142 OFFCURVE",
"329 89 OFFCURVE",
"247 89 CURVE SMOOTH",
"193 89 OFFCURVE",
"174 109 OFFCURVE",
"174 140 CURVE SMOOTH",
"174 180 OFFCURVE",
"197 207 OFFCURVE",
"249 214 CURVE SMOOTH",
"401 234 LINE"
);
}
);
};
layerId = "C76CAC8E-7AD6-478C-8F7E-02FEF6F1EA84";
paths = (
{
closed = 1;
nodes = (
"414 314 LINE",
"240 301 LINE SMOOTH",
"101 291 OFFCURVE",
"37 235 OFFCURVE",
"37 132 CURVE SMOOTH",
"37 51 OFFCURVE",
"88 -13 OFFCURVE",
"215 -13 CURVE SMOOTH",
"288 -13 OFFCURVE",
"342 23 OFFCURVE",
"364 79 CURVE",
"351 72 LINE",
"378 72 LINE",
"367 81 LINE",
"369 0 LINE",
"480 0 LINE",
"530 316 LINE SMOOTH",
"534 342 OFFCURVE",
"536 360 OFFCURVE",
"536 382 CURVE SMOOTH",
"536 496 OFFCURVE",
"460 540 OFFCURVE",
"333 540 CURVE SMOOTH",
"191 540 OFFCURVE",
"122 476 OFFCURVE",
"90 360 CURVE",
"232 360 LINE",
"248 411 OFFCURVE",
"270 432 OFFCURVE",
"332 432 CURVE SMOOTH",
"380 432 OFFCURVE",
"403 413 OFFCURVE",
"403 372 CURVE SMOOTH",
"403 361 OFFCURVE",
"401 347 OFFCURVE",
"399 334 CURVE SMOOTH",
"377 194 LINE SMOOTH",
"367 129 OFFCURVE",
"321 89 OFFCURVE",
"254 89 CURVE SMOOTH",
"204 89 OFFCURVE",
"179 109 OFFCURVE",
"179 148 CURVE SMOOTH",
"179 187 OFFCURVE",
"206 211 OFFCURVE",
"253 215 CURVE SMOOTH",
"400 228 LINE"
);
}
);
width = 598;
},
{
anchors = (
{
name = ogonek;
position = "{457, 0}";
},
{
name = top;
position = "{358, 525}";
}
);
associatedMasterId = "C76CAC8E-7AD6-478C-8F7E-02FEF6F1EA84";
background = {
anchors = (
{
name = ogonek;
position = "{509, 0}";
},
{
name = top;
position = "{312, 525}";
}
);
paths = (
{
closed = 1;
nodes = (
"419 314 LINE",
"240 301 LINE SMOOTH",
"98 291 OFFCURVE",
"32 235 OFFCURVE",
"32 132 CURVE SMOOTH",
"32 51 OFFCURVE",
"83 -13 OFFCURVE",
"210 -13 CURVE SMOOTH",
"285 -13 OFFCURVE",
"346 23 OFFCURVE",
"369 79 CURVE",
"356 72 LINE",
"383 72 LINE",
"372 81 LINE",
"374 0 LINE",
"485 0 LINE",
"535 316 LINE SMOOTH",
"539 342 OFFCURVE",
"541 360 OFFCURVE",
"541 382 CURVE SMOOTH",
"541 496 OFFCURVE",
"463 540 OFFCURVE",
"333 540 CURVE SMOOTH",
"188 540 OFFCURVE",
"117 476 OFFCURVE",
"85 360 CURVE",
"227 360 LINE",
"243 411 OFFCURVE",
"267 432 OFFCURVE",
"332 432 CURVE SMOOTH",
"383 432 OFFCURVE",
"408 413 OFFCURVE",
"408 372 CURVE SMOOTH",
"408 361 OFFCURVE",
"406 347 OFFCURVE",
"404 334 CURVE SMOOTH",
"382 194 LINE SMOOTH",
"372 129 OFFCURVE",
"324 89 OFFCURVE",
"254 89 CURVE SMOOTH",
"201 89 OFFCURVE",
"174 109 OFFCURVE",
"174 148 CURVE SMOOTH",
"174 187 OFFCURVE",
"201 211 OFFCURVE",
"248 215 CURVE SMOOTH",
"405 228 LINE"
);
}
);
};
layerId = "50DF258C-215D-4CC1-BFC7-39FCC540560D";
name = "Aug 30 17, 11:22";
paths = (
{
closed = 1;
nodes = (
"416 320 LINE",
"240 300 LINE SMOOTH",
"87 282 OFFCURVE",
"31 225 OFFCURVE",
"31 113 CURVE SMOOTH",
"31 38 OFFCURVE",
"78 -13 OFFCURVE",
"184 -13 CURVE SMOOTH",
"267 -13 OFFCURVE",
"331 17 OFFCURVE",
"358 79 CURVE",
"344 72 LINE",
"372 72 LINE",
"361 81 LINE",
"362 0 LINE",
"477 0 LINE",
"539 354 LINE SMOOTH",
"561 481 OFFCURVE",
"496 540 OFFCURVE",
"359 540 CURVE SMOOTH",
"207 540 OFFCURVE",
"132 479 OFFCURVE",
"97 360 CURVE",
"238 360 LINE",
"254 411 OFFCURVE",
"277 432 OFFCURVE",
"337 432 CURVE SMOOTH",
"397 432 OFFCURVE",
"414 403 OFFCURVE",
"403 342 CURVE SMOOTH",
"379 208 LINE SMOOTH",
"367 142 OFFCURVE",
"329 89 OFFCURVE",
"247 89 CURVE SMOOTH",
"193 89 OFFCURVE",
"174 109 OFFCURVE",
"174 140 CURVE SMOOTH",
"174 180 OFFCURVE",
"197 207 OFFCURVE",
"249 214 CURVE SMOOTH",
"401 234 LINE"
);
}
);
width = 601;
},
{
anchors = (
{
name = ogonek;
position = "{415, 0}";
},
{
name = top;
position = "{343, 515}";
}
);
layerId = "CC363ACD-D5A5-4E19-A940-9AF36D109D9E";
paths = (
{
closed = 1;
nodes = (
"447 303 LINE",
"250 278 LINE SMOOTH",
"131 263 OFFCURVE",
"52 224 OFFCURVE",
"52 112 CURVE SMOOTH",
"52 30 OFFCURVE",
"118 -15 OFFCURVE",
"206 -15 CURVE SMOOTH",
"302 -15 OFFCURVE",
"368 41 OFFCURVE",
"401 94 CURVE",
"387 87 LINE",
"406 87 LINE",
"401 101 LINE",
"388 0 LINE",
"432 0 LINE",
"488 321 LINE SMOOTH",
"492 343 OFFCURVE",
"495 378 OFFCURVE",
"495 394 CURVE SMOOTH",
"495 476 OFFCURVE",
"438 530 OFFCURVE",
"333 530 CURVE SMOOTH",
"201 530 OFFCURVE",
"147 471 OFFCURVE",
"119 370 CURVE",
"174 370 LINE",
"196 443 OFFCURVE",
"233 484 OFFCURVE",
"331 484 CURVE SMOOTH",
"403 484 OFFCURVE",
"443 453 OFFCURVE",
"443 387 CURVE SMOOTH",
"443 372 OFFCURVE",
"441 343 OFFCURVE",
"437 323 CURVE SMOOTH",
"414 194 LINE SMOOTH",
"398 103 OFFCURVE",
"304 30 OFFCURVE",
"212 30 CURVE SMOOTH",
"147 30 OFFCURVE",
"107 58 OFFCURVE",
"107 117 CURVE SMOOTH",
"107 195 OFFCURVE",
"156 222 OFFCURVE",
"245 234 CURVE SMOOTH",
"441 262 LINE"
);
}
);
width = 574;
},
{
anchors = (
{
name = ogonek;
position = "{502, 0}";
},
{
name = top;
position = "{391, 535}";
}
);
layerId = "C1DA716A-5F29-4CD0-A38F-CCADF5849A80";
paths = (
{
closed = 1;
nodes = (
"435 329 LINE",
"228 303 LINE SMOOTH",
"109 288 OFFCURVE",
"33 238 OFFCURVE",
"33 125 CURVE SMOOTH",
"33 39 OFFCURVE",
"93 -13 OFFCURVE",
"194 -13 CURVE SMOOTH",
"267 -13 OFFCURVE",
"327 18 OFFCURVE",
"364 75 CURVE",
"337 68 LINE",
"384 68 LINE",
"366 84 LINE",
"373 0 LINE",
"543 0 LINE",
"597 310 LINE SMOOTH",
"601 332 OFFCURVE",
"603 357 OFFCURVE",
"603 371 CURVE SMOOTH",
"603 487 OFFCURVE",
"519 550 OFFCURVE",
"369 550 CURVE SMOOTH",
"191 550 OFFCURVE",
"119 474 OFFCURVE",
"93 350 CURVE",
"282 350 LINE",
"293 390 OFFCURVE",
"309 407 OFFCURVE",
"354 407 CURVE SMOOTH",
"391 407 OFFCURVE",
"409 390 OFFCURVE",
"409 358 CURVE SMOOTH",
"409 351 OFFCURVE",
"407 338 OFFCURVE",
"405 327 CURVE SMOOTH",
"381 197 LINE SMOOTH",
"369 132 OFFCURVE",
"330 114 OFFCURVE",
"282 114 CURVE SMOOTH",
"253 114 OFFCURVE",
"232 129 OFFCURVE",
"232 155 CURVE SMOOTH",
"232 192 OFFCURVE",
"261 208 OFFCURVE",
"307 213 CURVE SMOOTH",
"414 225 LINE"
);
}
);
width = 647;
}
);
unicode = 0061;
userData = {
RMXScaler = {
source = a;
};
};
},
{
color = 4;
glyphname = b;
lastChange = "2017-09-20 14:31:59 +0000";
layers = (
{
background = {
paths = (
{
closed = 1;
nodes = (
"165 750 LINE",
"33 0 LINE",
"156 0 LINE",
"186 85 LINE",
"193 85 LINE",
"211 19 OFFCURVE",
"259 -14 OFFCURVE",
"332 -14 CURVE SMOOTH",
"499 -14 OFFCURVE",
"611 126 OFFCURVE",
"611 328 CURVE SMOOTH",
"611 460 OFFCURVE",
"546 540 OFFCURVE",
"430 540 CURVE SMOOTH",
"357 540 OFFCURVE",
"297 508 OFFCURVE",
"257 446 CURVE",
"252 446 LINE",
"305 750 LINE"
);
},
{
closed = 1;
nodes = (
"247 106 OFFCURVE",
"214 147 OFFCURVE",
"214 221 CURVE SMOOTH",
"214 340 OFFCURVE",
"267 420 OFFCURVE",
"366 420 CURVE SMOOTH",
"432 420 OFFCURVE",
"464 383 OFFCURVE",
"464 308 CURVE SMOOTH",
"464 186 OFFCURVE",
"419 106 OFFCURVE",
"310 106 CURVE SMOOTH"
);
}
);
};
layerId = "C76CAC8E-7AD6-478C-8F7E-02FEF6F1EA84";
paths = (
{
closed = 1;
nodes = (
"166 750 LINE",
"34 0 LINE",
"155 0 LINE",
"189 84 LINE",
"194 84 LINE",
"212 18 OFFCURVE",
"263 -15 OFFCURVE",
"343 -15 CURVE SMOOTH",
"504 -15 OFFCURVE",
"608 132 OFFCURVE",
"608 315 CURVE SMOOTH",
"608 461 OFFCURVE",
"536 539 OFFCURVE",
"427 539 CURVE SMOOTH",
"354 539 OFFCURVE",
"297 505 OFFCURVE",
"259 444 CURVE",
"252 444 LINE",
"306 750 LINE"
);
},
{
closed = 1;
nodes = (
"248 105 OFFCURVE",
"216 139 OFFCURVE",
"216 217 CURVE SMOOTH",
"216 326 OFFCURVE",
"260 419 OFFCURVE",
"363 419 CURVE SMOOTH",
"433 419 OFFCURVE",
"466 385 OFFCURVE",
"466 307 CURVE SMOOTH",
"466 198 OFFCURVE",
"421 105 OFFCURVE",
"319 105 CURVE SMOOTH"
);
}
);
width = 656;
},
{
associatedMasterId = "C76CAC8E-7AD6-478C-8F7E-02FEF6F1EA84";
background = {
paths = (
{
closed = 1;
nodes = (
"83 750 LINE",
"83 0 LINE",
"206 0 LINE",
"221 85 LINE",
"228 85 LINE",
"259 19 OFFCURVE",
"315 -14 OFFCURVE",
"389 -14 CURVE SMOOTH",
"532 -14 OFFCURVE",
"618 90 OFFCURVE",
"618 263 CURVE SMOOTH",
"618 436 OFFCURVE",
"532 540 OFFCURVE",
"389 540 CURVE SMOOTH",
"315 540 OFFCURVE",
"259 508 OFFCURVE",
"228 446 CURVE",
"223 446 LINE",
"223 750 LINE"
);
},
{
closed = 1;
nodes = (
"266 106 OFFCURVE",
"223 161 OFFCURVE",
"223 263 CURVE SMOOTH",
"223 365 OFFCURVE",
"266 420 OFFCURVE",
"347 420 CURVE SMOOTH",
"432 420 OFFCURVE",
"473 370 OFFCURVE",
"473 263 CURVE SMOOTH",
"473 156 OFFCURVE",
"432 106 OFFCURVE",
"347 106 CURVE SMOOTH"
);
}
);
};
layerId = "84435905-EDCB-4949-A8A3-0E53308A2F50";
paths = (
{
closed = 1;
nodes = (
"64 750 LINE",
"64 0 LINE",
"245 0 LINE",
"262 81 LINE",
"275 81 LINE",
"296 33 OFFCURVE",
"350 -14 OFFCURVE",
"436 -14 CURVE SMOOTH",
"573 -14 OFFCURVE",
"653 93 OFFCURVE",
"653 267 CURVE SMOOTH",
"653 442 OFFCURVE",
"573 550 OFFCURVE",
"436 550 CURVE SMOOTH",
"350 550 OFFCURVE",
"296 503 OFFCURVE",
"275 455 CURVE",
"269 455 LINE",
"269 750 LINE"
);
},
{
closed = 1;
nodes = (
"299 151 OFFCURVE",
"269 190 OFFCURVE",
"269 267 CURVE SMOOTH",
"269 345 OFFCURVE",
"299 384 OFFCURVE",
"356 384 CURVE SMOOTH",
"417 384 OFFCURVE",
"443 346 OFFCURVE",
"443 267 CURVE SMOOTH",
"443 189 OFFCURVE",
"417 151 OFFCURVE",
"356 151 CURVE SMOOTH"
);
}
);
userData = {
RMXScaler = {
height = 100.10000;
};
};
width = 689;
},
{
associatedMasterId = "C76CAC8E-7AD6-478C-8F7E-02FEF6F1EA84";
background = {
paths = (
{
closed = 1;
nodes = (
"107 750 LINE",
"107 0 LINE",
"148 0 LINE",
"162 101 LINE",
"166 101 LINE",
"192 48 OFFCURVE",
"243 -15 OFFCURVE",
"345 -15 CURVE SMOOTH",
"492 -15 OFFCURVE",
"574 86 OFFCURVE",
"574 257 CURVE SMOOTH",
"574 426 OFFCURVE",
"487 530 OFFCURVE",
"345 530 CURVE SMOOTH",
"262 530 OFFCURVE",
"204 496 OFFCURVE",
"167 425 CURVE",
"162 425 LINE",
"162 750 LINE"
);
},
{
closed = 1;
nodes = (
"223 32 OFFCURVE",
"157 149 OFFCURVE",
"157 257 CURVE SMOOTH",
"157 381 OFFCURVE",
"223 483 OFFCURVE",
"343 483 CURVE SMOOTH",
"456 483 OFFCURVE",
"518 402 OFFCURVE",
"518 257 CURVE SMOOTH",
"518 112 OFFCURVE",
"462 32 OFFCURVE",
"343 32 CURVE SMOOTH"
);
}
);
};
layerId = "0A1AFE58-107D-4787-BDA0-D82FB635C3A6";
paths = (
{
closed = 1;
nodes = (
"107 750 LINE",
"107 0 LINE",
"148 0 LINE",
"162 101 LINE",
"166 101 LINE",
"192 48 OFFCURVE",
"243 -15 OFFCURVE",
"345 -15 CURVE SMOOTH",
"492 -15 OFFCURVE",
"574 86 OFFCURVE",
"574 257 CURVE SMOOTH",
"574 426 OFFCURVE",
"487 530 OFFCURVE",
"345 530 CURVE SMOOTH",
"262 530 OFFCURVE",
"204 496 OFFCURVE",
"167 425 CURVE",
"162 425 LINE",
"162 750 LINE"
);
},
{
closed = 1;
nodes = (
"223 32 OFFCURVE",
"157 149 OFFCURVE",
"157 257 CURVE SMOOTH",
"157 381 OFFCURVE",
"223 483 OFFCURVE",
"343 483 CURVE SMOOTH",
"456 483 OFFCURVE",
"518 402 OFFCURVE",
"518 257 CURVE SMOOTH",
"518 112 OFFCURVE",
"462 32 OFFCURVE",
"343 32 CURVE SMOOTH"
);
}
);
width = 641;
},
{
layerId = "CC363ACD-D5A5-4E19-A940-9AF36D109D9E";
paths = (
{
closed = 1;
nodes = (
"194 750 LINE",
"62 0 LINE",
"104 0 LINE",
"135 103 LINE",
"139 103 LINE",
"157 50 OFFCURVE",
"204 -15 OFFCURVE",
"301 -15 CURVE SMOOTH",
"454 -15 OFFCURVE",
"561 137 OFFCURVE",
"561 320 CURVE SMOOTH",
"561 445 OFFCURVE",
"496 530 OFFCURVE",
"381 530 CURVE SMOOTH",
"304 530 OFFCURVE",
"244 498 OFFCURVE",
"197 427 CURVE",
"192 427 LINE",
"249 750 LINE"
);
},
{
closed = 1;
nodes = (
"206 32 OFFCURVE",
"154 123 OFFCURVE",
"154 212 CURVE SMOOTH",
"154 346 OFFCURVE",
"243 483 OFFCURVE",
"377 483 CURVE SMOOTH",
"462 483 OFFCURVE",
"506 416 OFFCURVE",
"506 320 CURVE SMOOTH",
"506 170 OFFCURVE",
"426 32 OFFCURVE",
"300 32 CURVE SMOOTH"
);
}
);
width = 622;
},
{
layerId = "C1DA716A-5F29-4CD0-A38F-CCADF5849A80";
paths = (
{
closed = 1;
nodes = (
"149 750 LINE",
"17 0 LINE",
"199 0 LINE",
"230 81 LINE",
"242 81 LINE",
"268 28 OFFCURVE",
"308 -14 OFFCURVE",
"393 -14 CURVE SMOOTH",
"560 -14 OFFCURVE",
"646 160 OFFCURVE",
"646 341 CURVE SMOOTH",
"646 461 OFFCURVE",
"586 550 OFFCURVE",
"471 550 CURVE SMOOTH",
"391 550 OFFCURVE",
"342 514 OFFCURVE",
"308 455 CURVE",
"301 455 LINE",
"354 750 LINE"
);
},
{
closed = 1;
nodes = (
"285 151 OFFCURVE",
"262 183 OFFCURVE",
"262 223 CURVE SMOOTH",
"262 293 OFFCURVE",
"280 384 OFFCURVE",
"373 384 CURVE SMOOTH",
"417 384 OFFCURVE",
"440 352 OFFCURVE",
"440 312 CURVE SMOOTH",
"440 242 OFFCURVE",
"420 151 OFFCURVE",
"329 151 CURVE SMOOTH"
);
}
);
width = 678;
}
);
leftMetricsKey = h;
rightMetricsKey = o;
unicode = 0062;
userData = {
RMXScaler = {
source = b;
};
};
},
{
color = 4;
glyphname = c;
lastChange = "2017-09-20 14:32:09 +0000";
layers = (
{
anchors = (
{
name = bottom;
position = "{263, 0}";
},
{
name = top;
position = "{355, 525}";
}
);
background = {
paths = (
{
closed = 1;
nodes = (
"432 -15 OFFCURVE",
"503 49 OFFCURVE",
"536 147 CURVE",
"395 147 LINE",
"378 111 OFFCURVE",
"349 95 OFFCURVE",
"295 95 CURVE SMOOTH",
"222 95 OFFCURVE",
"191 130 OFFCURVE",
"191 205 CURVE SMOOTH",
"191 222 OFFCURVE",
"192 241 OFFCURVE",
"199 286 CURVE SMOOTH",
"214 384 OFFCURVE",
"260 429 OFFCURVE",
"338 429 CURVE SMOOTH",
"400 429 OFFCURVE",
"430 400 OFFCURVE",
"430 339 CURVE SMOOTH",
"430 328 OFFCURVE",
"427 303 OFFCURVE",
"423 287 CURVE",
"444 311 LINE",
"170 311 LINE",
"155 221 LINE",
"551 221 LINE",
"557 254 LINE SMOOTH",
"562 284 OFFCURVE",
"566 309 OFFCURVE",
"566 334 CURVE SMOOTH",
"566 468 OFFCURVE",
"486 540 OFFCURVE",
"340 540 CURVE SMOOTH",
"147 540 OFFCURVE",
"51 394 OFFCURVE",
"51 210 CURVE SMOOTH",
"51 65 OFFCURVE",
"130 -15 OFFCURVE",
"286 -15 CURVE SMOOTH"
);
}
);
};
layerId = "C76CAC8E-7AD6-478C-8F7E-02FEF6F1EA84";
paths = (
{
closed = 1;
nodes = (
"431 -15 OFFCURVE",
"510 53 OFFCURVE",
"541 190 CURVE",
"399 190 LINE",
"383 124 OFFCURVE",
"347 100 OFFCURVE",
"292 100 CURVE SMOOTH",
"220 100 OFFCURVE",
"195 141 OFFCURVE",
"195 209 CURVE SMOOTH",
"195 368 OFFCURVE",
"258 425 OFFCURVE",
"334 425 CURVE SMOOTH",
"395 425 OFFCURVE",
"423 397 OFFCURVE",
"421 335 CURVE",
"563 335 LINE",
"567 458 OFFCURVE",
"500 540 OFFCURVE",
"333 540 CURVE SMOOTH",
"159 540 OFFCURVE",
"49 406 OFFCURVE",
"49 215 CURVE SMOOTH",
"49 66 OFFCURVE",
"129 -15 OFFCURVE",
"278 -15 CURVE SMOOTH"
);
}
);
width = 604;
},
{
anchors = (
{
name = bottom;
position = "{247, 0}";
},
{
name = top;
position = "{338, 515}";
}
);
layerId = "CC363ACD-D5A5-4E19-A940-9AF36D109D9E";
paths = (
{
closed = 1;
nodes = (
"362 -15 OFFCURVE",
"443 45 OFFCURVE",
"484 162 CURVE",
"429 162 LINE",
"397 81 OFFCURVE",
"343 32 OFFCURVE",
"248 32 CURVE SMOOTH",
"164 32 OFFCURVE",
"116 97 OFFCURVE",
"116 197 CURVE SMOOTH",
"116 338 OFFCURVE",
"191 483 OFFCURVE",
"333 483 CURVE SMOOTH",
"416 483 OFFCURVE",
"460 436 OFFCURVE",
"462 352 CURVE",
"516 352 LINE",
"516 461 OFFCURVE",
"451 530 OFFCURVE",
"335 530 CURVE SMOOTH",
"166 530 OFFCURVE",
"61 366 OFFCURVE",
"61 197 CURVE SMOOTH",
"61 64 OFFCURVE",
"136 -15 OFFCURVE",
"246 -15 CURVE SMOOTH"
);
}
);
width = 566;
},
{
anchors = (
{
name = bottom;
position = "{265, 0}";
},
{
name = top;
position = "{360, 535}";
}
);
background = {
paths = (
{
closed = 1;
nodes = (
"446 -15 OFFCURVE",
"543 57 OFFCURVE",
"569 212 CURVE",
"380 212 LINE",
"366 169 OFFCURVE",
"343 148 OFFCURVE",
"300 148 CURVE SMOOTH",
"259 148 OFFCURVE",
"239 175 OFFCURVE",
"239 220 CURVE SMOOTH",
"239 295 OFFCURVE",
"264 387 OFFCURVE",
"344 387 CURVE SMOOTH",
"383 387 OFFCURVE",
"403 365 OFFCURVE",
"401 322 CURVE",
"588 322 LINE",
"589 332 OFFCURVE",
"590 344 OFFCURVE",
"590 357 CURVE SMOOTH",
"590 465 OFFCURVE",
"514 550 OFFCURVE",
"351 550 CURVE SMOOTH",
"146 550 OFFCURVE",
"34 410 OFFCURVE",
"34 215 CURVE SMOOTH",
"34 73 OFFCURVE",
"124 -15 OFFCURVE",
"274 -15 CURVE SMOOTH"
);
}
);
};
layerId = "C1DA716A-5F29-4CD0-A38F-CCADF5849A80";
paths = (
{
closed = 1;
nodes = (
"446 -15 OFFCURVE",
"543 57 OFFCURVE",
"569 212 CURVE",
"380 212 LINE",
"366 169 OFFCURVE",
"343 148 OFFCURVE",
"300 148 CURVE SMOOTH",
"259 148 OFFCURVE",
"239 175 OFFCURVE",
"239 220 CURVE SMOOTH",
"239 295 OFFCURVE",
"264 387 OFFCURVE",
"344 387 CURVE SMOOTH",
"383 387 OFFCURVE",
"403 365 OFFCURVE",
"401 322 CURVE",
"589 322 LINE",
"599 468 OFFCURVE",
"512 550 OFFCURVE",
"351 550 CURVE SMOOTH",
"146 550 OFFCURVE",
"34 410 OFFCURVE",
"34 215 CURVE SMOOTH",
"34 73 OFFCURVE",
"124 -15 OFFCURVE",
"274 -15 CURVE SMOOTH"
);
}
);
width = 615;
}
);
leftMetricsKey = o;
rightMetricsKey = o;
unicode = 0063;
userData = {
RMXScaler = {
source = c;
};
};
},
{
color = 4;
glyphname = d;
lastChange = "2017-09-20 14:31:56 +0000";
layers = (
{
anchors = (
{
name = topright;
position = "{674, 525}";
}
);
background = {
paths = (
{
closed = 1;
nodes = (
"474 -15 OFFCURVE",
"583 108 OFFCURVE",
"583 323 CURVE SMOOTH",
"583 459 OFFCURVE",
"496 540 OFFCURVE",
"348 540 CURVE SMOOTH",
"157 540 OFFCURVE",
"48 417 OFFCURVE",
"48 202 CURVE SMOOTH",
"48 66 OFFCURVE",
"135 -15 OFFCURVE",
"283 -15 CURVE SMOOTH"
);
},
{
closed = 1;
nodes = (
"223 100 OFFCURVE",
"190 133 OFFCURVE",
"190 205 CURVE SMOOTH",
"190 325 OFFCURVE",
"229 425 OFFCURVE",
"337 425 CURVE SMOOTH",
"408 425 OFFCURVE",
"441 392 OFFCURVE",
"441 320 CURVE SMOOTH",
"441 200 OFFCURVE",
"402 100 OFFCURVE",
"294 100 CURVE SMOOTH"
);
}
);
};
guideLines = (
{
position = "{947, 418}";
}
);
layerId = "C76CAC8E-7AD6-478C-8F7E-02FEF6F1EA84";
paths = (
{
closed = 1;
nodes = (
"467 441 LINE",
"462 441 LINE",
"444 507 OFFCURVE",
"393 540 OFFCURVE",
"313 540 CURVE SMOOTH",
"152 540 OFFCURVE",
"48 393 OFFCURVE",
"48 210 CURVE SMOOTH",
"48 64 OFFCURVE",
"120 -14 OFFCURVE",
"237 -14 CURVE SMOOTH",
"305 -14 OFFCURVE",
"363 22 OFFCURVE",
"403 85 CURVE",
"410 85 LINE",
"410 0 LINE",
"531 0 LINE",
"663 750 LINE",
"523 750 LINE"
);
},
{
closed = 1;
nodes = (
"223 106 OFFCURVE",
"190 140 OFFCURVE",
"190 218 CURVE SMOOTH",
"190 327 OFFCURVE",
"235 420 OFFCURVE",
"337 420 CURVE SMOOTH",
"408 420 OFFCURVE",
"440 386 OFFCURVE",
"440 308 CURVE SMOOTH",
"440 199 OFFCURVE",
"396 106 OFFCURVE",
"293 106 CURVE SMOOTH"
);
}
);
width = 657;
},
{
anchors = (
{
name = topright;
position = "{650, 515}";
}
);
layerId = "CC363ACD-D5A5-4E19-A940-9AF36D109D9E";
paths = (
{
closed = 1;
nodes = (
"489 425 LINE",
"484 425 LINE",
"462 486 OFFCURVE",
"403 530 OFFCURVE",
"324 530 CURVE SMOOTH",
"173 530 OFFCURVE",
"61 378 OFFCURVE",
"61 195 CURVE SMOOTH",
"61 71 OFFCURVE",
"128 -15 OFFCURVE",
"242 -15 CURVE SMOOTH",
"336 -15 OFFCURVE",
"396 49 OFFCURVE",
"429 101 CURVE",
"433 101 LINE",
"428 0 LINE",
"469 0 LINE",
"601 750 LINE",
"546 750 LINE"
);
},
{
closed = 1;
nodes = (
"162 32 OFFCURVE",
"116 101 OFFCURVE",
"116 195 CURVE SMOOTH",
"116 355 OFFCURVE",
"202 483 OFFCURVE",
"327 483 CURVE SMOOTH",
"420 483 OFFCURVE",
"471 414 OFFCURVE",
"471 320 CURVE SMOOTH",
"471 184 OFFCURVE",
"376 32 OFFCURVE",
"246 32 CURVE SMOOTH"
);
}
);
width = 621;
},
{
anchors = (
{
name = topright;
position = "{755, 535}";
}
);
layerId = "C1DA716A-5F29-4CD0-A38F-CCADF5849A80";
paths = (
{
closed = 1;
nodes = (
"443 455 LINE",
"437 455 LINE",
"415 503 OFFCURVE",
"376 550 OFFCURVE",
"286 550 CURVE SMOOTH",
"118 550 OFFCURVE",
"32 376 OFFCURVE",
"32 195 CURVE SMOOTH",
"32 75 OFFCURVE",
"92 -14 OFFCURVE",
"208 -14 CURVE SMOOTH",
"287 -14 OFFCURVE",
"346 33 OFFCURVE",
"374 81 CURVE",
"386 81 LINE",
"388 0 LINE",
"568 0 LINE",
"700 751 LINE",
"495 751 LINE"
);
},
{
closed = 1;
nodes = (
"261 151 OFFCURVE",
"238 183 OFFCURVE",
"238 223 CURVE SMOOTH",
"238 293 OFFCURVE",
"256 384 OFFCURVE",
"349 384 CURVE SMOOTH",
"393 384 OFFCURVE",
"416 352 OFFCURVE",
"416 312 CURVE SMOOTH",
"416 242 OFFCURVE",
"396 151 OFFCURVE",
"305 151 CURVE SMOOTH"
);
}
);
width = 679;
}
);
leftMetricsKey = o;
unicode = 0064;
userData = {
RMXScaler = {
source = d;
};
};
},
{
color = 4;
glyphname = e;
lastChange = "2017-09-20 14:32:29 +0000";
layers = (
{
anchors = (
{
name = ogonek;
position = "{404, 0}";
},
{
name = top;
position = "{309, 525}";
}
);
background = {
paths = (
{
closed = 1;
nodes = (
"473 -15 OFFCURVE",
"582 108 OFFCURVE",
"582 323 CURVE SMOOTH",
"582 459 OFFCURVE",
"495 540 OFFCURVE",
"347 540 CURVE SMOOTH",
"156 540 OFFCURVE",
"47 417 OFFCURVE",
"47 202 CURVE SMOOTH",
"47 66 OFFCURVE",
"134 -15 OFFCURVE",
"282 -15 CURVE SMOOTH"
);
},
{
closed = 1;
nodes = (
"222 100 OFFCURVE",
"189 133 OFFCURVE",
"189 205 CURVE SMOOTH",
"189 325 OFFCURVE",
"228 425 OFFCURVE",
"336 425 CURVE SMOOTH",
"407 425 OFFCURVE",
"440 392 OFFCURVE",
"440 320 CURVE SMOOTH",
"440 200 OFFCURVE",
"401 100 OFFCURVE",
"293 100 CURVE SMOOTH"
);
}
);
};
guideLines = (
{
angle = 91.7357;
position = "{531, 225}";
}
);
layerId = "C76CAC8E-7AD6-478C-8F7E-02FEF6F1EA84";
paths = (
{
closed = 1;
nodes = (
"429 -15 OFFCURVE",
"500 49 OFFCURVE",
"533 147 CURVE",
"392 147 LINE",
"375 111 OFFCURVE",
"346 95 OFFCURVE",
"292 95 CURVE SMOOTH",
"219 95 OFFCURVE",
"188 130 OFFCURVE",
"188 205 CURVE SMOOTH",
"188 325 OFFCURVE",
"222 429 OFFCURVE",
"335 429 CURVE SMOOTH",
"397 429 OFFCURVE",
"427 400 OFFCURVE",
"427 339 CURVE SMOOTH",
"427 328 OFFCURVE",
"424 303 OFFCURVE",
"420 287 CURVE",
"441 311 LINE",
"167 311 LINE",
"152 221 LINE",
"548 221 LINE",
"560 289 OFFCURVE",
"563 308 OFFCURVE",
"563 334 CURVE SMOOTH",
"563 468 OFFCURVE",
"483 540 OFFCURVE",
"337 540 CURVE SMOOTH",
"144 540 OFFCURVE",
"48 394 OFFCURVE",
"48 210 CURVE SMOOTH",
"48 65 OFFCURVE",
"127 -15 OFFCURVE",
"283 -15 CURVE SMOOTH"
);
}
);
width = 605;
},
{
anchors = (
{
name = ogonek;
position = "{356, 0}";
},
{
name = top;
position = "{357, 525}";
}
);
associatedMasterId = "C76CAC8E-7AD6-478C-8F7E-02FEF6F1EA84";
background = {
anchors = (
{
name = ogonek;
position = "{409, 0}";
},
{
name = top;
position = "{314, 525}";
}
);
paths = (
{
closed = 1;
nodes = (
"436 -15 OFFCURVE",
"508 49 OFFCURVE",
"541 147 CURVE",
"400 147 LINE",
"383 111 OFFCURVE",
"353 95 OFFCURVE",
"297 95 CURVE SMOOTH",
"221 95 OFFCURVE",
"189 130 OFFCURVE",
"189 205 CURVE SMOOTH",
"189 222 OFFCURVE",
"191 241 OFFCURVE",
"197 286 CURVE SMOOTH",
"211 383 OFFCURVE",
"255 429 OFFCURVE",
"335 429 CURVE SMOOTH",
"399 429 OFFCURVE",
"430 400 OFFCURVE",
"430 339 CURVE SMOOTH",
"430 328 OFFCURVE",
"427 303 OFFCURVE",
"423 287 CURVE",
"444 311 LINE",
"168 311 LINE",
"153 221 LINE",
"551 221 LINE",
"557 254 LINE SMOOTH",
"562 284 OFFCURVE",
"566 309 OFFCURVE",
"566 334 CURVE SMOOTH",
"566 468 OFFCURVE",
"485 540 OFFCURVE",
"336 540 CURVE SMOOTH",
"137 540 OFFCURVE",
"49 395 OFFCURVE",
"49 210 CURVE SMOOTH",
"49 65 OFFCURVE",
"129 -15 OFFCURVE",
"288 -15 CURVE SMOOTH"
);
}
);
};
guideLines = (
{
angle = 91.7357;
position = "{536, 225}";
}
);
layerId = "EAB54FD9-3D60-4BB1-8D7E-6213FCC49E20";
name = "Aug 30 17, 12:25";
paths = (
{
closed = 1;
nodes = (
"418 -15 OFFCURVE",
"492 49 OFFCURVE",
"528 147 CURVE",
"388 147 LINE",
"370 111 OFFCURVE",
"343 95 OFFCURVE",
"284 95 CURVE SMOOTH",
"219 95 OFFCURVE",
"189 129 OFFCURVE",
"189 207 CURVE SMOOTH",
"189 376 OFFCURVE",
"251 429 OFFCURVE",
"338 429 CURVE SMOOTH",
"415 429 OFFCURVE",
"439 391 OFFCURVE",
"422 306 CURVE SMOOTH",
"418 287 LINE",
"440 311 LINE",
"172 311 LINE",
"156 221 LINE",
"545 221 LINE",
"556 284 LINE SMOOTH",
"584 442 OFFCURVE",
"525 540 OFFCURVE",
"359 540 CURVE SMOOTH",
"178 540 OFFCURVE",
"47 416 OFFCURVE",
"47 200 CURVE SMOOTH",
"47 70 OFFCURVE",
"116 -15 OFFCURVE",
"265 -15 CURVE SMOOTH"
);
}
);
width = 602;
},
{
anchors = (
{
name = ogonek;
position = "{326, 0}";
},
{
name = top;
position = "{342, 515}";
}
);
layerId = "CC363ACD-D5A5-4E19-A940-9AF36D109D9E";
paths = (
{
closed = 1;
nodes = (
"362 -15 OFFCURVE",
"436 31 OFFCURVE",
"473 124 CURVE",
"418 124 LINE",
"390 61 OFFCURVE",
"340 32 OFFCURVE",
"263 32 CURVE SMOOTH",
"169 32 OFFCURVE",
"115 97 OFFCURVE",
"115 197 CURVE SMOOTH",
"115 343 OFFCURVE",
"191 483 OFFCURVE",
"328 483 CURVE SMOOTH",
"424 483 OFFCURVE",
"463 420 OFFCURVE",
"463 327 CURVE SMOOTH",
"463 305 OFFCURVE",
"459 281 OFFCURVE",
"453 248 CURVE",
"469 280 LINE",
"105 280 LINE",
"97 235 LINE",
"501 235 LINE",
"508 270 OFFCURVE",
"514 299 OFFCURVE",
"514 327 CURVE SMOOTH",
"514 450 OFFCURVE",
"454 530 OFFCURVE",
"330 530 CURVE SMOOTH",
"166 530 OFFCURVE",
"61 371 OFFCURVE",
"61 197 CURVE SMOOTH",
"61 64 OFFCURVE",
"143 -15 OFFCURVE",
"261 -15 CURVE SMOOTH"
);
}
);
width = 571;
},
{
anchors = (
{
name = ogonek;
position = "{351, 0}";
},
{
name = top;
position = "{366, 535}";
}
);
layerId = "C1DA716A-5F29-4CD0-A38F-CCADF5849A80";
paths = (
{
closed = 1;
nodes = (
"453 -15 OFFCURVE",
"533 46 OFFCURVE",
"574 180 CURVE",
"384 180 LINE",
"371 151 OFFCURVE",
"350 132 OFFCURVE",
"301 132 CURVE SMOOTH",
"255 132 OFFCURVE",
"226 159 OFFCURVE",
"226 213 CURVE SMOOTH",
"226 322 OFFCURVE",
"259 410 OFFCURVE",
"345 410 CURVE SMOOTH",
"388 410 OFFCURVE",
"413 386 OFFCURVE",
"413 346 CURVE SMOOTH",
"413 329 OFFCURVE",
"411 307 OFFCURVE",
"407 286 CURVE",
"451 323 LINE",
"221 323 LINE",
"204 225 LINE",
"583 225 LINE",
"592 257 OFFCURVE",
"596 303 OFFCURVE",
"596 328 CURVE SMOOTH",
"596 459 OFFCURVE",
"511 550 OFFCURVE",
"357 550 CURVE SMOOTH",
"141 550 OFFCURVE",
"34 400 OFFCURVE",
"34 215 CURVE SMOOTH",
"34 73 OFFCURVE",
"130 -15 OFFCURVE",
"283 -15 CURVE SMOOTH"
);
}
);
width = 628;
}
);
leftMetricsKey = o;
rightMetricsKey = o;
unicode = 0065;
userData = {
RMXScaler = {
source = e;
};
};
},
{
color = 4;
glyphname = f;
lastChange = "2017-09-20 14:09:04 +0000";
layers = (
{
background = {
paths = (
{
closed = 1;
nodes = (
"410 410 LINE",
"430 525 LINE",
"84 525 LINE",
"64 410 LINE"
);
},
{
closed = 1;
nodes = (
"459 761 OFFCURVE",
"424 765 OFFCURVE",
"390 765 CURVE SMOOTH",
"268 765 OFFCURVE",
"199 699 OFFCURVE",
"179 581 CURVE SMOOTH",
"77 0 LINE",
"216 0 LINE",
"317 572 LINE SMOOTH",
"327 631 OFFCURVE",
"352 648 OFFCURVE",
"400 648 CURVE SMOOTH",
"423 648 OFFCURVE",
"447 645 OFFCURVE",
"457 643 CURVE",
"477 757 LINE"
);
}
);
};
layerId = "C76CAC8E-7AD6-478C-8F7E-02FEF6F1EA84";
paths = (
{
closed = 1;
nodes = (
"410 410 LINE",
"430 525 LINE",
"84 525 LINE",
"64 410 LINE"
);
},
{
closed = 1;
nodes = (
"457 758 OFFCURVE",
"421 765 OFFCURVE",
"384 765 CURVE SMOOTH",
"268 765 OFFCURVE",
"201 702 OFFCURVE",
"182 596 CURVE SMOOTH",
"77 0 LINE",
"216 0 LINE",
"317 572 LINE SMOOTH",
"327 631 OFFCURVE",
"352 648 OFFCURVE",
"400 648 CURVE SMOOTH",
"423 648 OFFCURVE",
"446 644 OFFCURVE",
"456 641 CURVE",
"475 753 LINE"
);
}
);
width = 403;
},
{
layerId = "CC363ACD-D5A5-4E19-A940-9AF36D109D9E";
paths = (
{
closed = 1;
nodes = (
"367 464 LINE",
"376 515 LINE",
"87 515 LINE",
"78 464 LINE"
);
},
{
closed = 1;
nodes = (
"421 752 OFFCURVE",
"388 760 OFFCURVE",
"362 760 CURVE SMOOTH",
"269 760 OFFCURVE",
"220 715 OFFCURVE",
"200 600 CURVE SMOOTH",
"93 0 LINE",
"148 0 LINE",
"253 593 LINE SMOOTH",
"268 675 OFFCURVE",
"291 711 OFFCURVE",
"367 711 CURVE SMOOTH",
"392 711 OFFCURVE",
"416 705 OFFCURVE",
"428 700 CURVE",
"436 745 LINE"
);
}
);
width = 348;
},
{
layerId = "C1DA716A-5F29-4CD0-A38F-CCADF5849A80";
paths = (
{
closed = 1;
nodes = (
"451 381 LINE",
"478 535 LINE",
"77 535 LINE",
"50 381 LINE"
);
},
{
closed = 1;
nodes = (
"507 754 OFFCURVE",
"457 766 OFFCURVE",
"393 766 CURVE SMOOTH",
"253 766 OFFCURVE",
"188 723 OFFCURVE",
"163 579 CURVE SMOOTH",
"61 0 LINE",
"266 0 LINE",
"360 534 LINE SMOOTH",
"368 582 OFFCURVE",
"371 616 OFFCURVE",
"435 616 CURVE SMOOTH",
"457 616 OFFCURVE",
"478 613 OFFCURVE",
"498 608 CURVE",
"523 750 LINE"
);
}
);
width = 444;
}
);
unicode = 0066;
userData = {
RMXScaler = {
source = f;
};
};
},
{
color = 4;
glyphname = g;
lastChange = "2017-09-20 14:32:37 +0000";
layers = (
{
anchors = (
{
name = top;
position = "{383, 525}";
}
);
background = {
paths = (
{
closed = 1;
nodes = (
"474 434 LINE",
"468 434 LINE",
"460 497 OFFCURVE",
"410 540 OFFCURVE",
"326 540 CURVE SMOOTH",
"147 540 OFFCURVE",
"52 386 OFFCURVE",
"52 219 CURVE SMOOTH",
"52 103 OFFCURVE",
"108 15 OFFCURVE",
"233 15 CURVE SMOOTH",
"327 15 OFFCURVE",
"381 69 OFFCURVE",
"406 103 CURVE",
"412 103 LINE",
"402 45 LINE SMOOTH",
"385 -55 OFFCURVE",
"351 -99 OFFCURVE",
"271 -99 CURVE SMOOTH",
"200 -99 OFFCURVE",
"172 -81 OFFCURVE",
"171 -35 CURVE",
"29 -35 LINE",
"24 -147 OFFCURVE",
"96 -210 OFFCURVE",
"256 -210 CURVE SMOOTH",
"439 -210 OFFCURVE",
"512 -124 OFFCURVE",
"546 69 CURVE SMOOTH",
"626 525 LINE",
"503 525 LINE"
);
},
{
closed = 1;
nodes = (
"228 127 OFFCURVE",
"198 167 OFFCURVE",
"198 235 CURVE SMOOTH",
"198 335 OFFCURVE",
"241 418 OFFCURVE",
"345 418 CURVE SMOOTH",
"413 418 OFFCURVE",
"446 374 OFFCURVE",
"446 308 CURVE SMOOTH",
"446 203 OFFCURVE",
"394 127 OFFCURVE",
"294 127 CURVE SMOOTH"
);
}
);
};
layerId = "C76CAC8E-7AD6-478C-8F7E-02FEF6F1EA84";
paths = (
{
closed = 1;
nodes = (
"473 430 LINE",
"466 430 LINE",
"448 504 OFFCURVE",
"393 540 OFFCURVE",
"316 540 CURVE SMOOTH",
"155 540 OFFCURVE",
"51 407 OFFCURVE",
"51 234 CURVE SMOOTH",
"51 91 OFFCURVE",
"123 15 OFFCURVE",
"240 15 CURVE SMOOTH",
"308 15 OFFCURVE",
"367 49 OFFCURVE",
"407 106 CURVE",
"413 106 LINE",
"402 45 LINE SMOOTH",
"384 -55 OFFCURVE",
"351 -99 OFFCURVE",
"271 -99 CURVE SMOOTH",
"200 -99 OFFCURVE",
"172 -81 OFFCURVE",
"171 -35 CURVE",
"29 -35 LINE",
"24 -147 OFFCURVE",
"96 -210 OFFCURVE",
"256 -210 CURVE SMOOTH",
"439 -210 OFFCURVE",
"512 -124 OFFCURVE",
"546 69 CURVE SMOOTH",
"626 525 LINE",
"503 525 LINE"
);
},
{
closed = 1;
nodes = (
"227 131 OFFCURVE",
"193 167 OFFCURVE",
"193 242 CURVE SMOOTH",
"193 341 OFFCURVE",
"238 420 OFFCURVE",
"340 420 CURVE SMOOTH",
"410 420 OFFCURVE",
"443 389 OFFCURVE",
"443 317 CURVE SMOOTH",
"443 214 OFFCURVE",
"399 131 OFFCURVE",
"296 131 CURVE SMOOTH"
);
}
);
width = 646;
},
{
anchors = (
{
name = top;
position = "{380, 525}";
}
);
associatedMasterId = "C76CAC8E-7AD6-478C-8F7E-02FEF6F1EA84";
background = {
paths = (
{
closed = 1;
nodes = (
"224 131 OFFCURVE",
"190 167 OFFCURVE",
"190 242 CURVE SMOOTH",
"190 341 OFFCURVE",
"235 420 OFFCURVE",
"337 420 CURVE SMOOTH",
"407 420 OFFCURVE",
"440 389 OFFCURVE",
"440 317 CURVE SMOOTH",
"440 214 OFFCURVE",
"396 131 OFFCURVE",
"293 131 CURVE SMOOTH"
);
},
{
closed = 0;
nodes = (
"463 437 LINE",
"445 506 OFFCURVE",
"390 540 OFFCURVE",
"313 540 CURVE SMOOTH",
"152 540 OFFCURVE",
"48 407 OFFCURVE",
"48 234 CURVE SMOOTH",
"48 91 OFFCURVE",
"120 15 OFFCURVE",
"237 15 CURVE SMOOTH",
"305 15 OFFCURVE",
"364 50 OFFCURVE",
"404 110 CURVE"
);
}
);
};
layerId = "5EC14379-3221-4247-9F84-B6206966E7EE";
name = "Aug 30 17, 12:39";
paths = (
{
closed = 1;
nodes = (
"471 434 LINE",
"465 434 LINE",
"457 497 OFFCURVE",
"407 540 OFFCURVE",
"323 540 CURVE SMOOTH",
"144 540 OFFCURVE",
"49 386 OFFCURVE",
"49 219 CURVE SMOOTH",
"49 103 OFFCURVE",
"105 15 OFFCURVE",
"230 15 CURVE SMOOTH",
"324 15 OFFCURVE",
"378 69 OFFCURVE",
"403 103 CURVE",
"409 103 LINE",
"399 45 LINE SMOOTH",
"382 -55 OFFCURVE",
"348 -99 OFFCURVE",
"268 -99 CURVE SMOOTH",
"197 -99 OFFCURVE",
"169 -81 OFFCURVE",
"168 -35 CURVE",
"26 -35 LINE",
"21 -147 OFFCURVE",
"93 -210 OFFCURVE",
"253 -210 CURVE SMOOTH",
"436 -210 OFFCURVE",
"509 -124 OFFCURVE",
"543 69 CURVE SMOOTH",
"623 525 LINE",
"500 525 LINE"
);
},
{
closed = 1;
nodes = (
"225 127 OFFCURVE",
"195 167 OFFCURVE",
"195 235 CURVE SMOOTH",
"195 335 OFFCURVE",
"238 418 OFFCURVE",
"342 418 CURVE SMOOTH",
"410 418 OFFCURVE",
"443 374 OFFCURVE",
"443 308 CURVE SMOOTH",
"443 203 OFFCURVE",
"391 127 OFFCURVE",
"291 127 CURVE SMOOTH"
);
}
);
width = 643;
},
{
anchors = (
{
name = top;
position = "{357, 515}";
}
);
layerId = "CC363ACD-D5A5-4E19-A940-9AF36D109D9E";
paths = (
{
closed = 1;
nodes = (
"488 412 LINE",
"484 412 LINE",
"466 465 OFFCURVE",
"419 530 OFFCURVE",
"322 530 CURVE SMOOTH",
"169 530 OFFCURVE",
"62 383 OFFCURVE",
"62 200 CURVE SMOOTH",
"62 80 OFFCURVE",
"127 -5 OFFCURVE",
"245 -5 CURVE SMOOTH",
"319 -5 OFFCURVE",
"379 27 OFFCURVE",
"426 98 CURVE",
"431 98 LINE",
"423 46 LINE SMOOTH",
"401 -100 OFFCURVE",
"339 -162 OFFCURVE",
"235 -162 CURVE SMOOTH",
"137 -162 OFFCURVE",
"99 -123 OFFCURVE",
"91 -60 CURVE",
"37 -60 LINE",
"44 -155 OFFCURVE",
"106 -210 OFFCURVE",
"233 -210 CURVE SMOOTH",
"367 -210 OFFCURVE",
"446 -137 OFFCURVE",
"477 40 CURVE SMOOTH",
"561 515 LINE",
"519 515 LINE"
);
},
{
closed = 1;
nodes = (
"161 42 OFFCURVE",
"117 109 OFFCURVE",
"117 200 CURVE SMOOTH",
"117 350 OFFCURVE",
"197 483 OFFCURVE",
"323 483 CURVE SMOOTH",
"417 483 OFFCURVE",
"469 392 OFFCURVE",
"469 308 CURVE SMOOTH",
"469 179 OFFCURVE",
"380 42 OFFCURVE",
"247 42 CURVE SMOOTH"
);
}
);
width = 605;
},
{
anchors = (
{
name = top;
position = "{400, 535}";
}
);
background = {
paths = (
{
closed = 1;
nodes = (
"451 448 LINE",
"440 448 LINE",
"423 503 OFFCURVE",
"382 550 OFFCURVE",
"297 550 CURVE SMOOTH",
"133 550 OFFCURVE",
"37 399 OFFCURVE",
"37 237 CURVE SMOOTH",
"37 117 OFFCURVE",
"100 32 OFFCURVE",
"217 32 CURVE SMOOTH",
"288 32 OFFCURVE",
"344 67 OFFCURVE",
"381 113 CURVE",
"387 113 LINE",
"375 51 LINE SMOOTH",
"361 -26 OFFCURVE",
"341 -60 OFFCURVE",
"280 -60 CURVE SMOOTH",
"244 -60 OFFCURVE",
"222 -46 OFFCURVE",
"220 -9 CURVE",
"16 -9 LINE",
"15 -20 OFFCURVE",
"15 -31 OFFCURVE",
"15 -42 CURVE SMOOTH",
"15 -156 OFFCURVE",
"105 -210 OFFCURVE",
"271 -210 CURVE SMOOTH",
"480 -210 OFFCURVE",
"550 -116 OFFCURVE",
"583 71 CURVE SMOOTH",
"665 535 LINE",
"483 535 LINE"
);
},
{
closed = 1;
nodes = (
"263 176 OFFCURVE",
"243 206 OFFCURVE",
"243 243 CURVE SMOOTH",
"243 323 OFFCURVE",
"285 389 OFFCURVE",
"356 389 CURVE SMOOTH",
"401 389 OFFCURVE",
"421 359 OFFCURVE",
"421 322 CURVE SMOOTH",
"421 252 OFFCURVE",
"381 176 OFFCURVE",
"308 176 CURVE SMOOTH"
);
}
);
};
layerId = "C1DA716A-5F29-4CD0-A38F-CCADF5849A80";
paths = (
{
closed = 1;
nodes = (
"451 448 LINE",
"440 448 LINE",
"423 503 OFFCURVE",
"382 550 OFFCURVE",
"297 550 CURVE SMOOTH",
"133 550 OFFCURVE",
"37 399 OFFCURVE",
"37 237 CURVE SMOOTH",
"37 117 OFFCURVE",
"100 32 OFFCURVE",
"217 32 CURVE SMOOTH",
"288 32 OFFCURVE",
"344 67 OFFCURVE",
"381 113 CURVE",
"387 113 LINE",
"375 51 LINE SMOOTH",
"361 -26 OFFCURVE",
"341 -60 OFFCURVE",
"280 -60 CURVE SMOOTH",
"244 -60 OFFCURVE",
"222 -46 OFFCURVE",
"220 -9 CURVE",
"16 -9 LINE",
"13 -147 OFFCURVE",
"101 -210 OFFCURVE",
"271 -210 CURVE SMOOTH",
"480 -210 OFFCURVE",
"550 -116 OFFCURVE",
"583 71 CURVE SMOOTH",
"665 535 LINE",
"483 535 LINE"
);
},
{
closed = 1;
nodes = (
"263 176 OFFCURVE",
"243 206 OFFCURVE",
"243 243 CURVE SMOOTH",
"243 323 OFFCURVE",
"285 389 OFFCURVE",
"356 389 CURVE SMOOTH",
"401 389 OFFCURVE",
"421 359 OFFCURVE",
"421 322 CURVE SMOOTH",
"421 252 OFFCURVE",
"381 176 OFFCURVE",
"308 176 CURVE SMOOTH"
);
}
);
width = 674;
}
);
leftMetricsKey = o;
rightMetricsKey = j;
unicode = 0067;
userData = {
RMXScaler = {
source = g;
};
};
},
{
color = 4;
glyphname = h;
lastChange = "2017-09-20 14:19:59 +0000";
layers = (
{
anchors = (
{
name = top;
position = "{230, 731}";
}
);
background = {
paths = (
{
closed = 1;
nodes = (
"174 0 LINE",
"229 301 LINE SMOOTH",
"242 373 OFFCURVE",
"290 415 OFFCURVE",
"362 415 CURVE SMOOTH",
"412 415 OFFCURVE",
"436 391 OFFCURVE",
"436 341 CURVE SMOOTH",
"436 329 OFFCURVE",
"436 316 OFFCURVE",
"433 302 CURVE SMOOTH",
"378 0 LINE",
"518 0 LINE",
"574 305 LINE SMOOTH",
"580 340 OFFCURVE",
"586 380 OFFCURVE",
"586 398 CURVE SMOOTH",
"586 492 OFFCURVE",
"533 540 OFFCURVE",
"437 540 CURVE SMOOTH",
"351 540 OFFCURVE",
"283 494 OFFCURVE",
"251 428 CURVE",
"269 441 LINE",
"238 441 LINE",
"250 431 LINE",
"307 750 LINE",
"167 750 LINE",
"34 0 LINE"
);
}
);
};
layerId = "C76CAC8E-7AD6-478C-8F7E-02FEF6F1EA84";
paths = (
{
closed = 1;
nodes = (
"174 0 LINE",
"227 300 LINE SMOOTH",
"240 373 OFFCURVE",
"289 415 OFFCURVE",
"360 415 CURVE SMOOTH",
"411 415 OFFCURVE",
"436 391 OFFCURVE",
"436 345 CURVE SMOOTH",
"436 334 OFFCURVE",
"434 319 OFFCURVE",
"430 295 CURVE SMOOTH",
"378 0 LINE",
"518 0 LINE",
"571 301 LINE SMOOTH",
"577 335 OFFCURVE",
"583 372 OFFCURVE",
"583 401 CURVE SMOOTH",
"583 491 OFFCURVE",
"532 540 OFFCURVE",
"437 540 CURVE SMOOTH",
"351 540 OFFCURVE",
"283 494 OFFCURVE",
"251 428 CURVE",
"269 441 LINE",
"238 441 LINE",
"250 431 LINE",
"306 750 LINE",
"166 750 LINE",
"34 0 LINE"
);
}
);
width = 639;
},
{
anchors = (
{
name = top;
position = "{218, 731}";
}
);
layerId = "CC363ACD-D5A5-4E19-A940-9AF36D109D9E";
paths = (
{
closed = 1;
nodes = (
"117 0 LINE",
"166 276 LINE SMOOTH",
"186 389 OFFCURVE",
"279 478 OFFCURVE",
"374 478 CURVE SMOOTH",
"448 478 OFFCURVE",
"472 444 OFFCURVE",
"472 383 CURVE SMOOTH",
"472 366 OFFCURVE",
"469 341 OFFCURVE",
"465 318 CURVE SMOOTH",
"409 0 LINE",
"464 0 LINE",
"520 315 LINE SMOOTH",
"525 343 OFFCURVE",
"528 367 OFFCURVE",
"528 392 CURVE SMOOTH",
"528 486 OFFCURVE",
"473 530 OFFCURVE",
"384 530 CURVE SMOOTH",
"290 530 OFFCURVE",
"221 472 OFFCURVE",
"176 397 CURVE",
"214 420 LINE",
"177 420 LINE",
"188 400 LINE",
"249 750 LINE",
"194 750 LINE",
"62 0 LINE"
);
}
);
width = 607;
},
{
anchors = (
{
name = top;
position = "{247, 741}";
}
);
layerId = "C1DA716A-5F29-4CD0-A38F-CCADF5849A80";
paths = (
{
closed = 1;
nodes = (
"222 0 LINE",
"270 272 LINE SMOOTH",
"282 338 OFFCURVE",
"317 368 OFFCURVE",
"369 368 CURVE SMOOTH",
"400 368 OFFCURVE",
"415 351 OFFCURVE",
"415 323 CURVE SMOOTH",
"415 313 OFFCURVE",
"413 295 OFFCURVE",
"411 284 CURVE SMOOTH",
"362 0 LINE",
"567 0 LINE",
"622 319 LINE SMOOTH",
"626 343 OFFCURVE",
"630 378 OFFCURVE",
"630 403 CURVE SMOOTH",
"630 481 OFFCURVE",
"590 550 OFFCURVE",
"485 550 CURVE SMOOTH",
"384 550 OFFCURVE",
"344 499 OFFCURVE",
"294 411 CURVE",
"315 434 LINE",
"282 434 LINE",
"297 413 LINE",
"354 750 LINE",
"149 750 LINE",
"17 0 LINE"
);
}
);
width = 671;
}
);
rightMetricsKey = "=n";
unicode = 0068;
userData = {
RMXScaler = {
source = h;
};
};
},
{
color = 4;
glyphname = i;
lastChange = "2017-09-20 14:13:27 +0000";
layers = (
{
anchors = (
{
name = ogonek;
position = "{154, 0}";
},
{
name = top;
position = "{198, 525}";
}
);
background = {
paths = (
{
closed = 1;
nodes = (
"175 0 LINE",
"268 525 LINE",
"128 525 LINE",
"35 0 LINE"
);
},
{
closed = 1;
nodes = (
"269 606 OFFCURVE",
"308 634 OFFCURVE",
"308 698 CURVE SMOOTH",
"308 740 OFFCURVE",
"281 758 OFFCURVE",
"239 758 CURVE SMOOTH",
"182 758 OFFCURVE",
"143 730 OFFCURVE",
"143 666 CURVE SMOOTH",
"143 624 OFFCURVE",
"170 606 OFFCURVE",
"212 606 CURVE SMOOTH"
);
}
);
};
layerId = "C76CAC8E-7AD6-478C-8F7E-02FEF6F1EA84";
paths = (
{
closed = 1;
nodes = (
"175 0 LINE",
"268 525 LINE",
"128 525 LINE",
"35 0 LINE"
);
},
{
closed = 1;
nodes = (
"273 607 OFFCURVE",
"310 642 OFFCURVE",
"310 695 CURVE SMOOTH",
"310 738 OFFCURVE",
"281 758 OFFCURVE",
"230 758 CURVE SMOOTH",
"177 758 OFFCURVE",
"140 723 OFFCURVE",
"140 670 CURVE SMOOTH",
"140 627 OFFCURVE",
"169 607 OFFCURVE",
"220 607 CURVE SMOOTH"
);
}
);
width = 301;
},
{
components = (
{
name = idotless;
},
{
name = dotaccentcomb;
transform = "{1, 0, 0, 1, 129, 0}";
}
);
layerId = "CC363ACD-D5A5-4E19-A940-9AF36D109D9E";
width = 259;
},
{
components = (
{
name = idotless;
},
{
name = dotaccentcomb;
transform = "{1, 0, 0, 1, 165, 0}";
}
);
layerId = "C1DA716A-5F29-4CD0-A38F-CCADF5849A80";
width = 329;
}
);
unicode = 0069;
userData = {
RMXScaler = {
source = i;
};
};
},
{
color = 4;
glyphname = j;
lastChange = "2017-09-20 14:12:40 +0000";
layers = (
{
anchors = (
{
name = ogonek;
position = "{154, 0}";
},
{
name = top;
position = "{194, 525}";
}
);
background = {
paths = (
{
closed = 1;
nodes = (
"266 529 LINE",
"126 529 LINE",
"33 4 LINE SMOOTH",
"20 -71 OFFCURVE",
"-3 -95 OFFCURVE",
"-54 -95 CURVE SMOOTH",
"-66 -95 OFFCURVE",
"-84 -94 OFFCURVE",
"-96 -93 CURVE",
"-115 -200 LINE",
"-99 -205 OFFCURVE",
"-60 -210 OFFCURVE",
"-31 -210 CURVE SMOOTH",
"89 -210 OFFCURVE",
"148 -134 OFFCURVE",
"171 -4 CURVE SMOOTH"
);
},
{
closed = 1;
nodes = (
"273 607 OFFCURVE",
"310 642 OFFCURVE",
"310 695 CURVE SMOOTH",
"310 738 OFFCURVE",
"281 758 OFFCURVE",
"230 758 CURVE SMOOTH",
"177 758 OFFCURVE",
"140 723 OFFCURVE",
"140 670 CURVE SMOOTH",
"140 627 OFFCURVE",
"169 607 OFFCURVE",
"220 607 CURVE SMOOTH"
);
}
);
};
layerId = "C76CAC8E-7AD6-478C-8F7E-02FEF6F1EA84";
paths = (
{
closed = 1;
nodes = (
"266 529 LINE",
"126 529 LINE",
"33 4 LINE SMOOTH",
"20 -71 OFFCURVE",
"-3 -95 OFFCURVE",
"-54 -95 CURVE SMOOTH",
"-66 -95 OFFCURVE",
"-84 -93 OFFCURVE",
"-96 -91 CURVE",
"-115 -200 LINE",
"-99 -205 OFFCURVE",
"-60 -210 OFFCURVE",
"-31 -210 CURVE SMOOTH",
"89 -210 OFFCURVE",
"148 -134 OFFCURVE",
"171 -4 CURVE SMOOTH"
);
},
{
closed = 1;
nodes = (
"273 607 OFFCURVE",
"310 642 OFFCURVE",
"310 695 CURVE SMOOTH",
"310 738 OFFCURVE",
"281 758 OFFCURVE",
"230 758 CURVE SMOOTH",
"177 758 OFFCURVE",
"140 723 OFFCURVE",
"140 670 CURVE SMOOTH",
"140 627 OFFCURVE",
"169 607 OFFCURVE",
"220 607 CURVE SMOOTH"
);
}
);
width = 301;
},
{
components = (
{
name = jdotless;
},
{
name = dotaccentcomb;
transform = "{1, 0, 0, 1, 135, 0}";
}
);
layerId = "CC363ACD-D5A5-4E19-A940-9AF36D109D9E";
width = 265;
},
{
components = (
{
name = jdotless;
},
{
name = dotaccentcomb;
transform = "{1, 0, 0, 1, 186, 0}";
}
);
layerId = "C1DA716A-5F29-4CD0-A38F-CCADF5849A80";
width = 349;
}
);
rightMetricsKey = "=i";
unicode = 006A;
userData = {
RMXScaler = {
source = j;
};
};
},
{
color = 4;
glyphname = k;
lastChange = "2017-09-20 14:20:02 +0000";
layers = (
{
anchors = (
{
name = bottom;
position = "{258, 0}";
}
);
background = {
paths = (
{
closed = 1;
nodes = (
"299 222 LINE",
"611 525 LINE",
"433 525 LINE",
"238 329 LINE",
"207 329 LINE",
"191 230 LINE"
);
},
{
closed = 1;
nodes = (
"174 0 LINE",
"306 750 LINE",
"166 750 LINE",
"34 0 LINE"
);
},
{
closed = 1;
nodes = (
"523 0 LINE",
"321 319 LINE",
"201 262 LINE",
"364 0 LINE"
);
}
);
};
layerId = "C76CAC8E-7AD6-478C-8F7E-02FEF6F1EA84";
paths = (
{
closed = 1;
nodes = (
"307 230 LINE",
"611 525 LINE",
"433 525 LINE",
"238 329 LINE",
"207 329 LINE",
"191 230 LINE"
);
},
{
closed = 1;
nodes = (
"174 0 LINE",
"306 750 LINE",
"166 750 LINE",
"34 0 LINE"
);
},
{
closed = 1;
nodes = (
"525 0 LINE",
"319 319 LINE",
"200 262 LINE",
"365 0 LINE"
);
}
);
width = 585;
},
{
anchors = (
{
name = bottom;
position = "{261, 0}";
}
);
associatedMasterId = "C76CAC8E-7AD6-478C-8F7E-02FEF6F1EA84";
background = {
anchors = (
{
name = bottom;
position = "{311, 0}";
}
);
paths = (
{
closed = 1;
nodes = (
"292 221 LINE",
"573 525 LINE",
"408 525 LINE",
"229 323 LINE",
"196 323 LINE",
"196 221 LINE"
);
},
{
closed = 1;
nodes = (
"223 0 LINE",
"223 750 LINE",
"83 750 LINE",
"83 0 LINE"
);
},
{
closed = 1;
nodes = (
"583 0 LINE",
"313 319 LINE",
"200 253 LINE",
"416 0 LINE"
);
}
);
};
layerId = "873A0B25-08FC-42D7-98BE-1098C7D91BCD";
name = "Aug 30 17, 11:49";
paths = (
{
closed = 1;
nodes = (
"287 221 LINE",
"609 525 LINE",
"445 525 LINE",
"240 323 LINE",
"207 323 LINE",
"189 221 LINE"
);
},
{
closed = 1;
nodes = (
"177 0 LINE",
"309 750 LINE",
"169 750 LINE",
"37 0 LINE"
);
},
{
closed = 1;
nodes = (
"526 0 LINE",
"324 319 LINE",
"199 253 LINE",
"360 0 LINE"
);
}
);
width = 588;
},
{
anchors = (
{
name = bottom;
position = "{230, 0}";
}
);
layerId = "CC363ACD-D5A5-4E19-A940-9AF36D109D9E";
paths = (
{
closed = 1;
nodes = (
"184 244 LINE",
"521 515 LINE",
"446 515 LINE",
"172 295 LINE",
"151 295 LINE",
"142 244 LINE"
);
},
{
closed = 1;
nodes = (
"117 0 LINE",
"249 750 LINE",
"194 750 LINE",
"62 0 LINE"
);
},
{
closed = 1;
nodes = (
"429 0 LINE",
"195 284 LINE",
"150 259 LINE",
"366 0 LINE"
);
}
);
width = 491;
},
{
anchors = (
{
name = bottom;
position = "{285, 0}";
}
);
layerId = "C1DA716A-5F29-4CD0-A38F-CCADF5849A80";
paths = (
{
closed = 1;
nodes = (
"392 204 LINE",
"669 535 LINE",
"444 535 LINE",
"288 343 LINE",
"250 343 LINE",
"226 204 LINE"
);
},
{
closed = 1;
nodes = (
"222 0 LINE",
"354 750 LINE",
"149 750 LINE",
"17 0 LINE"
);
},
{
closed = 1;
nodes = (
"576 0 LINE",
"417 331 LINE",
"240 253 LINE",
"359 0 LINE"
);
}
);
width = 629;
}
);
leftMetricsKey = h;
unicode = 006B;
userData = {
RMXScaler = {
source = k;
};
};
},
{
color = 4;
glyphname = l;
lastChange = "2017-09-20 14:20:04 +0000";
layers = (
{
anchors = (
{
name = bottom;
position = "{103, 0}";
},
{
name = periodcentered;
position = "{305, 370}";
},
{
name = top;
position = "{230, 730}";
},
{
name = topright;
position = "{340, 525}";
}
);
background = {
anchors = (
{
name = bottom;
position = "{106, 0}";
},
{
name = periodcentered;
position = "{314, 370}";
},
{
name = top;
position = "{219, 730}";
},
{
name = topright;
position = "{339, 525}";
}
);
paths = (
{
closed = 1;
nodes = (
"177 0 LINE",
"295 750 LINE",
"155 750 LINE",
"37 0 LINE"
);
}
);
};
layerId = "C76CAC8E-7AD6-478C-8F7E-02FEF6F1EA84";
paths = (
{
closed = 1;
nodes = (
"174 0 LINE",
"306 750 LINE",
"166 750 LINE",
"34 0 LINE"
);
}
);
width = 300;
},
{
anchors = (
{
name = bottom;
position = "{89, 0}";
},
{
name = periodcentered;
position = "{256, 370}";
},
{
name = top;
position = "{218, 731}";
},
{
name = topright;
position = "{282, 515}";
}
);
layerId = "CC363ACD-D5A5-4E19-A940-9AF36D109D9E";
paths = (
{
closed = 1;
nodes = (
"117 0 LINE",
"249 750 LINE",
"194 750 LINE",
"62 0 LINE"
);
}
);
width = 269;
},
{
anchors = (
{
name = bottom;
position = "{120, 0}";
},
{
name = periodcentered;
position = "{330, 370}";
},
{
name = top;
position = "{248, 741}";
},
{
name = topright;
position = "{401, 535}";
}
);
layerId = "C1DA716A-5F29-4CD0-A38F-CCADF5849A80";
paths = (
{
closed = 1;
nodes = (
"222 0 LINE",
"354 750 LINE",
"149 750 LINE",
"17 0 LINE"
);
}
);
width = 333;
}
);
leftMetricsKey = h;
rightMetricsKey = d;
unicode = 006C;
userData = {
RMXScaler = {
source = l;
};
};
},
{
color = 4;
glyphname = m;
lastChange = "2017-09-20 14:20:18 +0000";
layers = (
{
background = {
paths = (
{
closed = 1;
nodes = (
"567 499 OFFCURVE",
"518 540 OFFCURVE",
"433 540 CURVE SMOOTH",
"345 540 OFFCURVE",
"279 492 OFFCURVE",
"247 424 CURVE",
"265 437 LINE",
"234 437 LINE",
"246 427 LINE",
"249 525 LINE",
"127 525 LINE",
"34 0 LINE",
"174 0 LINE",
"227 300 LINE SMOOTH",
"240 373 OFFCURVE",
"285 415 OFFCURVE",
"356 415 CURVE SMOOTH",
"405 415 OFFCURVE",
"429 391 OFFCURVE",
"429 345 CURVE SMOOTH",
"429 334 OFFCURVE",
"427 319 OFFCURVE",
"423 295 CURVE SMOOTH",
"371 0 LINE",
"511 0 LINE",
"564 300 LINE SMOOTH",
"577 373 OFFCURVE",
"622 415 OFFCURVE",
"693 415 CURVE SMOOTH",
"742 415 OFFCURVE",
"766 391 OFFCURVE",
"766 345 CURVE SMOOTH",
"766 334 OFFCURVE",
"764 319 OFFCURVE",
"760 295 CURVE SMOOTH",
"708 0 LINE",
"848 0 LINE",
"901 301 LINE SMOOTH",
"907 335 OFFCURVE",
"913 372 OFFCURVE",
"913 401 CURVE SMOOTH",
"913 491 OFFCURVE",
"863 540 OFFCURVE",
"768 540 CURVE SMOOTH",
"678 540 OFFCURVE",
"608 489 OFFCURVE",
"574 416 CURVE",
"592 429 LINE",
"562 429 LINE",
"575 422 LINE"
);
}
);
};
layerId = "C76CAC8E-7AD6-478C-8F7E-02FEF6F1EA84";
paths = (
{
closed = 1;
nodes = (
"678 540 OFFCURVE",
"608 488 OFFCURVE",
"573 414 CURVE",
"591 427 LINE",
"561 427 LINE",
"574 420 LINE",
"566 498 OFFCURVE",
"518 540 OFFCURVE",
"433 540 CURVE SMOOTH",
"345 540 OFFCURVE",
"279 492 OFFCURVE",
"247 424 CURVE",
"265 437 LINE",
"234 437 LINE",
"246 427 LINE",
"249 525 LINE",
"127 525 LINE",
"34 0 LINE",
"174 0 LINE",
"227 300 LINE SMOOTH",
"240 373 OFFCURVE",
"285 415 OFFCURVE",
"356 415 CURVE SMOOTH",
"405 415 OFFCURVE",
"429 391 OFFCURVE",
"429 345 CURVE SMOOTH",
"429 334 OFFCURVE",
"427 319 OFFCURVE",
"423 295 CURVE SMOOTH",
"371 0 LINE",
"511 0 LINE",
"564 300 LINE SMOOTH",
"577 373 OFFCURVE",
"622 415 OFFCURVE",
"693 415 CURVE SMOOTH",
"742 415 OFFCURVE",
"766 391 OFFCURVE",
"766 345 CURVE SMOOTH",
"766 334 OFFCURVE",
"764 319 OFFCURVE",
"760 295 CURVE SMOOTH",
"708 0 LINE",
"848 0 LINE",
"901 301 LINE SMOOTH",
"907 335 OFFCURVE",
"913 372 OFFCURVE",
"913 401 CURVE SMOOTH",
"913 491 OFFCURVE",
"863 540 OFFCURVE",
"768 540 CURVE SMOOTH"
);
}
);
width = 969;
},
{
layerId = "CC363ACD-D5A5-4E19-A940-9AF36D109D9E";
paths = (
{
closed = 1;
nodes = (
"610 530 OFFCURVE",
"546 472 OFFCURVE",
"503 397 CURVE",
"531 410 LINE",
"494 410 LINE",
"507 392 LINE",
"507 478 OFFCURVE",
"458 530 OFFCURVE",
"369 530 CURVE SMOOTH",
"274 530 OFFCURVE",
"218 472 OFFCURVE",
"172 397 CURVE",
"210 420 LINE",
"173 420 LINE",
"181 400 LINE",
"191 515 LINE",
"148 515 LINE",
"57 0 LINE",
"112 0 LINE",
"161 276 LINE SMOOTH",
"181 389 OFFCURVE",
"273 478 OFFCURVE",
"360 478 CURVE SMOOTH",
"421 478 OFFCURVE",
"456 450 OFFCURVE",
"456 383 CURVE SMOOTH",
"456 364 OFFCURVE",
"453 343 OFFCURVE",
"449 318 CURVE SMOOTH",
"393 0 LINE",
"448 0 LINE",
"497 276 LINE SMOOTH",
"519 399 OFFCURVE",
"609 478 OFFCURVE",
"697 478 CURVE SMOOTH",
"757 478 OFFCURVE",
"792 455 OFFCURVE",
"792 383 CURVE SMOOTH",
"792 365 OFFCURVE",
"789 341 OFFCURVE",
"785 318 CURVE SMOOTH",
"729 0 LINE",
"784 0 LINE",
"841 321 LINE SMOOTH",
"845 341 OFFCURVE",
"848 368 OFFCURVE",
"848 391 CURVE SMOOTH",
"848 486 OFFCURVE",
"791 530 OFFCURVE",
"705 530 CURVE SMOOTH"
);
}
);
width = 927;
},
{
layerId = "C1DA716A-5F29-4CD0-A38F-CCADF5849A80";
paths = (
{
closed = 1;
nodes = (
"699 550 OFFCURVE",
"640 500 OFFCURVE",
"599 397 CURVE",
"654 420 LINE",
"568 420 LINE",
"605 381 LINE",
"611 479 OFFCURVE",
"575 550 OFFCURVE",
"474 550 CURVE SMOOTH",
"374 550 OFFCURVE",
"326 496 OFFCURVE",
"281 404 CURVE",
"306 427 LINE",
"277 427 LINE",
"288 405 LINE",
"288 535 LINE",
"108 535 LINE",
"13 0 LINE",
"218 0 LINE",
"266 272 LINE SMOOTH",
"278 338 OFFCURVE",
"313 368 OFFCURVE",
"360 368 CURVE SMOOTH",
"386 368 OFFCURVE",
"401 351 OFFCURVE",
"401 323 CURVE SMOOTH",
"401 314 OFFCURVE",
"399 296 OFFCURVE",
"397 285 CURVE SMOOTH",
"347 0 LINE",
"544 0 LINE",
"592 272 LINE SMOOTH",
"604 338 OFFCURVE",
"639 368 OFFCURVE",
"686 368 CURVE SMOOTH",
"712 368 OFFCURVE",
"727 351 OFFCURVE",
"727 323 CURVE SMOOTH",
"727 315 OFFCURVE",
"725 298 OFFCURVE",
"723 285 CURVE SMOOTH",
"673 0 LINE",
"878 0 LINE",
"934 319 LINE SMOOTH",
"938 343 OFFCURVE",
"942 378 OFFCURVE",
"942 403 CURVE SMOOTH",
"942 481 OFFCURVE",
"902 550 OFFCURVE",
"809 550 CURVE SMOOTH"
);
}
);
width = 982;
}
);
leftMetricsKey = n;
rightMetricsKey = n;
unicode = 006D;
userData = {
RMXScaler = {
source = m;
};
};
},
{
color = 4;
glyphname = n;
lastChange = "2017-09-20 14:20:43 +0000";
layers = (
{
anchors = (
{
name = apostrophe;
position = "{51, 525}";
},
{
name = bottom;
position = "{287, 0}";
},
{
name = top;
position = "{384, 525}";
}
);
background = {
paths = (
{
closed = 1;
nodes = (
"174 0 LINE",
"227 300 LINE SMOOTH",
"240 373 OFFCURVE",
"289 415 OFFCURVE",
"362 415 CURVE SMOOTH",
"412 415 OFFCURVE",
"436 391 OFFCURVE",
"436 341 CURVE SMOOTH",
"436 329 OFFCURVE",
"433 312 OFFCURVE",
"431 300 CURVE SMOOTH",
"378 0 LINE",
"518 0 LINE",
"571 301 LINE SMOOTH",
"577 335 OFFCURVE",
"583 372 OFFCURVE",
"583 401 CURVE SMOOTH",
"583 491 OFFCURVE",
"532 540 OFFCURVE",
"437 540 CURVE SMOOTH",
"349 540 OFFCURVE",
"280 492 OFFCURVE",
"247 424 CURVE",
"265 437 LINE",
"234 437 LINE",
"246 427 LINE",
"249 525 LINE",
"127 525 LINE",
"34 0 LINE"
);
}
);
};
layerId = "C76CAC8E-7AD6-478C-8F7E-02FEF6F1EA84";
paths = (
{
closed = 1;
nodes = (
"174 0 LINE",
"227 300 LINE SMOOTH",
"240 373 OFFCURVE",
"289 415 OFFCURVE",
"360 415 CURVE SMOOTH",
"411 415 OFFCURVE",
"436 391 OFFCURVE",
"436 345 CURVE SMOOTH",
"436 334 OFFCURVE",
"434 319 OFFCURVE",
"430 295 CURVE SMOOTH",
"378 0 LINE",
"518 0 LINE",
"571 301 LINE SMOOTH",
"577 335 OFFCURVE",
"583 372 OFFCURVE",
"583 401 CURVE SMOOTH",
"583 491 OFFCURVE",
"532 540 OFFCURVE",
"437 540 CURVE SMOOTH",
"349 540 OFFCURVE",
"280 492 OFFCURVE",
"247 424 CURVE",
"265 437 LINE",
"234 437 LINE",
"246 427 LINE",
"249 525 LINE",
"127 525 LINE",
"34 0 LINE"
);
}
);
width = 639;
},
{
anchors = (
{
name = apostrophe;
position = "{52, 515}";
},
{
name = bottom;
position = "{251, 0}";
},
{
name = top;
position = "{346, 515}";
}
);
layerId = "CC363ACD-D5A5-4E19-A940-9AF36D109D9E";
paths = (
{
closed = 1;
nodes = (
"112 0 LINE",
"161 276 LINE SMOOTH",
"181 389 OFFCURVE",
"274 478 OFFCURVE",
"369 478 CURVE SMOOTH",
"443 478 OFFCURVE",
"467 444 OFFCURVE",
"467 383 CURVE SMOOTH",
"467 365 OFFCURVE",
"464 343 OFFCURVE",
"460 318 CURVE SMOOTH",
"404 0 LINE",
"459 0 LINE",
"515 315 LINE SMOOTH",
"520 343 OFFCURVE",
"523 368 OFFCURVE",
"523 393 CURVE SMOOTH",
"523 487 OFFCURVE",
"467 530 OFFCURVE",
"379 530 CURVE SMOOTH",
"285 530 OFFCURVE",
"216 472 OFFCURVE",
"171 397 CURVE",
"209 420 LINE",
"172 420 LINE",
"181 400 LINE",
"191 515 LINE",
"148 515 LINE",
"57 0 LINE"
);
}
);
width = 602;
},
{
anchors = (
{
name = apostrophe;
position = "{51, 535}";
},
{
name = bottom;
position = "{287, 0}";
},
{
name = top;
position = "{384, 535}";
}
);
layerId = "C1DA716A-5F29-4CD0-A38F-CCADF5849A80";
paths = (
{
closed = 1;
nodes = (
"218 0 LINE",
"266 272 LINE SMOOTH",
"278 338 OFFCURVE",
"313 368 OFFCURVE",
"365 368 CURVE SMOOTH",
"396 368 OFFCURVE",
"411 351 OFFCURVE",
"411 323 CURVE SMOOTH",
"411 313 OFFCURVE",
"409 295 OFFCURVE",
"407 285 CURVE SMOOTH",
"357 0 LINE",
"562 0 LINE",
"618 319 LINE SMOOTH",
"622 343 OFFCURVE",
"626 378 OFFCURVE",
"626 403 CURVE SMOOTH",
"626 481 OFFCURVE",
"586 550 OFFCURVE",
"481 550 CURVE SMOOTH",
"371 550 OFFCURVE",
"326 496 OFFCURVE",
"281 404 CURVE",
"306 427 LINE",
"277 427 LINE",
"288 405 LINE",
"288 535 LINE",
"108 535 LINE",
"13 0 LINE"
);
}
);
width = 666;
}
);
unicode = 006E;
userData = {
RMXScaler = {
source = n;
};
};
},
{
color = 4;
glyphname = o;
lastChange = "2017-09-20 14:29:05 +0000";
layers = (
{
anchors = (
{
name = top;
position = "{346, 525}";
}
);
background = {
paths = (
{
closed = 1;
nodes = (
"493 -15 OFFCURVE",
"584 86 OFFCURVE",
"584 263 CURVE SMOOTH",
"584 439 OFFCURVE",
"493 540 OFFCURVE",
"317 540 CURVE SMOOTH",
"141 540 OFFCURVE",
"50 439 OFFCURVE",
"50 263 CURVE SMOOTH",
"50 86 OFFCURVE",
"141 -15 OFFCURVE",
"317 -15 CURVE SMOOTH"
);
},
{
closed = 1;
nodes = (
"230 100 OFFCURVE",
"195 157 OFFCURVE",
"195 263 CURVE SMOOTH",
"195 368 OFFCURVE",
"230 425 OFFCURVE",
"317 425 CURVE SMOOTH",
"404 425 OFFCURVE",
"439 368 OFFCURVE",
"439 263 CURVE SMOOTH",
"439 157 OFFCURVE",
"404 100 OFFCURVE",
"317 100 CURVE SMOOTH"
);
}
);
};
layerId = "C76CAC8E-7AD6-478C-8F7E-02FEF6F1EA84";
paths = (
{
closed = 1;
nodes = (
"474 -15 OFFCURVE",
"583 108 OFFCURVE",
"583 323 CURVE SMOOTH",
"583 459 OFFCURVE",
"496 540 OFFCURVE",
"348 540 CURVE SMOOTH",
"157 540 OFFCURVE",
"48 417 OFFCURVE",
"48 202 CURVE SMOOTH",
"48 66 OFFCURVE",
"135 -15 OFFCURVE",
"283 -15 CURVE SMOOTH"
);
},
{
closed = 1;
nodes = (
"223 100 OFFCURVE",
"190 133 OFFCURVE",
"190 205 CURVE SMOOTH",
"190 325 OFFCURVE",
"229 425 OFFCURVE",
"337 425 CURVE SMOOTH",
"408 425 OFFCURVE",
"441 392 OFFCURVE",
"441 320 CURVE SMOOTH",
"441 200 OFFCURVE",
"402 100 OFFCURVE",
"294 100 CURVE SMOOTH"
);
}
);
width = 631;
},
{
anchors = (
{
name = top;
position = "{341, 515}";
}
);
background = {
paths = (
{
closed = 1;
nodes = (
"447 -15 OFFCURVE",
"547 78 OFFCURVE",
"547 257 CURVE SMOOTH",
"547 436 OFFCURVE",
"447 530 OFFCURVE",
"307 530 CURVE SMOOTH",
"168 530 OFFCURVE",
"67 436 OFFCURVE",
"67 257 CURVE SMOOTH",
"67 78 OFFCURVE",
"168 -15 OFFCURVE",
"307 -15 CURVE SMOOTH"
);
},
{
closed = 1;
nodes = (
"191 32 OFFCURVE",
"123 108 OFFCURVE",
"123 257 CURVE SMOOTH",
"123 406 OFFCURVE",
"191 483 OFFCURVE",
"307 483 CURVE SMOOTH",
"423 483 OFFCURVE",
"491 406 OFFCURVE",
"491 257 CURVE SMOOTH",
"491 108 OFFCURVE",
"423 32 OFFCURVE",
"307 32 CURVE SMOOTH"
);
}
);
};
layerId = "CC363ACD-D5A5-4E19-A940-9AF36D109D9E";
paths = (
{
closed = 1;
nodes = (
"448 -15 OFFCURVE",
"531 147 OFFCURVE",
"531 317 CURVE SMOOTH",
"531 450 OFFCURVE",
"452 530 OFFCURVE",
"333 530 CURVE SMOOTH",
"146 530 OFFCURVE",
"62 366 OFFCURVE",
"62 197 CURVE SMOOTH",
"62 64 OFFCURVE",
"142 -15 OFFCURVE",
"260 -15 CURVE SMOOTH"
);
},
{
closed = 1;
nodes = (
"170 32 OFFCURVE",
"117 97 OFFCURVE",
"117 197 CURVE SMOOTH",
"117 338 OFFCURVE",
"174 483 OFFCURVE",
"331 483 CURVE SMOOTH",
"423 483 OFFCURVE",
"476 417 OFFCURVE",
"476 317 CURVE SMOOTH",
"476 175 OFFCURVE",
"419 32 OFFCURVE",
"262 32 CURVE SMOOTH"
);
}
);
width = 593;
},
{
anchors = (
{
name = top;
position = "{370, 535}";
}
);
background = {
paths = (
{
closed = 1;
nodes = (
"517 -15 OFFCURVE",
"620 88 OFFCURVE",
"620 267 CURVE SMOOTH",
"620 446 OFFCURVE",
"517 550 OFFCURVE",
"328 550 CURVE SMOOTH",
"139 550 OFFCURVE",
"36 446 OFFCURVE",
"36 267 CURVE SMOOTH",
"36 88 OFFCURVE",
"139 -15 OFFCURVE",
"328 -15 CURVE SMOOTH"
);
},
{
closed = 1;
nodes = (
"267 143 OFFCURVE",
"246 183 OFFCURVE",
"246 267 CURVE SMOOTH",
"246 351 OFFCURVE",
"267 391 OFFCURVE",
"328 391 CURVE SMOOTH",
"389 391 OFFCURVE",
"410 351 OFFCURVE",
"410 267 CURVE SMOOTH",
"410 183 OFFCURVE",
"389 143 OFFCURVE",
"328 143 CURVE SMOOTH"
);
}
);
};
layerId = "C1DA716A-5F29-4CD0-A38F-CCADF5849A80";
paths = (
{
closed = 1;
nodes = (
"501 -15 OFFCURVE",
"612 125 OFFCURVE",
"612 320 CURVE SMOOTH",
"612 462 OFFCURVE",
"516 550 OFFCURVE",
"361 550 CURVE SMOOTH",
"145 550 OFFCURVE",
"34 410 OFFCURVE",
"34 215 CURVE SMOOTH",
"34 73 OFFCURVE",
"131 -15 OFFCURVE",
"285 -15 CURVE SMOOTH"
);
},
{
closed = 1;
nodes = (
"261 143 OFFCURVE",
"239 172 OFFCURVE",
"239 215 CURVE SMOOTH",
"239 295 OFFCURVE",
"254 391 OFFCURVE",
"344 391 CURVE SMOOTH",
"385 391 OFFCURVE",
"407 362 OFFCURVE",
"407 319 CURVE SMOOTH",
"407 239 OFFCURVE",
"390 143 OFFCURVE",
"302 143 CURVE SMOOTH"
);
}
);
width = 646;
}
);
unicode = 006F;
userData = {
RMXScaler = {
source = o;
};
};
},
{
color = 4;
glyphname = p;
lastChange = "2017-09-20 14:31:49 +0000";
layers = (
{
background = {
paths = (
{
closed = 1;
nodes = (
"221 -195 LINE",
"221 79 LINE",
"226 79 LINE",
"257 17 OFFCURVE",
"313 -15 OFFCURVE",
"387 -15 CURVE SMOOTH",
"530 -15 OFFCURVE",
"616 89 OFFCURVE",
"616 262 CURVE SMOOTH",
"616 435 OFFCURVE",
"530 540 OFFCURVE",
"387 540 CURVE SMOOTH",
"313 540 OFFCURVE",
"257 506 OFFCURVE",
"226 440 CURVE",
"219 440 LINE",
"204 525 LINE",
"81 525 LINE",
"81 -195 LINE"
);
},
{
closed = 1;
nodes = (
"264 105 OFFCURVE",
"221 160 OFFCURVE",
"221 262 CURVE SMOOTH",
"221 364 OFFCURVE",
"264 420 OFFCURVE",
"345 420 CURVE SMOOTH",
"430 420 OFFCURVE",
"471 369 OFFCURVE",
"471 262 CURVE SMOOTH",
"471 155 OFFCURVE",
"430 105 OFFCURVE",
"345 105 CURVE SMOOTH"
);
}
);
};
components = (
{
name = d;
transform = "{-1, 0, 0, -1, 657, 525}";
}
);
layerId = "C76CAC8E-7AD6-478C-8F7E-02FEF6F1EA84";
width = 657;
},
{
background = {
paths = (
{
closed = 1;
nodes = (
"157 -195 LINE",
"157 90 LINE",
"162 90 LINE",
"199 19 OFFCURVE",
"257 -15 OFFCURVE",
"340 -15 CURVE SMOOTH",
"482 -15 OFFCURVE",
"569 89 OFFCURVE",
"569 257 CURVE SMOOTH",
"569 429 OFFCURVE",
"487 530 OFFCURVE",
"340 530 CURVE SMOOTH",
"238 530 OFFCURVE",
"187 467 OFFCURVE",
"161 413 CURVE",
"157 413 LINE",
"143 515 LINE",
"102 515 LINE",
"102 -195 LINE"
);
},
{
closed = 1;
nodes = (
"218 32 OFFCURVE",
"152 133 OFFCURVE",
"152 257 CURVE SMOOTH",
"152 365 OFFCURVE",
"218 483 OFFCURVE",
"338 483 CURVE SMOOTH",
"457 483 OFFCURVE",
"513 403 OFFCURVE",
"513 257 CURVE SMOOTH",
"513 113 OFFCURVE",
"450 32 OFFCURVE",
"338 32 CURVE SMOOTH"
);
}
);
};
layerId = "CC363ACD-D5A5-4E19-A940-9AF36D109D9E";
paths = (
{
closed = 1;
nodes = (
"77 -195 LINE",
"127 90 LINE",
"132 90 LINE",
"154 29 OFFCURVE",
"213 -15 OFFCURVE",
"292 -15 CURVE SMOOTH",
"443 -15 OFFCURVE",
"555 137 OFFCURVE",
"555 320 CURVE SMOOTH",
"555 444 OFFCURVE",
"488 530 OFFCURVE",
"375 530 CURVE SMOOTH",
"280 530 OFFCURVE",
"221 468 OFFCURVE",
"187 414 CURVE",
"183 414 LINE",
"188 515 LINE",
"147 515 LINE",
"22 -195 LINE"
);
},
{
closed = 1;
nodes = (
"196 32 OFFCURVE",
"145 100 OFFCURVE",
"145 194 CURVE SMOOTH",
"145 331 OFFCURVE",
"241 483 OFFCURVE",
"371 483 CURVE SMOOTH",
"454 483 OFFCURVE",
"500 414 OFFCURVE",
"500 320 CURVE SMOOTH",
"500 160 OFFCURVE",
"414 32 OFFCURVE",
"289 32 CURVE SMOOTH"
);
}
);
width = 616;
},
{
background = {
paths = (
{
closed = 1;
nodes = (
"265 -195 LINE",
"265 79 LINE",
"271 79 LINE",
"292 32 OFFCURVE",
"346 -15 OFFCURVE",
"432 -15 CURVE SMOOTH",
"569 -15 OFFCURVE",
"649 92 OFFCURVE",
"649 267 CURVE SMOOTH",
"649 441 OFFCURVE",
"569 550 OFFCURVE",
"432 550 CURVE SMOOTH",
"346 550 OFFCURVE",
"292 502 OFFCURVE",
"271 453 CURVE",
"258 453 LINE",
"241 535 LINE",
"60 535 LINE",
"60 -195 LINE"
);
},
{
closed = 1;
nodes = (
"295 150 OFFCURVE",
"265 189 OFFCURVE",
"265 267 CURVE SMOOTH",
"265 344 OFFCURVE",
"295 384 OFFCURVE",
"352 384 CURVE SMOOTH",
"413 384 OFFCURVE",
"439 345 OFFCURVE",
"439 267 CURVE SMOOTH",
"439 188 OFFCURVE",
"413 150 OFFCURVE",
"352 150 CURVE SMOOTH"
);
}
);
};
layerId = "C1DA716A-5F29-4CD0-A38F-CCADF5849A80";
paths = (
{
closed = 1;
nodes = (
"232 80 LINE",
"238 80 LINE",
"260 32 OFFCURVE",
"299 -15 OFFCURVE",
"389 -15 CURVE SMOOTH",
"557 -15 OFFCURVE",
"643 159 OFFCURVE",
"643 340 CURVE SMOOTH",
"643 460 OFFCURVE",
"583 549 OFFCURVE",
"467 549 CURVE SMOOTH",
"388 549 OFFCURVE",
"329 502 OFFCURVE",
"301 454 CURVE",
"289 454 LINE",
"287 535 LINE",
"107 535 LINE",
"-22 -195 LINE",
"183 -195 LINE"
);
},
{
closed = 1;
nodes = (
"414 384 OFFCURVE",
"437 352 OFFCURVE",
"437 312 CURVE SMOOTH",
"437 242 OFFCURVE",
"419 151 OFFCURVE",
"326 151 CURVE SMOOTH",
"282 151 OFFCURVE",
"259 183 OFFCURVE",
"259 223 CURVE SMOOTH",
"259 293 OFFCURVE",
"279 384 OFFCURVE",
"370 384 CURVE SMOOTH"
);
}
);
width = 675;
}
);
leftMetricsKey = n;
rightMetricsKey = o;
unicode = 0070;
userData = {
RMXScaler = {
source = p;
};
};
},
{
color = 4;
glyphname = q;
lastChange = "2017-09-20 14:31:52 +0000";
layers = (
{
background = {
paths = (
{
closed = 1;
nodes = (
"497 -195 LINE",
"624 525 LINE",
"501 525 LINE",
"471 440 LINE",
"464 440 LINE",
"446 506 OFFCURVE",
"397 540 OFFCURVE",
"325 540 CURVE SMOOTH",
"158 540 OFFCURVE",
"46 399 OFFCURVE",
"46 197 CURVE SMOOTH",
"46 65 OFFCURVE",
"111 -15 OFFCURVE",
"227 -15 CURVE SMOOTH",
"300 -15 OFFCURVE",
"360 17 OFFCURVE",
"400 79 CURVE",
"405 79 LINE",
"357 -195 LINE"
);
},
{
closed = 1;
nodes = (
"225 105 OFFCURVE",
"193 142 OFFCURVE",
"193 217 CURVE SMOOTH",
"193 339 OFFCURVE",
"238 420 OFFCURVE",
"347 420 CURVE SMOOTH",
"410 420 OFFCURVE",
"442 378 OFFCURVE",
"442 304 CURVE SMOOTH",
"442 185 OFFCURVE",
"389 105 OFFCURVE",
"291 105 CURVE SMOOTH"
);
}
);
};
components = (
{
name = b;
transform = "{-1, 0, 0, -1, 656, 525}";
}
);
layerId = "C76CAC8E-7AD6-478C-8F7E-02FEF6F1EA84";
width = 656;
},
{
layerId = "CC363ACD-D5A5-4E19-A940-9AF36D109D9E";
paths = (
{
closed = 1;
nodes = (
"435 -195 LINE",
"560 515 LINE",
"518 515 LINE",
"487 412 LINE",
"483 412 LINE",
"465 465 OFFCURVE",
"418 530 OFFCURVE",
"321 530 CURVE SMOOTH",
"168 530 OFFCURVE",
"61 378 OFFCURVE",
"61 195 CURVE SMOOTH",
"61 70 OFFCURVE",
"126 -15 OFFCURVE",
"241 -15 CURVE SMOOTH",
"318 -15 OFFCURVE",
"378 17 OFFCURVE",
"425 88 CURVE",
"430 88 LINE",
"380 -195 LINE"
);
},
{
closed = 1;
nodes = (
"416 483 OFFCURVE",
"468 392 OFFCURVE",
"468 303 CURVE SMOOTH",
"468 169 OFFCURVE",
"379 32 OFFCURVE",
"245 32 CURVE SMOOTH",
"160 32 OFFCURVE",
"116 99 OFFCURVE",
"116 195 CURVE SMOOTH",
"116 345 OFFCURVE",
"196 483 OFFCURVE",
"322 483 CURVE SMOOTH"
);
}
);
width = 617;
},
{
layerId = "C1DA716A-5F29-4CD0-A38F-CCADF5849A80";
paths = (
{
closed = 1;
nodes = (
"531 -195 LINE",
"661 535 LINE",
"479 535 LINE",
"448 454 LINE",
"436 454 LINE",
"410 507 OFFCURVE",
"370 549 OFFCURVE",
"285 549 CURVE SMOOTH",
"118 549 OFFCURVE",
"32 375 OFFCURVE",
"32 194 CURVE SMOOTH",
"32 74 OFFCURVE",
"92 -15 OFFCURVE",
"207 -15 CURVE SMOOTH",
"287 -15 OFFCURVE",
"336 21 OFFCURVE",
"370 80 CURVE",
"377 80 LINE",
"326 -195 LINE"
);
},
{
closed = 1;
nodes = (
"393 384 OFFCURVE",
"416 352 OFFCURVE",
"416 312 CURVE SMOOTH",
"416 242 OFFCURVE",
"398 151 OFFCURVE",
"305 151 CURVE SMOOTH",
"261 151 OFFCURVE",
"238 183 OFFCURVE",
"238 223 CURVE SMOOTH",
"238 293 OFFCURVE",
"258 384 OFFCURVE",
"349 384 CURVE SMOOTH"
);
}
);
width = 676;
}
);
leftMetricsKey = o;
rightMetricsKey = idotless;
unicode = 0071;
userData = {
RMXScaler = {
source = q;
};
};
},
{
color = 4;
glyphname = r;
lastChange = "2017-09-20 14:09:04 +0000";
layers = (
{
anchors = (
{
name = bottom;
position = "{102, 0}";
},
{
name = top;
position = "{301, 525}";
}
);
background = {
paths = (
{
closed = 1;
nodes = (
"265 431 LINE",
"245 431 LINE",
"248 525 LINE",
"126 525 LINE",
"34 0 LINE",
"174 0 LINE",
"227 300 LINE SMOOTH",
"240 374 OFFCURVE",
"295 405 OFFCURVE",
"359 405 CURVE SMOOTH",
"386 405 OFFCURVE",
"405 402 OFFCURVE",
"424 396 CURVE",
"449 534 LINE",
"437 538 OFFCURVE",
"418 540 OFFCURVE",
"401 540 CURVE SMOOTH",
"319 540 OFFCURVE",
"267 486 OFFCURVE",
"220 354 CURVE"
);
}
);
};
layerId = "C76CAC8E-7AD6-478C-8F7E-02FEF6F1EA84";
paths = (
{
closed = 1;
nodes = (
"264 430 LINE",
"244 430 LINE",
"248 525 LINE",
"126 525 LINE",
"34 0 LINE",
"174 0 LINE",
"227 300 LINE SMOOTH",
"240 374 OFFCURVE",
"295 405 OFFCURVE",
"359 405 CURVE SMOOTH",
"382 405 OFFCURVE",
"408 401 OFFCURVE",
"424 396 CURVE",
"449 534 LINE",
"437 538 OFFCURVE",
"418 540 OFFCURVE",
"401 540 CURVE SMOOTH",
"319 540 OFFCURVE",
"266 486 OFFCURVE",
"219 353 CURVE"
);
}
);
width = 413;
},
{
anchors = (
{
name = bottom;
position = "{85, 0}";
},
{
name = top;
position = "{268, 515}";
}
);
layerId = "CC363ACD-D5A5-4E19-A940-9AF36D109D9E";
paths = (
{
closed = 1;
nodes = (
"209 420 LINE",
"183 420 LINE",
"191 515 LINE",
"148 515 LINE",
"57 0 LINE",
"112 0 LINE",
"161 276 LINE SMOOTH",
"182 394 OFFCURVE",
"248 475 OFFCURVE",
"344 475 CURVE SMOOTH",
"356 475 OFFCURVE",
"378 473 OFFCURVE",
"388 470 CURVE",
"397 521 LINE",
"385 526 OFFCURVE",
"360 530 OFFCURVE",
"340 530 CURVE SMOOTH",
"264 530 OFFCURVE",
"217 487 OFFCURVE",
"173 397 CURVE"
);
}
);
width = 358;
},
{
anchors = (
{
name = bottom;
position = "{116, 0}";
},
{
name = top;
position = "{291, 535}";
}
);
layerId = "C1DA716A-5F29-4CD0-A38F-CCADF5849A80";
paths = (
{
closed = 1;
nodes = (
"309 422 LINE",
"288 422 LINE",
"288 535 LINE",
"108 535 LINE",
"13 0 LINE",
"218 0 LINE",
"260 242 LINE SMOOTH",
"275 329 OFFCURVE",
"327 358 OFFCURVE",
"402 358 CURVE SMOOTH",
"418 358 OFFCURVE",
"439 355 OFFCURVE",
"454 352 CURVE",
"487 540 LINE",
"475 545 OFFCURVE",
"448 550 OFFCURVE",
"427 550 CURVE SMOOTH",
"335 550 OFFCURVE",
"308 487 OFFCURVE",
"274 352 CURVE"
);
}
);
width = 457;
}
);
leftMetricsKey = n;
unicode = 0072;
userData = {
RMXScaler = {
source = r;
};
};
},
{
color = 4;
glyphname = s;
lastChange = "2017-09-20 14:23:05 +0000";
layers = (
{
anchors = (
{
name = bottom;
position = "{281, 0}";
},
{
name = top;
position = "{274, 525}";
}
);
background = {
paths = (
{
closed = 1;
nodes = (
"390 -15 OFFCURVE",
"497 51 OFFCURVE",
"498 171 CURVE SMOOTH",
"499 252 OFFCURVE",
"448 293 OFFCURVE",
"343 312 CURVE SMOOTH",
"273 325 LINE SMOOTH",
"230 333 OFFCURVE",
"213 350 OFFCURVE",
"213 376 CURVE SMOOTH",
"213 414 OFFCURVE",
"247 435 OFFCURVE",
"304 435 CURVE SMOOTH",
"367 435 OFFCURVE",
"389 418 OFFCURVE",
"388 373 CURVE",
"524 373 LINE",
"530 481 OFFCURVE",
"468 540 OFFCURVE",
"311 540 CURVE SMOOTH",
"171 540 OFFCURVE",
"81 482 OFFCURVE",
"77 361 CURVE SMOOTH",
"74 276 OFFCURVE",
"131 234 OFFCURVE",
"223 217 CURVE SMOOTH",
"293 204 LINE SMOOTH",
"349 194 OFFCURVE",
"363 178 OFFCURVE",
"362 151 CURVE SMOOTH",
"360 109 OFFCURVE",
"318 90 OFFCURVE",
"260 90 CURVE SMOOTH",
"191 90 OFFCURVE",
"161 109 OFFCURVE",
"162 157 CURVE",
"26 157 LINE",
"24 39 OFFCURVE",
"95 -15 OFFCURVE",
"256 -15 CURVE SMOOTH"
);
}
);
};
layerId = "C76CAC8E-7AD6-478C-8F7E-02FEF6F1EA84";
paths = (
{
closed = 1;
nodes = (
"391 -15 OFFCURVE",
"498 52 OFFCURVE",
"498 168 CURVE SMOOTH",
"498 253 OFFCURVE",
"447 293 OFFCURVE",
"343 312 CURVE SMOOTH",
"273 325 LINE SMOOTH",
"230 333 OFFCURVE",
"213 350 OFFCURVE",
"213 376 CURVE SMOOTH",
"213 414 OFFCURVE",
"247 435 OFFCURVE",
"304 435 CURVE SMOOTH",
"367 435 OFFCURVE",
"389 418 OFFCURVE",
"388 373 CURVE",
"524 373 LINE",
"530 481 OFFCURVE",
"468 540 OFFCURVE",
"309 540 CURVE SMOOTH",
"169 540 OFFCURVE",
"77 480 OFFCURVE",
"77 362 CURVE SMOOTH",
"77 274 OFFCURVE",
"133 234 OFFCURVE",
"223 217 CURVE SMOOTH",
"293 204 LINE SMOOTH",
"347 194 OFFCURVE",
"362 179 OFFCURVE",
"362 154 CURVE SMOOTH",
"362 110 OFFCURVE",
"319 90 OFFCURVE",
"260 90 CURVE SMOOTH",
"191 90 OFFCURVE",
"161 109 OFFCURVE",
"162 157 CURVE",
"26 157 LINE",
"24 39 OFFCURVE",
"95 -15 OFFCURVE",
"258 -15 CURVE SMOOTH"
);
}
);
width = 563;
},
{
anchors = (
{
name = bottom;
position = "{239, 0}";
},
{
name = top;
position = "{325, 525}";
}
);
associatedMasterId = "C76CAC8E-7AD6-478C-8F7E-02FEF6F1EA84";
background = {
anchors = (
{
name = bottom;
position = "{284, 0}";
},
{
name = top;
position = "{277, 525}";
}
);
paths = (
{
closed = 1;
nodes = (
"403 -15 OFFCURVE",
"506 51 OFFCURVE",
"506 171 CURVE SMOOTH",
"506 252 OFFCURVE",
"450 293 OFFCURVE",
"345 312 CURVE SMOOTH",
"272 325 LINE SMOOTH",
"229 333 OFFCURVE",
"211 350 OFFCURVE",
"211 376 CURVE SMOOTH",
"211 414 OFFCURVE",
"242 435 OFFCURVE",
"299 435 CURVE SMOOTH",
"362 435 OFFCURVE",
"384 418 OFFCURVE",
"384 373 CURVE",
"520 373 LINE",
"524 481 OFFCURVE",
"461 540 OFFCURVE",
"304 540 CURVE SMOOTH",
"164 540 OFFCURVE",
"75 482 OFFCURVE",
"75 361 CURVE SMOOTH",
"75 276 OFFCURVE",
"132 233 OFFCURVE",
"224 217 CURVE SMOOTH",
"297 204 LINE SMOOTH",
"353 194 OFFCURVE",
"370 178 OFFCURVE",
"370 151 CURVE SMOOTH",
"370 109 OFFCURVE",
"329 90 OFFCURVE",
"271 90 CURVE SMOOTH",
"202 90 OFFCURVE",
"169 109 OFFCURVE",
"169 157 CURVE",
"33 157 LINE",
"33 39 OFFCURVE",
"108 -15 OFFCURVE",
"269 -15 CURVE SMOOTH"
);
}
);
};
layerId = "88BC82E2-047E-4845-A855-EDCB4372DCA0";
name = "Aug 30 17, 11:32";
paths = (
{
closed = 1;
nodes = (
"404 -15 OFFCURVE",
"500 54 OFFCURVE",
"500 180 CURVE SMOOTH",
"500 248 OFFCURVE",
"449 295 OFFCURVE",
"347 314 CURVE SMOOTH",
"276 327 LINE SMOOTH",
"236 334 OFFCURVE",
"221 351 OFFCURVE",
"221 375 CURVE SMOOTH",
"221 413 OFFCURVE",
"251 435 OFFCURVE",
"308 435 CURVE SMOOTH",
"370 435 OFFCURVE",
"391 419 OFFCURVE",
"388 373 CURVE",
"524 373 LINE",
"537 481 OFFCURVE",
"486 540 OFFCURVE",
"327 540 CURVE SMOOTH",
"167 540 OFFCURVE",
"82 463 OFFCURVE",
"82 354 CURVE SMOOTH",
"82 279 OFFCURVE",
"134 232 OFFCURVE",
"224 216 CURVE SMOOTH",
"291 204 LINE SMOOTH",
"344 195 OFFCURVE",
"359 175 OFFCURVE",
"359 151 CURVE SMOOTH",
"359 108 OFFCURVE",
"318 90 OFFCURVE",
"263 90 CURVE SMOOTH",
"196 90 OFFCURVE",
"165 109 OFFCURVE",
"167 157 CURVE",
"31 157 LINE",
"23 40 OFFCURVE",
"76 -15 OFFCURVE",
"240 -15 CURVE SMOOTH"
);
}
);
width = 568;
},
{
anchors = (
{
name = bottom;
position = "{216, 0}";
},
{
name = top;
position = "{300, 515}";
}
);
background = {
paths = (
{
closed = 1;
nodes = (
"338 -15 OFFCURVE",
"424 44 OFFCURVE",
"424 155 CURVE SMOOTH",
"424 225 OFFCURVE",
"373 258 OFFCURVE",
"294 277 CURVE SMOOTH",
"236 291 LINE SMOOTH",
"177 305 OFFCURVE",
"151 329 OFFCURVE",
"151 373 CURVE SMOOTH",
"151 447 OFFCURVE",
"208 483 OFFCURVE",
"292 483 CURVE SMOOTH",
"367 483 OFFCURVE",
"406 459 OFFCURVE",
"406 406 CURVE SMOOTH",
"406 401 OFFCURVE",
"405 388 OFFCURVE",
"404 379 CURVE",
"458 379 LINE",
"459 387 OFFCURVE",
"460 401 OFFCURVE",
"460 408 CURVE SMOOTH",
"460 488 OFFCURVE",
"402 530 OFFCURVE",
"294 530 CURVE SMOOTH",
"182 530 OFFCURVE",
"100 473 OFFCURVE",
"100 370 CURVE SMOOTH",
"100 297 OFFCURVE",
"151 260 OFFCURVE",
"215 245 CURVE SMOOTH",
"286 228 LINE SMOOTH",
"340 215 OFFCURVE",
"372 196 OFFCURVE",
"372 150 CURVE SMOOTH",
"372 68 OFFCURVE",
"311 31 OFFCURVE",
"216 31 CURVE SMOOTH",
"136 31 OFFCURVE",
"91 57 OFFCURVE",
"91 116 CURVE SMOOTH",
"91 124 OFFCURVE",
"92 133 OFFCURVE",
"93 140 CURVE",
"39 140 LINE",
"37 129 OFFCURVE",
"36 119 OFFCURVE",
"36 109 CURVE SMOOTH",
"36 28 OFFCURVE",
"102 -15 OFFCURVE",
"218 -15 CURVE SMOOTH"
);
}
);
};
layerId = "CC363ACD-D5A5-4E19-A940-9AF36D109D9E";
paths = (
{
closed = 1;
nodes = (
"338 -15 OFFCURVE",
"424 44 OFFCURVE",
"424 155 CURVE SMOOTH",
"424 225 OFFCURVE",
"373 258 OFFCURVE",
"294 277 CURVE SMOOTH",
"236 291 LINE SMOOTH",
"177 305 OFFCURVE",
"151 329 OFFCURVE",
"151 373 CURVE SMOOTH",
"151 447 OFFCURVE",
"208 483 OFFCURVE",
"292 483 CURVE SMOOTH",
"375 483 OFFCURVE",
"404 447 OFFCURVE",
"405 379 CURVE",
"458 379 LINE",
"461 476 OFFCURVE",
"407 530 OFFCURVE",
"294 530 CURVE SMOOTH",
"182 530 OFFCURVE",
"100 473 OFFCURVE",
"100 370 CURVE SMOOTH",
"100 297 OFFCURVE",
"151 260 OFFCURVE",
"215 245 CURVE SMOOTH",
"286 228 LINE SMOOTH",
"340 215 OFFCURVE",
"372 196 OFFCURVE",
"372 150 CURVE SMOOTH",
"372 68 OFFCURVE",
"311 31 OFFCURVE",
"216 31 CURVE SMOOTH",
"130 31 OFFCURVE",
"89 59 OFFCURVE",
"91 140 CURVE",
"38 140 LINE",
"29 38 OFFCURVE",
"95 -15 OFFCURVE",
"218 -15 CURVE SMOOTH"
);
}
);
width = 505;
},
{
anchors = (
{
name = bottom;
position = "{243, 0}";
},
{
name = top;
position = "{332, 535}";
}
);
background = {
paths = (
{
closed = 1;
nodes = (
"408 -15 OFFCURVE",
"521 42 OFFCURVE",
"521 182 CURVE SMOOTH",
"521 261 OFFCURVE",
"457 311 OFFCURVE",
"363 330 CURVE SMOOTH",
"303 342 LINE SMOOTH",
"263 350 OFFCURVE",
"253 362 OFFCURVE",
"253 382 CURVE SMOOTH",
"253 406 OFFCURVE",
"277 419 OFFCURVE",
"310 419 CURVE SMOOTH",
"344 419 OFFCURVE",
"363 405 OFFCURVE",
"363 381 CURVE SMOOTH",
"363 377 OFFCURVE",
"363 374 OFFCURVE",
"363 369 CURVE",
"555 369 LINE",
"555 375 OFFCURVE",
"556 381 OFFCURVE",
"556 387 CURVE SMOOTH",
"556 486 OFFCURVE",
"475 550 OFFCURVE",
"319 550 CURVE SMOOTH",
"169 550 OFFCURVE",
"60 487 OFFCURVE",
"60 361 CURVE SMOOTH",
"60 281 OFFCURVE",
"107 226 OFFCURVE",
"212 203 CURVE SMOOTH",
"280 188 LINE SMOOTH",
"319 179 OFFCURVE",
"326 168 OFFCURVE",
"326 152 CURVE SMOOTH",
"326 129 OFFCURVE",
"304 115 OFFCURVE",
"265 115 CURVE SMOOTH",
"227 115 OFFCURVE",
"207 129 OFFCURVE",
"207 154 CURVE SMOOTH",
"207 157 OFFCURVE",
"207 160 OFFCURVE",
"207 165 CURVE",
"17 165 LINE",
"15 154 OFFCURVE",
"14 143 OFFCURVE",
"14 133 CURVE SMOOTH",
"14 34 OFFCURVE",
"95 -15 OFFCURVE",
"252 -15 CURVE SMOOTH"
);
}
);
};
layerId = "C1DA716A-5F29-4CD0-A38F-CCADF5849A80";
paths = (
{
closed = 1;
nodes = (
"408 -15 OFFCURVE",
"521 42 OFFCURVE",
"521 182 CURVE SMOOTH",
"521 261 OFFCURVE",
"457 311 OFFCURVE",
"363 330 CURVE SMOOTH",
"303 342 LINE SMOOTH",
"263 350 OFFCURVE",
"253 362 OFFCURVE",
"253 382 CURVE SMOOTH",
"253 406 OFFCURVE",
"277 419 OFFCURVE",
"310 419 CURVE SMOOTH",
"351 419 OFFCURVE",
"363 402 OFFCURVE",
"363 369 CURVE",
"555 369 LINE",
"555 496 OFFCURVE",
"470 550 OFFCURVE",
"319 550 CURVE SMOOTH",
"169 550 OFFCURVE",
"60 487 OFFCURVE",
"60 361 CURVE SMOOTH",
"60 281 OFFCURVE",
"107 226 OFFCURVE",
"212 203 CURVE SMOOTH",
"280 188 LINE SMOOTH",
"319 179 OFFCURVE",
"326 168 OFFCURVE",
"326 152 CURVE SMOOTH",
"326 129 OFFCURVE",
"304 115 OFFCURVE",
"265 115 CURVE SMOOTH",
"222 115 OFFCURVE",
"207 131 OFFCURVE",
"207 165 CURVE",
"15 165 LINE",
"2 34 OFFCURVE",
"97 -15 OFFCURVE",
"252 -15 CURVE SMOOTH"
);
}
);
width = 575;
}
);
unicode = 0073;
userData = {
RMXScaler = {
source = s;
};
};
},
{
color = 4;
glyphname = t;
lastChange = "2017-09-20 14:23:36 +0000";
layers = (
{
anchors = (
{
name = bottom;
position = "{211, 0}";
},
{
name = topright;
position = "{388, 525}";
}
);
background = {
paths = (
{
closed = 1;
nodes = (
"46 410 LINE",
"418 410 LINE",
"438 525 LINE",
"66 525 LINE"
);
},
{
closed = 1;
nodes = (
"360 105 LINE",
"349 103 OFFCURVE",
"313 100 OFFCURVE",
"294 100 CURVE SMOOTH",
"246 100 OFFCURVE",
"226 122 OFFCURVE",
"237 184 CURVE SMOOTH",
"323 670 LINE",
"206 670 LINE",
"157 525 LINE",
"93 161 LINE SMOOTH",
"72 41 OFFCURVE",
"119 -15 OFFCURVE",
"241 -15 CURVE SMOOTH",
"281 -15 OFFCURVE",
"321 -9 OFFCURVE",
"340 -5 CURVE"
);
}
);
};
layerId = "C76CAC8E-7AD6-478C-8F7E-02FEF6F1EA84";
paths = (
{
closed = 1;
nodes = (
"46 410 LINE",
"418 410 LINE",
"438 525 LINE",
"66 525 LINE"
);
},
{
closed = 1;
nodes = (
"360 106 LINE",
"346 103 OFFCURVE",
"321 100 OFFCURVE",
"297 100 CURVE SMOOTH",
"246 100 OFFCURVE",
"226 122 OFFCURVE",
"237 184 CURVE SMOOTH",
"323 670 LINE",
"206 670 LINE",
"157 525 LINE",
"97 183 LINE SMOOTH",
"73 46 OFFCURVE",
"117 -15 OFFCURVE",
"253 -15 CURVE SMOOTH",
"289 -15 OFFCURVE",
"321 -9 OFFCURVE",
"340 -5 CURVE"
);
}
);
width = 430;
},
{
anchors = (
{
name = bottom;
position = "{191, 0}";
},
{
name = topright;
position = "{338, 515}";
}
);
background = {
paths = (
{
closed = 1;
nodes = (
"49 465 LINE",
"375 465 LINE",
"384 515 LINE",
"58 515 LINE"
);
},
{
closed = 1;
nodes = (
"303 47 LINE",
"284 43 OFFCURVE",
"257 39 OFFCURVE",
"229 39 CURVE SMOOTH",
"177 39 OFFCURVE",
"152 60 OFFCURVE",
"152 107 CURVE SMOOTH",
"152 120 OFFCURVE",
"154 136 OFFCURVE",
"157 152 CURVE SMOOTH",
"247 665 LINE",
"207 665 LINE",
"166 515 LINE",
"103 159 LINE SMOOTH",
"99 139 OFFCURVE",
"97 115 OFFCURVE",
"97 101 CURVE SMOOTH",
"97 27 OFFCURVE",
"140 -10 OFFCURVE",
"225 -10 CURVE SMOOTH",
"250 -10 OFFCURVE",
"275 -6 OFFCURVE",
"295 0 CURVE"
);
}
);
};
layerId = "CC363ACD-D5A5-4E19-A940-9AF36D109D9E";
paths = (
{
closed = 1;
nodes = (
"49 465 LINE",
"375 465 LINE",
"384 515 LINE",
"58 515 LINE"
);
},
{
closed = 1;
nodes = (
"303 47 LINE",
"284 43 OFFCURVE",
"257 39 OFFCURVE",
"229 39 CURVE SMOOTH",
"158 39 OFFCURVE",
"143 78 OFFCURVE",
"157 152 CURVE SMOOTH",
"247 665 LINE",
"207 665 LINE",
"166 515 LINE",
"103 159 LINE SMOOTH",
"81 49 OFFCURVE",
"117 -10 OFFCURVE",
"225 -10 CURVE SMOOTH",
"250 -10 OFFCURVE",
"275 -6 OFFCURVE",
"295 0 CURVE"
);
}
);
width = 367;
},
{
anchors = (
{
name = bottom;
position = "{204, 0}";
},
{
name = topright;
position = "{429, 535}";
}
);
background = {
paths = (
{
closed = 1;
nodes = (
"31 381 LINE",
"422 381 LINE",
"450 535 LINE",
"58 535 LINE"
);
},
{
closed = 1;
nodes = (
"382 153 LINE",
"365 150 OFFCURVE",
"347 148 OFFCURVE",
"328 148 CURVE SMOOTH",
"294 148 OFFCURVE",
"277 158 OFFCURVE",
"277 189 CURVE SMOOTH",
"277 195 OFFCURVE",
"278 201 OFFCURVE",
"279 209 CURVE SMOOTH",
"362 675 LINE",
"184 675 LINE",
"131 535 LINE",
"72 195 LINE SMOOTH",
"68 173 OFFCURVE",
"64 139 OFFCURVE",
"64 120 CURVE SMOOTH",
"64 34 OFFCURVE",
"117 -15 OFFCURVE",
"240 -15 CURVE SMOOTH",
"282 -15 OFFCURVE",
"326 -7 OFFCURVE",
"355 1 CURVE"
);
}
);
};
layerId = "C1DA716A-5F29-4CD0-A38F-CCADF5849A80";
paths = (
{
closed = 1;
nodes = (
"31 381 LINE",
"422 381 LINE",
"450 535 LINE",
"58 535 LINE"
);
},
{
closed = 1;
nodes = (
"382 153 LINE",
"365 150 OFFCURVE",
"347 148 OFFCURVE",
"328 148 CURVE SMOOTH",
"282 148 OFFCURVE",
"274 166 OFFCURVE",
"279 209 CURVE SMOOTH",
"362 675 LINE",
"184 675 LINE",
"131 535 LINE",
"72 195 LINE SMOOTH",
"46 52 OFFCURVE",
"88 -15 OFFCURVE",
"240 -15 CURVE SMOOTH",
"282 -15 OFFCURVE",
"326 -7 OFFCURVE",
"355 1 CURVE"
);
}
);
width = 452;
}
);
unicode = 0074;
userData = {
RMXScaler = {
source = t;
};
};
},
{
color = 4;
glyphname = u;
lastChange = "2017-09-20 14:09:04 +0000";
layers = (
{
anchors = (
{
name = ogonek;
position = "{480, 0}";
},
{
name = top;
position = "{354, 525}";
}
);
background = {
paths = (
{
closed = 1;
nodes = (
"452 525 LINE",
"401 237 LINE SMOOTH",
"387 157 OFFCURVE",
"335 110 OFFCURVE",
"272 110 CURVE SMOOTH",
"217 110 OFFCURVE",
"197 144 OFFCURVE",
"211 223 CURVE SMOOTH",
"264 525 LINE",
"125 525 LINE",
"63 175 LINE SMOOTH",
"42 54 OFFCURVE",
"84 -15 OFFCURVE",
"193 -15 CURVE SMOOTH",
"280 -15 OFFCURVE",
"332 31 OFFCURVE",
"380 101 CURVE",
"359 88 LINE",
"392 88 LINE",
"376 98 LINE",
"376 0 LINE",
"499 0 LINE",
"592 525 LINE"
);
}
);
};
components = (
{
name = n;
transform = "{-1, 0, 0, -1, 639, 525}";
}
);
layerId = "C76CAC8E-7AD6-478C-8F7E-02FEF6F1EA84";
width = 639;
},
{
anchors = (
{
name = ogonek;
position = "{430, 0}";
},
{
name = top;
position = "{337, 515}";
}
);
layerId = "CC363ACD-D5A5-4E19-A940-9AF36D109D9E";
paths = (
{
closed = 1;
nodes = (
"473 515 LINE",
"424 239 LINE SMOOTH",
"404 126 OFFCURVE",
"311 37 OFFCURVE",
"226 37 CURVE SMOOTH",
"154 37 OFFCURVE",
"130 71 OFFCURVE",
"130 132 CURVE SMOOTH",
"130 150 OFFCURVE",
"133 172 OFFCURVE",
"137 197 CURVE SMOOTH",
"193 515 LINE",
"138 515 LINE",
"82 200 LINE SMOOTH",
"77 172 OFFCURVE",
"74 147 OFFCURVE",
"74 122 CURVE SMOOTH",
"74 28 OFFCURVE",
"130 -15 OFFCURVE",
"216 -15 CURVE SMOOTH",
"300 -15 OFFCURVE",
"369 43 OFFCURVE",
"414 118 CURVE",
"376 95 LINE",
"413 95 LINE",
"404 115 LINE",
"394 0 LINE",
"437 0 LINE",
"528 515 LINE"
);
}
);
width = 585;
},
{
anchors = (
{
name = ogonek;
position = "{507, 0}";
},
{
name = top;
position = "{372, 535}";
}
);
layerId = "C1DA716A-5F29-4CD0-A38F-CCADF5849A80";
paths = (
{
closed = 1;
nodes = (
"437 535 LINE",
"389 263 LINE SMOOTH",
"377 197 OFFCURVE",
"342 166 OFFCURVE",
"300 166 CURVE SMOOTH",
"269 166 OFFCURVE",
"254 183 OFFCURVE",
"254 211 CURVE SMOOTH",
"254 221 OFFCURVE",
"256 240 OFFCURVE",
"258 250 CURVE SMOOTH",
"308 535 LINE",
"103 535 LINE",
"47 216 LINE SMOOTH",
"43 192 OFFCURVE",
"39 157 OFFCURVE",
"39 132 CURVE SMOOTH",
"39 54 OFFCURVE",
"79 -15 OFFCURVE",
"184 -15 CURVE SMOOTH",
"284 -15 OFFCURVE",
"329 39 OFFCURVE",
"374 131 CURVE",
"349 108 LINE",
"378 108 LINE",
"367 130 LINE",
"367 0 LINE",
"547 0 LINE",
"642 535 LINE"
);
}
);
width = 657;
}
);
rightMetricsKey = idotless;
unicode = 0075;
userData = {
RMXScaler = {
source = u;
};
};
},
{
color = 4;
glyphname = v;
lastChange = "2017-09-20 14:09:04 +0000";
layers = (
{
background = {
paths = (
{
closed = 1;
nodes = (
"288 120 LINE",
"282 120 LINE",
"155 525 LINE",
"5 525 LINE",
"190 0 LINE",
"376 0 LINE",
"561 525 LINE",
"414 525 LINE"
);
}
);
};
layerId = "C76CAC8E-7AD6-478C-8F7E-02FEF6F1EA84";
paths = (
{
closed = 1;
nodes = (
"254 120 LINE",
"248 120 LINE",
"194 525 LINE",
"51 525 LINE",
"139 0 LINE",
"325 0 LINE",
"596 525 LINE",
"442 525 LINE"
);
}
);
width = 555;
},
{
layerId = "CC363ACD-D5A5-4E19-A940-9AF36D109D9E";
paths = (
{
closed = 1;
nodes = (
"204 63 LINE",
"199 63 LINE",
"110 515 LINE",
"52 515 LINE",
"161 0 LINE",
"221 0 LINE",
"513 515 LINE",
"452 515 LINE"
);
}
);
width = 475;
},
{
layerId = "C1DA716A-5F29-4CD0-A38F-CCADF5849A80";
paths = (
{
closed = 1;
nodes = (
"284 163 LINE",
"278 163 LINE",
"258 535 LINE",
"47 535 LINE",
"120 0 LINE",
"392 0 LINE",
"653 535 LINE",
"439 535 LINE"
);
}
);
width = 606;
}
);
unicode = 0076;
userData = {
RMXScaler = {
source = v;
};
};
},
{
color = 4;
glyphname = w;
lastChange = "2017-09-20 14:24:17 +0000";
layers = (
{
anchors = (
{
name = top;
position = "{475, 525}";
}
);
background = {
anchors = (
{
name = top;
position = "{473, 525}";
}
);
paths = (
{
closed = 1;
nodes = (
"587 130 LINE",
"581 130 LINE",
"557 525 LINE",
"395 525 LINE",
"235 130 LINE",
"229 130 LINE",
"201 525 LINE",
"51 525 LINE",
"110 0 LINE",
"293 0 LINE",
"448 385 LINE",
"452 385 LINE",
"469 0 LINE",
"651 0 LINE",
"896 525 LINE",
"751 525 LINE"
);
}
);
};
layerId = "C76CAC8E-7AD6-478C-8F7E-02FEF6F1EA84";
paths = (
{
closed = 1;
nodes = (
"582 130 LINE",
"576 130 LINE",
"548 525 LINE",
"386 525 LINE",
"236 130 LINE",
"230 130 LINE",
"196 525 LINE",
"51 525 LINE",
"116 0 LINE",
"299 0 LINE",
"444 385 LINE",
"448 385 LINE",
"469 0 LINE",
"651 0 LINE",
"892 525 LINE",
"742 525 LINE"
);
}
);
width = 851;
},
{
anchors = (
{
name = top;
position = "{447, 535}";
}
);
associatedMasterId = "C76CAC8E-7AD6-478C-8F7E-02FEF6F1EA84";
background = {
anchors = (
{
name = top;
position = "{432, 525}";
}
);
paths = (
{
closed = 1;
nodes = (
"619 130 LINE",
"613 130 LINE",
"517 525 LINE",
"354 525 LINE",
"261 130 LINE",
"255 130 LINE",
"155 525 LINE",
"5 525 LINE",
"160 0 LINE",
"343 0 LINE",
"432 385 LINE",
"436 385 LINE",
"523 0 LINE",
"706 0 LINE",
"861 525 LINE",
"716 525 LINE"
);
}
);
};
layerId = "84435905-EDCB-4949-A8A3-0E53308A2F50";
paths = (
{
closed = 1;
nodes = (
"618 165 LINE",
"613 165 LINE",
"545 535 LINE",
"349 535 LINE",
"284 165 LINE",
"279 165 LINE",
"220 535 LINE",
"0 535 LINE",
"131 0 LINE",
"385 0 LINE",
"445 344 LINE",
"449 344 LINE",
"509 0 LINE",
"763 0 LINE",
"894 535 LINE",
"674 535 LINE"
);
}
);
userData = {
RMXScaler = {
height = 100.10000;
};
};
width = 894;
},
{
anchors = (
{
name = top;
position = "{395, 515}";
}
);
associatedMasterId = "C76CAC8E-7AD6-478C-8F7E-02FEF6F1EA84";
background = {
anchors = (
{
name = top;
position = "{395, 515}";
}
);
paths = (
{
closed = 1;
nodes = (
"566 60 LINE",
"562 60 LINE",
"423 515 LINE",
"363 515 LINE",
"228 60 LINE",
"224 60 LINE",
"72 515 LINE",
"12 515 LINE",
"190 0 LINE",
"260 0 LINE",
"391 444 LINE",
"393 444 LINE",
"526 0 LINE",
"596 0 LINE",
"774 515 LINE",
"715 515 LINE"
);
}
);
};
layerId = "0A1AFE58-107D-4787-BDA0-D82FB635C3A6";
paths = (
{
closed = 1;
nodes = (
"566 60 LINE",
"562 60 LINE",
"423 515 LINE",
"363 515 LINE",
"228 60 LINE",
"224 60 LINE",
"72 515 LINE",
"12 515 LINE",
"190 0 LINE",
"260 0 LINE",
"391 444 LINE",
"393 444 LINE",
"526 0 LINE",
"596 0 LINE",
"774 515 LINE",
"715 515 LINE"
);
}
);
width = 786;
},
{
anchors = (
{
name = top;
position = "{425, 515}";
}
);
layerId = "CC363ACD-D5A5-4E19-A940-9AF36D109D9E";
paths = (
{
closed = 1;
nodes = (
"508 60 LINE",
"504 60 LINE",
"450 515 LINE",
"390 515 LINE",
"179 60 LINE",
"175 60 LINE",
"113 515 LINE",
"57 515 LINE",
"134 0 LINE",
"204 0 LINE",
"409 444 LINE",
"411 444 LINE",
"461 0 LINE",
"531 0 LINE",
"786 515 LINE",
"727 515 LINE"
);
}
);
width = 753;
},
{
anchors = (
{
name = top;
position = "{485, 535}";
}
);
layerId = "C1DA716A-5F29-4CD0-A38F-CCADF5849A80";
paths = (
{
closed = 1;
nodes = (
"588 165 LINE",
"583 165 LINE",
"580 535 LINE",
"386 535 LINE",
"255 165 LINE",
"251 165 LINE",
"262 535 LINE",
"47 535 LINE",
"78 0 LINE",
"331 0 LINE",
"450 344 LINE",
"454 344 LINE",
"452 0 LINE",
"706 0 LINE",
"926 535 LINE",
"706 535 LINE"
);
}
);
width = 879;
}
);
unicode = 0077;
userData = {
RMXScaler = {
source = w;
};
};
},
{
color = 4;
glyphname = x;
lastChange = "2017-09-20 14:09:04 +0000";
layers = (
{
background = {
paths = (
{
closed = 1;
nodes = (
"138 0 LINE",
"294 227 LINE",
"351 217 LINE",
"580 525 LINE",
"414 525 LINE",
"261 303 LINE",
"203 313 LINE",
"-27 0 LINE"
);
},
{
closed = 1;
nodes = (
"487 0 LINE",
"345 334 LINE",
"282 338 LINE",
"207 525 LINE",
"66 525 LINE",
"205 190 LINE",
"269 186 LINE",
"346 0 LINE"
);
}
);
};
layerId = "C76CAC8E-7AD6-478C-8F7E-02FEF6F1EA84";
paths = (
{
closed = 1;
nodes = (
"138 0 LINE",
"294 227 LINE",
"351 217 LINE",
"580 525 LINE",
"414 525 LINE",
"261 303 LINE",
"203 313 LINE",
"-27 0 LINE"
);
},
{
closed = 1;
nodes = (
"487 0 LINE",
"343 338 LINE",
"282 338 LINE",
"207 525 LINE",
"66 525 LINE",
"207 186 LINE",
"269 186 LINE",
"346 0 LINE"
);
}
);
width = 553;
},
{
layerId = "CC363ACD-D5A5-4E19-A940-9AF36D109D9E";
paths = (
{
closed = 1;
nodes = (
"61 0 LINE",
"246 221 LINE",
"258 221 LINE",
"502 515 LINE",
"438 515 LINE",
"232 265 LINE",
"221 265 LINE",
"-3 0 LINE"
);
},
{
closed = 1;
nodes = (
"414 0 LINE",
"261 293 LINE",
"253 293 LINE",
"151 515 LINE",
"91 515 LINE",
"234 215 LINE",
"244 215 LINE",
"355 0 LINE"
);
}
);
width = 501;
},
{
layerId = "C1DA716A-5F29-4CD0-A38F-CCADF5849A80";
paths = (
{
closed = 1;
nodes = (
"177 0 LINE",
"338 247 LINE",
"447 247 LINE",
"650 535 LINE",
"432 535 LINE",
"287 304 LINE",
"177 304 LINE",
"-41 0 LINE"
);
},
{
closed = 1;
nodes = (
"554 0 LINE",
"408 364 LINE",
"322 364 LINE",
"268 535 LINE",
"60 535 LINE",
"202 166 LINE",
"289 166 LINE",
"346 0 LINE"
);
}
);
width = 609;
}
);
unicode = 0078;
userData = {
RMXScaler = {
source = x;
};
};
},
{
color = 4;
glyphname = y;
lastChange = "2017-09-20 14:09:04 +0000";
layers = (
{
anchors = (
{
name = top;
position = "{325, 525}";
}
);
background = {
paths = (
{
closed = 1;
nodes = (
"269 118 LINE",
"264 118 LINE",
"195 525 LINE",
"51 525 LINE",
"152 0 LINE",
"251 0 LINE",
"230 43 LINE",
"178 -59 OFFCURVE",
"141 -95 OFFCURVE",
"73 -95 CURVE SMOOTH",
"50 -95 OFFCURVE",
"17 -92 OFFCURVE",
"-10 -85 CURVE",
"-30 -195 LINE",
"1 -204 OFFCURVE",
"35 -210 OFFCURVE",
"80 -210 CURVE SMOOTH",
"208 -210 OFFCURVE",
"281 -125 OFFCURVE",
"341 0 CURVE SMOOTH",
"594 525 LINE",
"444 525 LINE"
);
}
);
};
guideLines = (
{
angle = 90;
position = "{248, 393}";
}
);
layerId = "C76CAC8E-7AD6-478C-8F7E-02FEF6F1EA84";
paths = (
{
closed = 1;
nodes = (
"266 111 LINE",
"261 111 LINE",
"195 525 LINE",
"51 525 LINE",
"152 0 LINE",
"251 0 LINE",
"230 43 LINE",
"178 -59 OFFCURVE",
"141 -95 OFFCURVE",
"73 -95 CURVE SMOOTH",
"50 -95 OFFCURVE",
"17 -92 OFFCURVE",
"-10 -85 CURVE",
"-30 -195 LINE",
"1 -204 OFFCURVE",
"35 -210 OFFCURVE",
"80 -210 CURVE SMOOTH",
"208 -210 OFFCURVE",
"281 -125 OFFCURVE",
"341 0 CURVE SMOOTH",
"594 525 LINE",
"444 525 LINE"
);
}
);
width = 553;
},
{
anchors = (
{
name = top;
position = "{282, 515}";
}
);
layerId = "CC363ACD-D5A5-4E19-A940-9AF36D109D9E";
paths = (
{
closed = 1;
nodes = (
"211 53 LINE",
"206 53 LINE",
"110 515 LINE",
"52 515 LINE",
"166 0 LINE",
"193 0 LINE",
"198 32 LINE",
"122 -115 OFFCURVE",
"69 -161 OFFCURVE",
"5 -161 CURVE SMOOTH",
"-10 -161 OFFCURVE",
"-32 -158 OFFCURVE",
"-43 -155 CURVE",
"-52 -201 LINE",
"-35 -207 OFFCURVE",
"-13 -210 OFFCURVE",
"8 -210 CURVE SMOOTH",
"103 -210 OFFCURVE",
"161 -144 OFFCURVE",
"237 -2 CURVE SMOOTH",
"513 515 LINE",
"453 515 LINE"
);
}
);
width = 475;
},
{
anchors = (
{
name = top;
position = "{351, 535}";
}
);
layerId = "C1DA716A-5F29-4CD0-A38F-CCADF5849A80";
paths = (
{
closed = 1;
nodes = (
"284 163 LINE",
"278 163 LINE",
"258 535 LINE",
"47 535 LINE",
"125 0 LINE",
"254 0 LINE",
"233 25 LINE",
"201 -36 OFFCURVE",
"173 -56 OFFCURVE",
"112 -56 CURVE SMOOTH",
"84 -56 OFFCURVE",
"49 -50 OFFCURVE",
"24 -43 CURVE",
"-4 -185 LINE",
"32 -199 OFFCURVE",
"82 -210 OFFCURVE",
"132 -210 CURVE SMOOTH",
"259 -210 OFFCURVE",
"336 -147 OFFCURVE",
"400 -7 CURVE SMOOTH",
"647 535 LINE",
"429 535 LINE"
);
}
);
width = 600;
}
);
leftMetricsKey = v;
rightMetricsKey = v;
unicode = 0079;
userData = {
RMXScaler = {
source = y;
};
};
},
{
color = 4;
glyphname = z;
lastChange = "2017-09-20 14:09:04 +0000";
layers = (
{
anchors = (
{
name = top;
position = "{310, 525}";
}
);
background = {
anchors = (
{
name = top;
position = "{268, 525}";
}
);
paths = (
{
closed = 1;
nodes = (
"227 120 LINE",
"484 415 LINE",
"484 525 LINE",
"68 525 LINE",
"68 410 LINE",
"310 410 LINE",
"310 405 LINE",
"53 110 LINE",
"53 0 LINE",
"479 0 LINE",
"479 115 LINE",
"227 115 LINE"
);
}
);
};
layerId = "C76CAC8E-7AD6-478C-8F7E-02FEF6F1EA84";
paths = (
{
closed = 1;
nodes = (
"210 120 LINE",
"500 415 LINE",
"520 525 LINE",
"111 525 LINE",
"91 410 LINE",
"318 410 LINE",
"317 405 LINE",
"26 110 LINE",
"7 0 LINE",
"425 0 LINE",
"446 115 LINE",
"209 115 LINE"
);
}
);
width = 527;
},
{
anchors = (
{
name = top;
position = "{287, 515}";
}
);
layerId = "CC363ACD-D5A5-4E19-A940-9AF36D109D9E";
paths = (
{
closed = 1;
nodes = (
"87 53 LINE",
"447 470 LINE",
"454 515 LINE",
"117 515 LINE",
"108 465 LINE",
"378 465 LINE",
"378 462 LINE",
"18 45 LINE",
"11 0 LINE",
"354 0 LINE",
"362 50 LINE",
"87 50 LINE"
);
}
);
width = 466;
},
{
anchors = (
{
name = top;
position = "{336, 535}";
}
);
layerId = "C1DA716A-5F29-4CD0-A38F-CCADF5849A80";
paths = (
{
closed = 1;
nodes = (
"291 161 LINE",
"543 385 LINE",
"568 535 LINE",
"109 535 LINE",
"81 381 LINE",
"279 381 LINE",
"278 374 LINE",
"24 150 LINE",
"0 0 LINE",
"472 0 LINE",
"499 154 LINE",
"290 154 LINE"
);
}
);
width = 567;
}
);
unicode = 007A;
userData = {
RMXScaler = {
source = z;
};
};
},
{
color = 4;
glyphname = quotesingle;
lastChange = "2017-09-20 14:09:04 +0000";
layers = (
{
layerId = "C76CAC8E-7AD6-478C-8F7E-02FEF6F1EA84";
paths = (
{
closed = 1;
nodes = (
"60 520 LINE",
"159 520 LINE",
"190 760 LINE",
"60 760 LINE"
);
}
);
width = 240;
},
{
layerId = "CC363ACD-D5A5-4E19-A940-9AF36D109D9E";
paths = (
{
closed = 1;
nodes = (
"60 520 LINE",
"102 520 LINE",
"118 770 LINE",
"60 770 LINE"
);
}
);
width = 178;
},
{
layerId = "C1DA716A-5F29-4CD0-A38F-CCADF5849A80";
paths = (
{
closed = 1;
nodes = (
"60 500 LINE",
"204 500 LINE",
"235 770 LINE",
"60 770 LINE"
);
}
);
width = 265;
}
);
unicode = 0027;
},
{
color = 4;
glyphname = numbersign;
lastChange = "2017-09-20 14:09:04 +0000";
layers = (
{
background = {
paths = (
{
closed = 1;
nodes = (
"237 0 LINE",
"437 710 LINE",
"317 710 LINE",
"117 0 LINE"
);
},
{
closed = 1;
nodes = (
"545 0 LINE",
"745 710 LINE",
"625 710 LINE",
"425 0 LINE"
);
},
{
closed = 1;
nodes = (
"752 150 LINE",
"752 255 LINE",
"50 255 LINE",
"50 150 LINE"
);
},
{
closed = 1;
nodes = (
"812 455 LINE",
"812 560 LINE",
"110 560 LINE",
"110 455 LINE"
);
}
);
};
layerId = "C76CAC8E-7AD6-478C-8F7E-02FEF6F1EA84";
paths = (
{
closed = 1;
nodes = (
"237 0 LINE",
"407 710 LINE",
"287 710 LINE",
"117 0 LINE"
);
},
{
closed = 1;
nodes = (
"515 0 LINE",
"685 710 LINE",
"565 710 LINE",
"395 0 LINE"
);
},
{
closed = 1;
nodes = (
"702 150 LINE",
"702 255 LINE",
"50 255 LINE",
"50 150 LINE"
);
},
{
closed = 1;
nodes = (
"752 455 LINE",
"752 560 LINE",
"100 560 LINE",
"100 455 LINE"
);
}
);
width = 802;
},
{
layerId = "CC363ACD-D5A5-4E19-A940-9AF36D109D9E";
paths = (
{
closed = 1;
nodes = (
"202 0 LINE",
"372 710 LINE",
"315 710 LINE",
"145 0 LINE"
);
},
{
closed = 1;
nodes = (
"472 0 LINE",
"642 710 LINE",
"585 710 LINE",
"415 0 LINE"
);
},
{
closed = 1;
nodes = (
"667 170 LINE",
"667 223 LINE",
"60 223 LINE",
"60 170 LINE"
);
},
{
closed = 1;
nodes = (
"727 487 LINE",
"727 540 LINE",
"120 540 LINE",
"120 487 LINE"
);
}
);
width = 787;
},
{
layerId = "C1DA716A-5F29-4CD0-A38F-CCADF5849A80";
paths = (
{
closed = 1;
nodes = (
"267 0 LINE",
"437 710 LINE",
"267 710 LINE",
"97 0 LINE"
);
},
{
closed = 1;
nodes = (
"555 0 LINE",
"725 710 LINE",
"555 710 LINE",
"385 0 LINE"
);
},
{
closed = 1;
nodes = (
"732 140 LINE",
"732 275 LINE",
"40 275 LINE",
"40 140 LINE"
);
},
{
closed = 1;
nodes = (
"782 435 LINE",
"782 570 LINE",
"90 570 LINE",
"90 435 LINE"
);
}
);
width = 822;
}
);
unicode = 0023;
},
{
color = 4;
glyphname = ampersand;
lastChange = "2017-09-20 14:09:04 +0000";
layers = (
{
background = {
paths = (
{
closed = 1;
nodes = (
"40 405 OFFCURVE",
"40 174 CURVE SMOOTH",
"40 41 OFFCURVE",
"156 -14 OFFCURVE",
"313 -14 CURVE SMOOTH",
"565 -14 OFFCURVE",
"692 189 OFFCURVE",
"692 400 CURVE",
"565 400 LINE",
"565 231 OFFCURVE",
"480 101 OFFCURVE",
"310 101 CURVE SMOOTH",
"219 101 OFFCURVE",
"182 138 OFFCURVE",
"182 190 CURVE SMOOTH",
"182 332 OFFCURVE",
"548 335 OFFCURVE",
"548 571 CURVE SMOOTH",
"548 670 OFFCURVE",
"471 725 OFFCURVE",
"321 725 CURVE SMOOTH",
"168 725 OFFCURVE",
"92 665 OFFCURVE",
"92 562 CURVE SMOOTH",
"92 487 OFFCURVE",
"160 413 OFFCURVE",
"205 368 CURVE SMOOTH",
"581 0 LINE",
"736 0 LINE",
"342 399 LINE SMOOTH",
"285 456 OFFCURVE",
"227 506 OFFCURVE",
"227 553 CURVE SMOOTH",
"227 595 OFFCURVE",
"255 620 OFFCURVE",
"322 620 CURVE SMOOTH",
"387 620 OFFCURVE",
"423 602 OFFCURVE",
"423 559 CURVE SMOOTH",
"423 413 OFFCURVE"
);
}
);
};
layerId = "C76CAC8E-7AD6-478C-8F7E-02FEF6F1EA84";
paths = (
{
closed = 1;
nodes = (
"40 425 OFFCURVE",
"40 174 CURVE SMOOTH",
"40 41 OFFCURVE",
"156 -14 OFFCURVE",
"313 -14 CURVE SMOOTH",
"565 -14 OFFCURVE",
"692 189 OFFCURVE",
"692 400 CURVE",
"565 400 LINE",
"565 231 OFFCURVE",
"480 101 OFFCURVE",
"310 101 CURVE SMOOTH",
"219 101 OFFCURVE",
"182 138 OFFCURVE",
"182 190 CURVE SMOOTH",
"182 352 OFFCURVE",
"529 355 OFFCURVE",
"529 571 CURVE SMOOTH",
"529 670 OFFCURVE",
"452 725 OFFCURVE",
"326 725 CURVE SMOOTH",
"183 725 OFFCURVE",
"117 662 OFFCURVE",
"117 572 CURVE SMOOTH",
"117 497 OFFCURVE",
"166 434 OFFCURVE",
"210 388 CURVE SMOOTH",
"581 0 LINE",
"736 0 LINE",
"342 419 LINE SMOOTH",
"287 478 OFFCURVE",
"247 516 OFFCURVE",
"247 563 CURVE SMOOTH",
"247 595 OFFCURVE",
"270 620 OFFCURVE",
"327 620 CURVE SMOOTH",
"372 620 OFFCURVE",
"404 602 OFFCURVE",
"404 559 CURVE SMOOTH",
"404 433 OFFCURVE"
);
}
);
width = 746;
},
{
layerId = "CC363ACD-D5A5-4E19-A940-9AF36D109D9E";
paths = (
{
closed = 1;
nodes = (
"60 405 OFFCURVE",
"60 174 CURVE SMOOTH",
"60 41 OFFCURVE",
"166 -14 OFFCURVE",
"303 -14 CURVE SMOOTH",
"535 -14 OFFCURVE",
"652 139 OFFCURVE",
"652 400 CURVE",
"595 400 LINE",
"595 161 OFFCURVE",
"500 37 OFFCURVE",
"300 37 CURVE SMOOTH",
"189 37 OFFCURVE",
"119 82 OFFCURVE",
"119 174 CURVE SMOOTH",
"119 376 OFFCURVE",
"487 380 OFFCURVE",
"487 586 CURVE SMOOTH",
"487 675 OFFCURVE",
"422 725 OFFCURVE",
"317 725 CURVE SMOOTH",
"189 725 OFFCURVE",
"137 660 OFFCURVE",
"137 587 CURVE SMOOTH",
"137 502 OFFCURVE",
"201 444 OFFCURVE",
"245 398 CURVE SMOOTH",
"631 0 LINE",
"706 0 LINE",
"292 426 LINE SMOOTH",
"236 484 OFFCURVE",
"192 520 OFFCURVE",
"192 587 CURVE SMOOTH",
"192 639 OFFCURVE",
"230 679 OFFCURVE",
"317 679 CURVE SMOOTH",
"382 679 OFFCURVE",
"433 651 OFFCURVE",
"433 588 CURVE SMOOTH",
"433 407 OFFCURVE"
);
}
);
width = 736;
},
{
layerId = "C1DA716A-5F29-4CD0-A38F-CCADF5849A80";
paths = (
{
closed = 1;
nodes = (
"30 425 OFFCURVE",
"30 174 CURVE SMOOTH",
"30 41 OFFCURVE",
"146 -14 OFFCURVE",
"333 -14 CURVE SMOOTH",
"605 -14 OFFCURVE",
"742 169 OFFCURVE",
"742 400 CURVE",
"565 400 LINE",
"565 221 OFFCURVE",
"480 121 OFFCURVE",
"330 121 CURVE SMOOTH",
"259 121 OFFCURVE",
"222 143 OFFCURVE",
"222 190 CURVE SMOOTH",
"222 322 OFFCURVE",
"568 355 OFFCURVE",
"568 561 CURVE SMOOTH",
"568 660 OFFCURVE",
"491 725 OFFCURVE",
"341 725 CURVE SMOOTH",
"188 725 OFFCURVE",
"107 665 OFFCURVE",
"107 562 CURVE SMOOTH",
"107 457 OFFCURVE",
"185 393 OFFCURVE",
"230 348 CURVE SMOOTH",
"581 0 LINE",
"776 0 LINE",
"372 409 LINE SMOOTH",
"315 466 OFFCURVE",
"277 506 OFFCURVE",
"277 548 CURVE SMOOTH",
"277 583 OFFCURVE",
"300 600 OFFCURVE",
"337 600 CURVE SMOOTH",
"377 600 OFFCURVE",
"398 583 OFFCURVE",
"398 550 CURVE SMOOTH",
"398 424 OFFCURVE"
);
}
);
width = 786;
}
);
unicode = 0026;
},
{
color = 4;
glyphname = asterisk;
lastChange = "2017-09-20 14:09:04 +0000";
layers = (
{
background = {
paths = (
{
closed = 1;
nodes = (
"371 765 LINE",
"254 729 LINE",
"257 850 LINE",
"168 850 LINE",
"171 729 LINE",
"54 765 LINE",
"30 680 LINE",
"138 649 LINE",
"51 563 LINE",
"123 499 LINE",
"212 601 LINE",
"302 499 LINE",
"374 563 LINE",
"287 649 LINE",
"396 680 LINE"
);
}
);
};
layerId = "C76CAC8E-7AD6-478C-8F7E-02FEF6F1EA84";
paths = (
{
closed = 1;
nodes = (
"371 765 LINE",
"254 729 LINE",
"257 850 LINE",
"168 850 LINE",
"171 729 LINE",
"54 765 LINE",
"30 680 LINE",
"143 649 LINE",
"51 563 LINE",
"123 499 LINE",
"212 591 LINE",
"302 499 LINE",
"374 563 LINE",
"282 649 LINE",
"396 680 LINE"
);
}
);
width = 426;
},
{
layerId = "CC363ACD-D5A5-4E19-A940-9AF36D109D9E";
paths = (
{
closed = 1;
nodes = (
"327 756 LINE",
"199 724 LINE",
"199 850 LINE",
"159 850 LINE",
"159 724 LINE",
"31 756 LINE",
"20 717 LINE",
"146 682 LINE",
"46 574 LINE",
"79 545 LINE",
"179 654 LINE",
"279 545 LINE",
"312 574 LINE",
"212 682 LINE",
"338 717 LINE"
);
}
);
width = 358;
},
{
layerId = "C1DA716A-5F29-4CD0-A38F-CCADF5849A80";
paths = (
{
closed = 1;
nodes = (
"398 778 LINE",
"285 741 LINE",
"290 850 LINE",
"161 850 LINE",
"166 741 LINE",
"53 778 LINE",
"20 657 LINE",
"133 626 LINE",
"42 548 LINE",
"125 454 LINE",
"226 551 LINE",
"326 455 LINE",
"409 548 LINE",
"320 626 LINE",
"431 657 LINE"
);
}
);
width = 451;
}
);
unicode = 002A;
},
{
color = 4;
glyphname = comma;
lastChange = "2017-09-20 14:09:04 +0000";
layers = (
{
background = {
paths = (
{
closed = 1;
nodes = (
"62 141 OFFCURVE",
"30 117 OFFCURVE",
"30 66 CURVE SMOOTH",
"30 14 OFFCURVE",
"62 -10 OFFCURVE",
"111 -10 CURVE",
"99 19 LINE",
"98 -34 OFFCURVE",
"58 -111 OFFCURVE",
"26 -165 CURVE",
"118 -165 LINE",
"148 -124 OFFCURVE",
"192 -45 OFFCURVE",
"192 46 CURVE SMOOTH",
"192 97 OFFCURVE",
"170 141 OFFCURVE",
"111 141 CURVE SMOOTH"
);
}
);
};
layerId = "C76CAC8E-7AD6-478C-8F7E-02FEF6F1EA84";
paths = (
{
closed = 1;
nodes = (
"57 141 OFFCURVE",
"23 114 OFFCURVE",
"23 63 CURVE SMOOTH",
"23 11 OFFCURVE",
"62 -10 OFFCURVE",
"111 -10 CURVE",
"99 19 LINE",
"98 -34 OFFCURVE",
"58 -111 OFFCURVE",
"26 -165 CURVE",
"108 -165 LINE",
"138 -124 OFFCURVE",
"192 -38 OFFCURVE",
"192 48 CURVE SMOOTH",
"192 103 OFFCURVE",
"163 141 OFFCURVE",
"106 141 CURVE SMOOTH"
);
}
);
width = 222;
},
{
layerId = "CC363ACD-D5A5-4E19-A940-9AF36D109D9E";
paths = (
{
closed = 1;
nodes = (
"44 81 OFFCURVE",
"25 66 OFFCURVE",
"25 37 CURVE SMOOTH",
"25 2 OFFCURVE",
"53 -6 OFFCURVE",
"84 -5 CURVE",
"74 19 LINE",
"74 -44 OFFCURVE",
"38 -110 OFFCURVE",
"11 -154 CURVE",
"52 -154 LINE",
"76 -116 OFFCURVE",
"113 -55 OFFCURVE",
"113 26 CURVE SMOOTH",
"113 64 OFFCURVE",
"95 81 OFFCURVE",
"67 81 CURVE SMOOTH"
);
}
);
width = 143;
},
{
layerId = "C1DA716A-5F29-4CD0-A38F-CCADF5849A80";
paths = (
{
closed = 1;
nodes = (
"78 190 OFFCURVE",
"35 150 OFFCURVE",
"35 86 CURVE SMOOTH",
"35 22 OFFCURVE",
"81 -13 OFFCURVE",
"147 -14 CURVE",
"123 19 LINE",
"114 -34 OFFCURVE",
"80 -120 OFFCURVE",
"50 -174 CURVE",
"170 -174 LINE",
"208 -115 OFFCURVE",
"260 -21 OFFCURVE",
"260 70 CURVE SMOOTH",
"260 149 OFFCURVE",
"214 190 OFFCURVE",
"145 190 CURVE SMOOTH"
);
}
);
width = 298;
}
);
unicode = 002C;
},
{
color = 4;
glyphname = hyphen;
lastChange = "2017-09-20 14:09:04 +0000";
layers = (
{
layerId = "C76CAC8E-7AD6-478C-8F7E-02FEF6F1EA84";
paths = (
{
closed = 1;
nodes = (
"80 204 LINE",
"440 204 LINE",
"440 324 LINE",
"80 324 LINE"
);
}
);
width = 520;
},
{
layerId = "CC363ACD-D5A5-4E19-A940-9AF36D109D9E";
paths = (
{
closed = 1;
nodes = (
"80 231 LINE",
"400 231 LINE",
"400 278 LINE",
"80 278 LINE"
);
}
);
width = 480;
},
{
layerId = "C1DA716A-5F29-4CD0-A38F-CCADF5849A80";
paths = (
{
closed = 1;
nodes = (
"80 191 LINE",
"475 191 LINE",
"475 346 LINE",
"80 346 LINE"
);
}
);
width = 555;
}
);
unicode = 002D;
},
{
color = 4;
glyphname = period;
lastChange = "2017-09-20 14:09:04 +0000";
layers = (
{
layerId = "C76CAC8E-7AD6-478C-8F7E-02FEF6F1EA84";
paths = (
{
closed = 1;
nodes = (
"160 -10 OFFCURVE",
"192 14 OFFCURVE",
"192 66 CURVE SMOOTH",
"192 117 OFFCURVE",
"160 141 OFFCURVE",
"111 141 CURVE SMOOTH",
"62 141 OFFCURVE",
"30 117 OFFCURVE",
"30 66 CURVE SMOOTH",
"30 14 OFFCURVE",
"62 -10 OFFCURVE",
"111 -10 CURVE SMOOTH"
);
}
);
width = 222;
},
{
layerId = "CC363ACD-D5A5-4E19-A940-9AF36D109D9E";
paths = (
{
closed = 1;
nodes = (
"95 -5 OFFCURVE",
"113 9 OFFCURVE",
"113 38 CURVE SMOOTH",
"113 67 OFFCURVE",
"95 81 OFFCURVE",
"71 81 CURVE SMOOTH",
"47 81 OFFCURVE",
"30 67 OFFCURVE",
"30 38 CURVE SMOOTH",
"30 9 OFFCURVE",
"47 -5 OFFCURVE",
"71 -5 CURVE SMOOTH"
);
}
);
width = 143;
},
{
layerId = "C1DA716A-5F29-4CD0-A38F-CCADF5849A80";
paths = (
{
closed = 1;
nodes = (
"217 -14 OFFCURVE",
"261 24 OFFCURVE",
"261 88 CURVE SMOOTH",
"261 152 OFFCURVE",
"217 190 OFFCURVE",
"150 190 CURVE SMOOTH",
"83 190 OFFCURVE",
"40 152 OFFCURVE",
"40 88 CURVE SMOOTH",
"40 24 OFFCURVE",
"83 -14 OFFCURVE",
"150 -14 CURVE SMOOTH"
);
}
);
width = 301;
}
);
unicode = 002E;
},
{
glyphname = colon;
lastChange = "2017-09-20 14:09:04 +0000";
layers = (
{
background = {
paths = (
{
closed = 1;
nodes = (
"160 -10 OFFCURVE",
"192 14 OFFCURVE",
"192 66 CURVE SMOOTH",
"192 117 OFFCURVE",
"160 141 OFFCURVE",
"111 141 CURVE SMOOTH",
"62 141 OFFCURVE",
"30 117 OFFCURVE",
"30 66 CURVE SMOOTH",
"30 14 OFFCURVE",
"62 -10 OFFCURVE",
"111 -10 CURVE SMOOTH"
);
},
{
closed = 1;
nodes = (
"160 384 OFFCURVE",
"192 408 OFFCURVE",
"192 459 CURVE SMOOTH",
"192 511 OFFCURVE",
"160 535 OFFCURVE",
"111 535 CURVE SMOOTH",
"62 535 OFFCURVE",
"30 511 OFFCURVE",
"30 459 CURVE SMOOTH",
"30 408 OFFCURVE",
"62 384 OFFCURVE",
"111 384 CURVE SMOOTH"
);
}
);
};
components = (
{
name = period;
},
{
name = period;
transform = "{1, 0, 0, 1, 0, 399}";
}
);
layerId = "C76CAC8E-7AD6-478C-8F7E-02FEF6F1EA84";
width = 222;
},
{
components = (
{
name = period;
},
{
name = period;
transform = "{1, 0, 0, 1, 0, 438}";
}
);
layerId = "CC363ACD-D5A5-4E19-A940-9AF36D109D9E";
width = 143;
},
{
components = (
{
name = period;
},
{
name = period;
transform = "{1, 0, 0, 1, 0, 359}";
}
);
layerId = "C1DA716A-5F29-4CD0-A38F-CCADF5849A80";
width = 301;
}
);
leftMetricsKey = period;
rightMetricsKey = period;
unicode = 003A;
},
{
glyphname = semicolon;
lastChange = "2017-09-20 14:09:04 +0000";
layers = (
{
background = {
paths = (
{
closed = 1;
nodes = (
"160 384 OFFCURVE",
"192 408 OFFCURVE",
"192 459 CURVE SMOOTH",
"192 511 OFFCURVE",
"160 535 OFFCURVE",
"111 535 CURVE SMOOTH",
"62 535 OFFCURVE",
"30 511 OFFCURVE",
"30 459 CURVE SMOOTH",
"30 408 OFFCURVE",
"62 384 OFFCURVE",
"111 384 CURVE SMOOTH"
);
},
{
closed = 1;
nodes = (
"62 141 OFFCURVE",
"30 117 OFFCURVE",
"30 66 CURVE SMOOTH",
"30 14 OFFCURVE",
"62 -10 OFFCURVE",
"111 -10 CURVE",
"92 19 LINE",
"91 -34 OFFCURVE",
"58 -110 OFFCURVE",
"26 -164 CURVE",
"108 -164 LINE",
"138 -123 OFFCURVE",
"192 -45 OFFCURVE",
"192 46 CURVE SMOOTH",
"192 97 OFFCURVE",
"170 141 OFFCURVE",
"111 141 CURVE SMOOTH"
);
}
);
};
components = (
{
name = comma;
},
{
name = period;
transform = "{1, 0, 0, 1, 0, 399}";
}
);
layerId = "C76CAC8E-7AD6-478C-8F7E-02FEF6F1EA84";
width = 222;
},
{
components = (
{
name = comma;
},
{
name = period;
transform = "{1, 0, 0, 1, 0, 451}";
}
);
layerId = "CC363ACD-D5A5-4E19-A940-9AF36D109D9E";
width = 143;
},
{
components = (
{
name = comma;
},
{
name = period;
transform = "{1, 0, 0, 1, 0, 359}";
}
);
layerId = "C1DA716A-5F29-4CD0-A38F-CCADF5849A80";
width = 298;
}
);
unicode = 003B;
},
{
color = 4;
glyphname = question;
lastChange = "2017-09-20 14:09:04 +0000";
layers = (
{
components = (
{
name = period;
transform = "{1, 0, 0, 1, 154, 0}";
}
);
layerId = "C76CAC8E-7AD6-478C-8F7E-02FEF6F1EA84";
paths = (
{
closed = 1;
nodes = (
"145 518 LINE",
"154 591 OFFCURVE",
"199 630 OFFCURVE",
"274 630 CURVE SMOOTH",
"359 630 OFFCURVE",
"397 600 OFFCURVE",
"397 542 CURVE SMOOTH",
"397 411 OFFCURVE",
"202 419 OFFCURVE",
"202 224 CURVE SMOOTH",
"202 190 LINE",
"329 190 LINE",
"329 214 LINE SMOOTH",
"329 371 OFFCURVE",
"537 341 OFFCURVE",
"537 548 CURVE SMOOTH",
"537 675 OFFCURVE",
"435 745 OFFCURVE",
"288 745 CURVE SMOOTH",
"123 745 OFFCURVE",
"30 683 OFFCURVE",
"10 518 CURVE"
);
}
);
width = 547;
},
{
components = (
{
name = period;
transform = "{1, 0, 0, 1, 184, 0}";
}
);
layerId = "CC363ACD-D5A5-4E19-A940-9AF36D109D9E";
paths = (
{
closed = 1;
nodes = (
"99 528 LINE",
"118 641 OFFCURVE",
"163 696 OFFCURVE",
"278 696 CURVE SMOOTH",
"383 696 OFFCURVE",
"439 640 OFFCURVE",
"439 552 CURVE SMOOTH",
"439 371 OFFCURVE",
"224 389 OFFCURVE",
"224 194 CURVE SMOOTH",
"224 140 LINE",
"282 140 LINE",
"282 194 LINE SMOOTH",
"282 361 OFFCURVE",
"497 351 OFFCURVE",
"497 548 CURVE SMOOTH",
"497 665 OFFCURVE",
"425 745 OFFCURVE",
"278 745 CURVE SMOOTH",
"134 745 OFFCURVE",
"60 673 OFFCURVE",
"40 528 CURVE"
);
}
);
width = 527;
},
{
components = (
{
name = period;
transform = "{1, 0, 0, 1, 150, 0}";
}
);
layerId = "C1DA716A-5F29-4CD0-A38F-CCADF5849A80";
paths = (
{
closed = 1;
nodes = (
"205 512 LINE",
"214 565 OFFCURVE",
"234 595 OFFCURVE",
"299 595 CURVE SMOOTH",
"349 595 OFFCURVE",
"377 576 OFFCURVE",
"377 540 CURVE SMOOTH",
"377 449 OFFCURVE",
"212 469 OFFCURVE",
"212 294 CURVE SMOOTH",
"212 240 LINE",
"389 240 LINE",
"389 269 LINE SMOOTH",
"389 396 OFFCURVE",
"587 361 OFFCURVE",
"587 568 CURVE SMOOTH",
"587 685 OFFCURVE",
"485 745 OFFCURVE",
"303 745 CURVE SMOOTH",
"98 745 OFFCURVE",
"20 667 OFFCURVE",
"10 512 CURVE"
);
}
);
width = 597;
}
);
unicode = 003F;
},
{
color = 4;
glyphname = exclam;
lastChange = "2017-09-20 14:09:04 +0000";
layers = (
{
components = (
{
name = period;
}
);
layerId = "C76CAC8E-7AD6-478C-8F7E-02FEF6F1EA84";
paths = (
{
closed = 1;
nodes = (
"171 190 LINE",
"181 450 LINE",
"181 730 LINE",
"41 730 LINE",
"41 450 LINE",
"51 190 LINE"
);
}
);
width = 222;
},
{
components = (
{
name = period;
}
);
layerId = "CC363ACD-D5A5-4E19-A940-9AF36D109D9E";
paths = (
{
closed = 1;
nodes = (
"94 140 LINE",
"101 410 LINE",
"101 730 LINE",
"41 730 LINE",
"41 410 LINE",
"48 140 LINE"
);
}
);
width = 143;
},
{
components = (
{
name = period;
}
);
layerId = "C1DA716A-5F29-4CD0-A38F-CCADF5849A80";
paths = (
{
closed = 1;
nodes = (
"239 240 LINE",
"254 460 LINE",
"254 730 LINE",
"48 730 LINE",
"48 460 LINE",
"63 240 LINE"
);
}
);
width = 301;
}
);
unicode = 0021;
},
{
color = 4;
glyphname = at;
lastChange = "2017-09-20 14:09:04 +0000";
layers = (
{
layerId = "C76CAC8E-7AD6-478C-8F7E-02FEF6F1EA84";
paths = (
{
closed = 1;
nodes = (
"764 80 OFFCURVE",
"831 154 OFFCURVE",
"831 325 CURVE SMOOTH",
"831 543 OFFCURVE",
"686 676 OFFCURVE",
"455 676 CURVE SMOOTH",
"213 676 OFFCURVE",
"50 522 OFFCURVE",
"50 270 CURVE SMOOTH",
"50 8 OFFCURVE",
"211 -125 OFFCURVE",
"457 -125 CURVE SMOOTH",
"532 -125 OFFCURVE",
"588 -110 OFFCURVE",
"617 -98 CURVE",
"617 -19 LINE",
"579 -35 OFFCURVE",
"527 -45 OFFCURVE",
"457 -45 CURVE SMOOTH",
"277 -45 OFFCURVE",
"145 50 OFFCURVE",
"145 270 CURVE SMOOTH",
"145 480 OFFCURVE",
"263 596 OFFCURVE",
"455 596 CURVE SMOOTH",
"646 596 OFFCURVE",
"743 497 OFFCURVE",
"743 325 CURVE SMOOTH",
"743 203 OFFCURVE",
"717 160 OFFCURVE",
"664 160 CURVE SMOOTH",
"637 160 OFFCURVE",
"619 180 OFFCURVE",
"619 233 CURVE SMOOTH",
"619 452 LINE",
"525 452 LINE",
"525 390 LINE",
"521 390 LINE",
"507 426 OFFCURVE",
"469 459 OFFCURVE",
"416 459 CURVE SMOOTH",
"326 459 OFFCURVE",
"268 400 OFFCURVE",
"268 270 CURVE SMOOTH",
"268 140 OFFCURVE",
"336 80 OFFCURVE",
"421 80 CURVE SMOOTH",
"483 80 OFFCURVE",
"511 122 OFFCURVE",
"527 161 CURVE",
"533 161 LINE",
"544 120 OFFCURVE",
"579 80 OFFCURVE",
"655 80 CURVE SMOOTH"
);
},
{
closed = 1;
nodes = (
"398 163 OFFCURVE",
"370 195 OFFCURVE",
"370 270 CURVE SMOOTH",
"370 348 OFFCURVE",
"398 381 OFFCURVE",
"444 381 CURVE SMOOTH",
"498 381 OFFCURVE",
"525 353 OFFCURVE",
"525 273 CURVE SMOOTH",
"525 193 OFFCURVE",
"490 163 OFFCURVE",
"445 163 CURVE SMOOTH"
);
}
);
width = 881;
},
{
layerId = "CC363ACD-D5A5-4E19-A940-9AF36D109D9E";
paths = (
{
closed = 1;
nodes = (
"777 80 OFFCURVE",
"836 172 OFFCURVE",
"836 327 CURVE SMOOTH",
"836 545 OFFCURVE",
"685 671 OFFCURVE",
"460 671 CURVE SMOOTH",
"238 671 OFFCURVE",
"80 524 OFFCURVE",
"80 285 CURVE SMOOTH",
"80 17 OFFCURVE",
"241 -107 OFFCURVE",
"458 -107 CURVE SMOOTH",
"531 -107 OFFCURVE",
"594 -96 OFFCURVE",
"632 -82 CURVE",
"632 -37 LINE",
"590 -55 OFFCURVE",
"534 -63 OFFCURVE",
"458 -63 CURVE SMOOTH",
"269 -63 OFFCURVE",
"130 46 OFFCURVE",
"130 285 CURVE SMOOTH",
"130 503 OFFCURVE",
"260 628 OFFCURVE",
"460 628 CURVE SMOOTH",
"663 628 OFFCURVE",
"788 511 OFFCURVE",
"788 325 CURVE SMOOTH",
"788 188 OFFCURVE",
"744 125 OFFCURVE",
"674 125 CURVE SMOOTH",
"627 125 OFFCURVE",
"602 150 OFFCURVE",
"602 223 CURVE SMOOTH",
"602 452 LINE",
"555 452 LINE",
"555 390 LINE",
"551 390 LINE",
"536 418 OFFCURVE",
"509 459 OFFCURVE",
"431 459 CURVE SMOOTH",
"342 459 OFFCURVE",
"283 390 OFFCURVE",
"283 273 CURVE SMOOTH",
"283 156 OFFCURVE",
"341 80 OFFCURVE",
"431 80 CURVE SMOOTH",
"513 80 OFFCURVE",
"543 127 OFFCURVE",
"557 158 CURVE",
"563 158 LINE",
"572 125 OFFCURVE",
"594 80 OFFCURVE",
"670 80 CURVE SMOOTH"
);
},
{
closed = 1;
nodes = (
"372 125 OFFCURVE",
"333 177 OFFCURVE",
"333 273 CURVE SMOOTH",
"333 369 OFFCURVE",
"372 414 OFFCURVE",
"437 414 CURVE SMOOTH",
"517 414 OFFCURVE",
"555 358 OFFCURVE",
"555 273 CURVE SMOOTH",
"555 170 OFFCURVE",
"507 125 OFFCURVE",
"437 125 CURVE SMOOTH"
);
}
);
width = 916;
},
{
layerId = "C1DA716A-5F29-4CD0-A38F-CCADF5849A80";
paths = (
{
closed = 1;
nodes = (
"779 80 OFFCURVE",
"852 154 OFFCURVE",
"852 315 CURVE SMOOTH",
"852 553 OFFCURVE",
"696 676 OFFCURVE",
"455 676 CURVE SMOOTH",
"203 676 OFFCURVE",
"40 522 OFFCURVE",
"40 270 CURVE SMOOTH",
"40 18 OFFCURVE",
"201 -125 OFFCURVE",
"467 -125 CURVE SMOOTH",
"542 -125 OFFCURVE",
"598 -110 OFFCURVE",
"627 -98 CURVE",
"627 1 LINE",
"589 -15 OFFCURVE",
"537 -25 OFFCURVE",
"467 -25 CURVE SMOOTH",
"287 -25 OFFCURVE",
"155 70 OFFCURVE",
"155 270 CURVE SMOOTH",
"155 470 OFFCURVE",
"273 576 OFFCURVE",
"455 576 CURVE SMOOTH",
"626 576 OFFCURVE",
"743 501 OFFCURVE",
"743 315 CURVE SMOOTH",
"743 233 OFFCURVE",
"725 180 OFFCURVE",
"682 180 CURVE SMOOTH",
"650 180 OFFCURVE",
"639 200 OFFCURVE",
"639 253 CURVE SMOOTH",
"639 452 LINE",
"515 452 LINE",
"515 390 LINE",
"511 390 LINE",
"497 426 OFFCURVE",
"459 459 OFFCURVE",
"406 459 CURVE SMOOTH",
"316 459 OFFCURVE",
"255 400 OFFCURVE",
"255 270 CURVE SMOOTH",
"255 140 OFFCURVE",
"326 80 OFFCURVE",
"411 80 CURVE SMOOTH",
"473 80 OFFCURVE",
"501 122 OFFCURVE",
"517 161 CURVE",
"523 161 LINE",
"540 120 OFFCURVE",
"569 80 OFFCURVE",
"665 80 CURVE SMOOTH"
);
},
{
closed = 1;
nodes = (
"419 190 OFFCURVE",
"398 214 OFFCURVE",
"398 270 CURVE SMOOTH",
"398 329 OFFCURVE",
"419 354 OFFCURVE",
"454 354 CURVE SMOOTH",
"494 354 OFFCURVE",
"515 333 OFFCURVE",
"515 273 CURVE SMOOTH",
"515 213 OFFCURVE",
"488 190 OFFCURVE",
"455 190 CURVE SMOOTH"
);
}
);
width = 892;
}
);
unicode = 0040;
},
{
color = 4;
glyphname = parenleft;
lastChange = "2017-09-20 14:09:04 +0000";
layers = (
{
background = {
paths = (
{
closed = 1;
nodes = (
"50 830 LINE",
"50 -195 LINE",
"190 -195 LINE",
"190 830 LINE"
);
},
{
closed = 1;
nodes = (
"50 -195 LINE",
"303 -195 LINE",
"303 -105 LINE",
"50 -105 LINE"
);
},
{
closed = 1;
nodes = (
"50 830 LINE",
"50 740 LINE",
"303 740 LINE",
"303 830 LINE"
);
},
{
closed = 1;
nodes = (
"105 705 OFFCURVE",
"50 509 OFFCURVE",
"50 317 CURVE SMOOTH",
"50 125 OFFCURVE",
"105 -72 OFFCURVE",
"218 -222 CURVE",
"312 -169 LINE",
"245 -43 OFFCURVE",
"200 130 OFFCURVE",
"198 317 CURVE SMOOTH",
"196 504 OFFCURVE",
"245 677 OFFCURVE",
"312 802 CURVE",
"218 855 LINE"
);
}
);
};
layerId = "C76CAC8E-7AD6-478C-8F7E-02FEF6F1EA84";
paths = (
{
closed = 1;
nodes = (
"110 680 OFFCURVE",
"50 519 OFFCURVE",
"50 317 CURVE SMOOTH",
"50 115 OFFCURVE",
"110 -45 OFFCURVE",
"198 -195 CURVE",
"332 -195 LINE",
"265 -69 OFFCURVE",
"200 100 OFFCURVE",
"198 317 CURVE SMOOTH",
"196 534 OFFCURVE",
"265 705 OFFCURVE",
"332 830 CURVE",
"198 830 LINE"
);
}
);
width = 322;
},
{
layerId = "CC363ACD-D5A5-4E19-A940-9AF36D109D9E";
paths = (
{
closed = 1;
nodes = (
"134 650 OFFCURVE",
"91 496 OFFCURVE",
"90 311 CURVE SMOOTH",
"89 127 OFFCURVE",
"134 -32 OFFCURVE",
"217 -195 CURVE",
"274 -195 LINE",
"216 -77 OFFCURVE",
"153 89 OFFCURVE",
"150 311 CURVE SMOOTH",
"147 534 OFFCURVE",
"216 697 OFFCURVE",
"274 813 CURVE",
"217 813 LINE"
);
}
);
width = 284;
},
{
layerId = "C1DA716A-5F29-4CD0-A38F-CCADF5849A80";
paths = (
{
closed = 1;
nodes = (
"125 710 OFFCURVE",
"49 552 OFFCURVE",
"50 321 CURVE SMOOTH",
"51 91 OFFCURVE",
"125 -62 OFFCURVE",
"216 -195 CURVE",
"407 -195 LINE",
"333 -63 OFFCURVE",
"266 109 OFFCURVE",
"265 321 CURVE SMOOTH",
"264 534 OFFCURVE",
"333 711 OFFCURVE",
"407 843 CURVE",
"216 843 LINE"
);
}
);
width = 397;
}
);
unicode = 0028;
},
{
glyphname = parenright;
lastChange = "2017-09-20 14:09:04 +0000";
layers = (
{
background = {
paths = (
{
closed = 1;
nodes = (
"217 705 OFFCURVE",
"104 855 CURVE",
"10 802 LINE",
"77 677 OFFCURVE",
"126 504 OFFCURVE",
"124 317 CURVE SMOOTH",
"122 130 OFFCURVE",
"77 -43 OFFCURVE",
"10 -169 CURVE",
"104 -222 LINE",
"217 -72 OFFCURVE",
"272 125 OFFCURVE",
"272 317 CURVE SMOOTH",
"272 509 OFFCURVE"
);
}
);
};
components = (
{
name = parenleft;
transform = "{-1, 0, 0, 1, 322, 0}";
}
);
layerId = "C76CAC8E-7AD6-478C-8F7E-02FEF6F1EA84";
width = 322;
},
{
components = (
{
name = parenleft;
transform = "{-1, 0, 0, 1, 284, 0}";
}
);
layerId = "CC363ACD-D5A5-4E19-A940-9AF36D109D9E";
width = 284;
},
{
components = (
{
name = parenleft;
transform = "{-1, 0, 0, 1, 397, 0}";
}
);
layerId = "C1DA716A-5F29-4CD0-A38F-CCADF5849A80";
width = 397;
}
);
unicode = 0029;
},
{
color = 4;
glyphname = bracketleft;
lastChange = "2017-09-20 14:09:04 +0000";
layers = (
{
layerId = "C76CAC8E-7AD6-478C-8F7E-02FEF6F1EA84";
paths = (
{
closed = 1;
nodes = (
"50 830 LINE",
"50 -195 LINE",
"190 -195 LINE",
"190 830 LINE"
);
},
{
closed = 1;
nodes = (
"50 -195 LINE",
"303 -195 LINE",
"303 -105 LINE",
"50 -105 LINE"
);
},
{
closed = 1;
nodes = (
"50 830 LINE",
"50 740 LINE",
"303 740 LINE",
"303 830 LINE"
);
}
);
width = 313;
},
{
layerId = "CC363ACD-D5A5-4E19-A940-9AF36D109D9E";
paths = (
{
closed = 1;
nodes = (
"100 813 LINE",
"100 -195 LINE",
"158 -195 LINE",
"158 813 LINE"
);
},
{
closed = 1;
nodes = (
"100 -195 LINE",
"273 -195 LINE",
"273 -148 LINE",
"100 -148 LINE"
);
},
{
closed = 1;
nodes = (
"100 813 LINE",
"100 766 LINE",
"273 766 LINE",
"273 813 LINE"
);
}
);
width = 283;
},
{
layerId = "C1DA716A-5F29-4CD0-A38F-CCADF5849A80";
paths = (
{
closed = 1;
nodes = (
"50 843 LINE",
"50 -195 LINE",
"254 -195 LINE",
"254 843 LINE"
);
},
{
closed = 1;
nodes = (
"50 -195 LINE",
"365 -195 LINE",
"365 -66 LINE",
"50 -66 LINE"
);
},
{
closed = 1;
nodes = (
"50 843 LINE",
"50 714 LINE",
"365 714 LINE",
"365 843 LINE"
);
}
);
width = 375;
}
);
unicode = 005B;
},
{
glyphname = bracketright;
lastChange = "2017-09-20 14:09:04 +0000";
layers = (
{
background = {
paths = (
{
closed = 1;
nodes = (
"123 -195 LINE",
"263 -195 LINE",
"263 830 LINE",
"123 830 LINE"
);
},
{
closed = 1;
nodes = (
"10 -105 LINE",
"10 -195 LINE",
"263 -195 LINE",
"263 -105 LINE"
);
},
{
closed = 1;
nodes = (
"10 740 LINE",
"263 740 LINE",
"263 830 LINE",
"10 830 LINE"
);
}
);
};
components = (
{
name = bracketleft;
transform = "{-1, 0, 0, 1, 313, 0}";
}
);
layerId = "C76CAC8E-7AD6-478C-8F7E-02FEF6F1EA84";
width = 313;
},
{
components = (
{
name = bracketleft;
transform = "{-1, 0, 0, 1, 283, 0}";
}
);
layerId = "CC363ACD-D5A5-4E19-A940-9AF36D109D9E";
width = 283;
},
{
components = (
{
name = bracketleft;
transform = "{-1, 0, 0, 1, 375, 0}";
}
);
layerId = "C1DA716A-5F29-4CD0-A38F-CCADF5849A80";
width = 375;
}
);
unicode = 005D;
},
{
color = 4;
glyphname = braceleft;
lastChange = "2017-09-20 14:09:04 +0000";
layers = (
{
background = {
paths = (
{
closed = 1;
nodes = (
"20 292 LINE",
"93 275 OFFCURVE",
"121 227 OFFCURVE",
"121 156 CURVE SMOOTH",
"121 93 OFFCURVE",
"95 5 OFFCURVE",
"95 -45 CURVE SMOOTH",
"95 -191 OFFCURVE",
"163 -210 OFFCURVE",
"311 -210 CURVE",
"318 -135 LINE",
"253 -135 OFFCURVE",
"229 -123 OFFCURVE",
"229 -46 CURVE SMOOTH",
"229 13 OFFCURVE",
"245 101 OFFCURVE",
"245 156 CURVE SMOOTH",
"245 242 OFFCURVE",
"204 306 OFFCURVE",
"116 324 CURVE",
"116 317 LINE",
"204 335 OFFCURVE",
"245 399 OFFCURVE",
"245 485 CURVE SMOOTH",
"245 541 OFFCURVE",
"230 622 OFFCURVE",
"229 681 CURVE SMOOTH",
"228 758 OFFCURVE",
"253 770 OFFCURVE",
"318 770 CURVE",
"311 845 LINE",
"163 845 OFFCURVE",
"95 836 OFFCURVE",
"95 690 CURVE SMOOTH",
"95 639 OFFCURVE",
"121 549 OFFCURVE",
"121 485 CURVE SMOOTH",
"121 414 OFFCURVE",
"93 367 OFFCURVE",
"20 350 CURVE"
);
}
);
};
layerId = "C76CAC8E-7AD6-478C-8F7E-02FEF6F1EA84";
paths = (
{
closed = 1;
nodes = (
"20 289 LINE",
"93 272 OFFCURVE",
"121 244 OFFCURVE",
"121 173 CURVE SMOOTH",
"121 110 OFFCURVE",
"95 5 OFFCURVE",
"95 -65 CURVE SMOOTH",
"95 -191 OFFCURVE",
"170 -210 OFFCURVE",
"318 -210 CURVE",
"318 -135 LINE",
"259 -135 OFFCURVE",
"235 -123 OFFCURVE",
"235 -46 CURVE SMOOTH",
"235 13 OFFCURVE",
"256 108 OFFCURVE",
"256 173 CURVE SMOOTH",
"256 259 OFFCURVE",
"210 303 OFFCURVE",
"116 321 CURVE",
"116 314 LINE",
"210 332 OFFCURVE",
"256 376 OFFCURVE",
"256 462 CURVE SMOOTH",
"256 518 OFFCURVE",
"236 622 OFFCURVE",
"235 681 CURVE SMOOTH",
"234 758 OFFCURVE",
"259 770 OFFCURVE",
"318 770 CURVE",
"318 845 LINE",
"170 845 OFFCURVE",
"95 836 OFFCURVE",
"95 710 CURVE SMOOTH",
"95 639 OFFCURVE",
"121 526 OFFCURVE",
"121 462 CURVE SMOOTH",
"121 391 OFFCURVE",
"93 364 OFFCURVE",
"20 347 CURVE"
);
}
);
width = 348;
},
{
layerId = "CC363ACD-D5A5-4E19-A940-9AF36D109D9E";
paths = (
{
closed = 1;
nodes = (
"40 287 LINE",
"120 277 OFFCURVE",
"140 242 OFFCURVE",
"140 177 CURVE SMOOTH",
"140 107 OFFCURVE",
"113 3 OFFCURVE",
"113 -82 CURVE SMOOTH",
"113 -167 OFFCURVE",
"150 -200 OFFCURVE",
"254 -200 CURVE",
"254 -156 LINE",
"190 -156 OFFCURVE",
"169 -140 OFFCURVE",
"169 -82 CURVE SMOOTH",
"169 -9 OFFCURVE",
"196 103 OFFCURVE",
"196 185 CURVE SMOOTH",
"196 265 OFFCURVE",
"145 303 OFFCURVE",
"70 309 CURVE",
"70 299 LINE",
"145 304 OFFCURVE",
"196 345 OFFCURVE",
"196 425 CURVE SMOOTH",
"196 493 OFFCURVE",
"169 627 OFFCURVE",
"169 700 CURVE SMOOTH",
"169 758 OFFCURVE",
"190 774 OFFCURVE",
"254 774 CURVE",
"254 818 LINE",
"150 818 OFFCURVE",
"113 785 OFFCURVE",
"113 700 CURVE SMOOTH",
"113 613 OFFCURVE",
"140 511 OFFCURVE",
"140 433 CURVE SMOOTH",
"140 368 OFFCURVE",
"120 333 OFFCURVE",
"40 323 CURVE"
);
}
);
width = 284;
},
{
layerId = "C1DA716A-5F29-4CD0-A38F-CCADF5849A80";
paths = (
{
closed = 1;
nodes = (
"20 278 LINE",
"80 267 OFFCURVE",
"123 230 OFFCURVE",
"123 155 CURVE SMOOTH",
"123 97 OFFCURVE",
"97 15 OFFCURVE",
"97 -44 CURVE SMOOTH",
"97 -201 OFFCURVE",
"212 -210 OFFCURVE",
"386 -210 CURVE",
"386 -90 LINE",
"332 -90 OFFCURVE",
"305 -74 OFFCURVE",
"305 -10 CURVE SMOOTH",
"305 37 OFFCURVE",
"322 120 OFFCURVE",
"322 172 CURVE SMOOTH",
"322 263 OFFCURVE",
"275 306 OFFCURVE",
"182 326 CURVE",
"182 330 LINE",
"275 349 OFFCURVE",
"322 392 OFFCURVE",
"322 484 CURVE SMOOTH",
"322 530 OFFCURVE",
"307 611 OFFCURVE",
"305 658 CURVE SMOOTH",
"302 722 OFFCURVE",
"332 738 OFFCURVE",
"386 738 CURVE",
"386 858 LINE",
"204 858 OFFCURVE",
"97 851 OFFCURVE",
"97 694 CURVE SMOOTH",
"97 635 OFFCURVE",
"123 555 OFFCURVE",
"123 501 CURVE SMOOTH",
"123 426 OFFCURVE",
"80 389 OFFCURVE",
"20 378 CURVE"
);
}
);
width = 416;
}
);
unicode = 007B;
},
{
glyphname = braceright;
lastChange = "2017-09-20 14:09:04 +0000";
layers = (
{
background = {
paths = (
{
closed = 1;
nodes = (
"255 364 OFFCURVE",
"227 391 OFFCURVE",
"227 462 CURVE SMOOTH",
"227 526 OFFCURVE",
"253 639 OFFCURVE",
"253 710 CURVE SMOOTH",
"253 836 OFFCURVE",
"178 845 OFFCURVE",
"30 845 CURVE",
"30 770 LINE",
"89 770 OFFCURVE",
"114 758 OFFCURVE",
"113 681 CURVE SMOOTH",
"112 622 OFFCURVE",
"92 518 OFFCURVE",
"92 462 CURVE SMOOTH",
"92 376 OFFCURVE",
"138 332 OFFCURVE",
"232 314 CURVE",
"232 321 LINE",
"138 303 OFFCURVE",
"92 259 OFFCURVE",
"92 173 CURVE SMOOTH",
"92 108 OFFCURVE",
"113 13 OFFCURVE",
"113 -46 CURVE SMOOTH",
"113 -123 OFFCURVE",
"89 -135 OFFCURVE",
"30 -135 CURVE",
"30 -210 LINE",
"178 -210 OFFCURVE",
"253 -191 OFFCURVE",
"253 -65 CURVE SMOOTH",
"253 5 OFFCURVE",
"227 110 OFFCURVE",
"227 173 CURVE SMOOTH",
"227 244 OFFCURVE",
"255 272 OFFCURVE",
"328 289 CURVE",
"328 347 LINE"
);
}
);
};
components = (
{
name = braceleft;
transform = "{-1, 0, 0, 1, 348, 0}";
}
);
layerId = "C76CAC8E-7AD6-478C-8F7E-02FEF6F1EA84";
width = 348;
},
{
components = (
{
name = braceleft;
transform = "{-1, 0, 0, 1, 284, 0}";
}
);
layerId = "CC363ACD-D5A5-4E19-A940-9AF36D109D9E";
width = 284;
},
{
components = (
{
name = braceleft;
transform = "{-1, 0, 0, 1, 416, 0}";
}
);
layerId = "C1DA716A-5F29-4CD0-A38F-CCADF5849A80";
width = 416;
}
);
unicode = 007D;
},
{
color = 4;
glyphname = backslash;
lastChange = "2017-09-20 14:09:04 +0000";
layers = (
{
layerId = "C76CAC8E-7AD6-478C-8F7E-02FEF6F1EA84";
paths = (
{
closed = 1;
nodes = (
"145 810 LINE",
"10 810 LINE",
"260 -100 LINE",
"395 -100 LINE"
);
}
);
width = 405;
},
{
layerId = "CC363ACD-D5A5-4E19-A940-9AF36D109D9E";
paths = (
{
closed = 1;
nodes = (
"65 810 LINE",
"10 810 LINE",
"260 -100 LINE",
"315 -100 LINE"
);
}
);
width = 325;
},
{
layerId = "C1DA716A-5F29-4CD0-A38F-CCADF5849A80";
paths = (
{
closed = 1;
nodes = (
"210 810 LINE",
"10 810 LINE",
"260 -100 LINE",
"460 -100 LINE"
);
}
);
width = 470;
}
);
unicode = 005C;
},
{
color = 4;
glyphname = slash;
lastChange = "2017-09-20 14:09:04 +0000";
layers = (
{
layerId = "C76CAC8E-7AD6-478C-8F7E-02FEF6F1EA84";
paths = (
{
closed = 1;
nodes = (
"145 -100 LINE",
"395 810 LINE",
"260 810 LINE",
"10 -100 LINE"
);
}
);
width = 405;
},
{
layerId = "CC363ACD-D5A5-4E19-A940-9AF36D109D9E";
paths = (
{
closed = 1;
nodes = (
"65 -100 LINE",
"315 810 LINE",
"260 810 LINE",
"10 -100 LINE"
);
}
);
width = 325;
},
{
layerId = "C1DA716A-5F29-4CD0-A38F-CCADF5849A80";
paths = (
{
closed = 1;
nodes = (
"210 -100 LINE",
"460 810 LINE",
"260 810 LINE",
"10 -100 LINE"
);
}
);
width = 470;
}
);
unicode = 002F;
},
{
color = 4;
glyphname = bar;
lastChange = "2017-09-20 14:09:04 +0000";
layers = (
{
background = {
paths = (
{
closed = 1;
nodes = (
"268 -100 LINE",
"268 810 LINE",
"130 810 LINE",
"130 -100 LINE"
);
}
);
};
layerId = "C76CAC8E-7AD6-478C-8F7E-02FEF6F1EA84";
paths = (
{
closed = 1;
nodes = (
"268 -150 LINE",
"268 860 LINE",
"130 860 LINE",
"130 -150 LINE"
);
}
);
width = 398;
},
{
layerId = "CC363ACD-D5A5-4E19-A940-9AF36D109D9E";
paths = (
{
closed = 1;
nodes = (
"207 -150 LINE",
"207 860 LINE",
"150 860 LINE",
"150 -150 LINE"
);
}
);
width = 357;
},
{
layerId = "C1DA716A-5F29-4CD0-A38F-CCADF5849A80";
paths = (
{
closed = 1;
nodes = (
"305 -150 LINE",
"305 860 LINE",
"120 860 LINE",
"120 -150 LINE"
);
}
);
width = 425;
}
);
unicode = 007C;
},
{
color = 4;
glyphname = asciicircum;
lastChange = "2017-09-20 14:09:04 +0000";
layers = (
{
background = {
paths = (
{
closed = 1;
nodes = (
"459 480 LINE",
"312 750 LINE",
"167 750 LINE",
"20 480 LINE",
"145 480 LINE",
"235 629 LINE",
"245 629 LINE",
"334 480 LINE"
);
}
);
};
layerId = "C76CAC8E-7AD6-478C-8F7E-02FEF6F1EA84";
paths = (
{
closed = 1;
nodes = (
"459 480 LINE",
"312 750 LINE",
"167 750 LINE",
"20 480 LINE",
"145 480 LINE",
"235 629 LINE",
"245 629 LINE",
"334 480 LINE"
);
}
);
width = 479;
},
{
layerId = "CC363ACD-D5A5-4E19-A940-9AF36D109D9E";
paths = (
{
closed = 1;
nodes = (
"369 502 LINE",
"219 750 LINE",
"171 750 LINE",
"20 502 LINE",
"77 502 LINE",
"193 689 LINE",
"197 689 LINE",
"312 502 LINE"
);
}
);
width = 389;
},
{
layerId = "C1DA716A-5F29-4CD0-A38F-CCADF5849A80";
paths = (
{
closed = 1;
nodes = (
"492 480 LINE",
"355 750 LINE",
"157 750 LINE",
"20 480 LINE",
"174 480 LINE",
"251 609 LINE",
"261 609 LINE",
"338 480 LINE"
);
}
);
width = 512;
}
);
unicode = 005E;
},
{
color = 4;
glyphname = underscore;
lastChange = "2017-09-20 14:09:04 +0000";
layers = (
{
layerId = "C76CAC8E-7AD6-478C-8F7E-02FEF6F1EA84";
paths = (
{
closed = 1;
nodes = (
"80 -120 LINE",
"540 -120 LINE",
"540 0 LINE",
"80 0 LINE"
);
}
);
width = 620;
},
{
layerId = "CC363ACD-D5A5-4E19-A940-9AF36D109D9E";
paths = (
{
closed = 1;
nodes = (
"80 -47 LINE",
"500 -47 LINE",
"500 0 LINE",
"80 0 LINE"
);
}
);
width = 580;
},
{
layerId = "C1DA716A-5F29-4CD0-A38F-CCADF5849A80";
paths = (
{
closed = 1;
nodes = (
"80 -155 LINE",
"575 -155 LINE",
"575 0 LINE",
"80 0 LINE"
);
}
);
width = 655;
}
);
leftMetricsKey = hyphen;
rightMetricsKey = hyphen;
unicode = 005F;
},
{
color = 4;
glyphname = asciitilde;
lastChange = "2017-09-20 14:09:04 +0000";
layers = (
{
background = {
paths = (
{
closed = 1;
nodes = (
"70 302 LINE",
"560 302 LINE",
"560 417 LINE",
"70 417 LINE"
);
}
);
};
layerId = "C76CAC8E-7AD6-478C-8F7E-02FEF6F1EA84";
paths = (
{
closed = 1;
nodes = (
"554 265 OFFCURVE",
"603 344 OFFCURVE",
"603 444 CURVE",
"501 444 LINE",
"496 410 OFFCURVE",
"484 378 OFFCURVE",
"447 378 CURVE SMOOTH",
"381 378 OFFCURVE",
"341 455 OFFCURVE",
"225 455 CURVE SMOOTH",
"119 455 OFFCURVE",
"70 376 OFFCURVE",
"70 275 CURVE",
"172 275 LINE",
"177 311 OFFCURVE",
"190 342 OFFCURVE",
"226 342 CURVE SMOOTH",
"293 342 OFFCURVE",
"336 265 OFFCURVE",
"449 265 CURVE SMOOTH"
);
}
);
width = 673;
},
{
layerId = "CC363ACD-D5A5-4E19-A940-9AF36D109D9E";
paths = (
{
closed = 1;
nodes = (
"508 286 OFFCURVE",
"540 343 OFFCURVE",
"553 423 CURVE",
"506 423 LINE",
"496 369 OFFCURVE",
"479 331 OFFCURVE",
"432 331 CURVE SMOOTH",
"347 331 OFFCURVE",
"320 423 OFFCURVE",
"211 423 CURVE SMOOTH",
"135 423 OFFCURVE",
"93 366 OFFCURVE",
"80 286 CURVE",
"127 286 LINE",
"137 340 OFFCURVE",
"165 378 OFFCURVE",
"211 378 CURVE SMOOTH",
"296 378 OFFCURVE",
"323 286 OFFCURVE",
"432 286 CURVE SMOOTH"
);
}
);
width = 633;
},
{
layerId = "C1DA716A-5F29-4CD0-A38F-CCADF5849A80";
paths = (
{
closed = 1;
nodes = (
"584 245 OFFCURVE",
"633 351 OFFCURVE",
"633 471 CURVE",
"496 471 LINE",
"491 437 OFFCURVE",
"484 405 OFFCURVE",
"447 405 CURVE SMOOTH",
"381 405 OFFCURVE",
"341 477 OFFCURVE",
"225 477 CURVE SMOOTH",
"109 477 OFFCURVE",
"60 370 OFFCURVE",
"60 250 CURVE",
"197 250 LINE",
"202 286 OFFCURVE",
"210 317 OFFCURVE",
"246 317 CURVE SMOOTH",
"313 317 OFFCURVE",
"356 245 OFFCURVE",
"469 245 CURVE SMOOTH"
);
}
);
width = 693;
}
);
unicode = 007E;
},
{
color = 4;
glyphname = guilsinglleft;
lastChange = "2017-09-20 14:09:04 +0000";
layers = (
{
background = {
paths = (
{
closed = 1;
nodes = (
"211 263 LINE",
"211 273 LINE",
"399 393 LINE",
"399 538 LINE",
"60 341 LINE",
"60 196 LINE",
"399 -1 LINE",
"399 144 LINE"
);
}
);
};
layerId = "C76CAC8E-7AD6-478C-8F7E-02FEF6F1EA84";
paths = (
{
closed = 1;
nodes = (
"221 257 LINE",
"221 267 LINE",
"409 392 LINE",
"409 532 LINE",
"70 325 LINE",
"70 200 LINE",
"409 -7 LINE",
"409 133 LINE"
);
}
);
width = 489;
},
{
layerId = "CC363ACD-D5A5-4E19-A940-9AF36D109D9E";
paths = (
{
closed = 1;
nodes = (
"133 256 LINE",
"133 260 LINE",
"369 433 LINE",
"369 488 LINE",
"70 281 LINE",
"70 236 LINE",
"369 29 LINE",
"369 84 LINE"
);
}
);
width = 449;
},
{
layerId = "C1DA716A-5F29-4CD0-A38F-CCADF5849A80";
paths = (
{
closed = 1;
nodes = (
"281 262 LINE",
"281 272 LINE",
"429 372 LINE",
"429 557 LINE",
"70 360 LINE",
"70 175 LINE",
"429 -22 LINE",
"429 163 LINE"
);
}
);
width = 509;
}
);
unicode = 2039;
},
{
color = 4;
glyphname = guillemetleft;
lastChange = "2017-09-20 14:09:04 +0000";
layers = (
{
background = {
paths = (
{
closed = 1;
nodes = (
"221 257 LINE",
"221 267 LINE",
"409 392 LINE",
"409 532 LINE",
"70 325 LINE",
"70 200 LINE",
"409 -7 LINE",
"409 133 LINE"
);
},
{
closed = 1;
nodes = (
"571 257 LINE",
"571 267 LINE",
"759 392 LINE",
"759 532 LINE",
"420 325 LINE",
"420 200 LINE",
"759 -7 LINE",
"759 133 LINE"
);
}
);
};
layerId = "C76CAC8E-7AD6-478C-8F7E-02FEF6F1EA84";
paths = (
{
closed = 1;
nodes = (
"221 257 LINE",
"221 267 LINE",
"399 402 LINE",
"399 542 LINE",
"70 325 LINE",
"70 200 LINE",
"399 -17 LINE",
"399 123 LINE"
);
},
{
closed = 1;
nodes = (
"551 257 LINE",
"551 267 LINE",
"699 372 LINE",
"699 502 LINE",
"400 315 LINE",
"400 210 LINE",
"699 23 LINE",
"699 153 LINE"
);
}
);
width = 779;
},
{
layerId = "CC363ACD-D5A5-4E19-A940-9AF36D109D9E";
paths = (
{
closed = 1;
nodes = (
"133 256 LINE",
"133 260 LINE",
"339 443 LINE",
"339 498 LINE",
"70 281 LINE",
"70 236 LINE",
"339 19 LINE",
"339 74 LINE"
);
},
{
closed = 1;
nodes = (
"383 256 LINE",
"383 260 LINE",
"589 423 LINE",
"589 478 LINE",
"320 281 LINE",
"320 236 LINE",
"589 39 LINE",
"589 94 LINE"
);
}
);
width = 669;
},
{
layerId = "C1DA716A-5F29-4CD0-A38F-CCADF5849A80";
paths = (
{
closed = 1;
nodes = (
"281 262 LINE",
"281 272 LINE",
"429 402 LINE",
"429 587 LINE",
"70 360 LINE",
"70 175 LINE",
"429 -52 LINE",
"429 133 LINE"
);
},
{
closed = 1;
nodes = (
"631 262 LINE",
"631 272 LINE",
"759 362 LINE",
"759 547 LINE",
"440 340 LINE",
"440 195 LINE",
"759 -12 LINE",
"759 173 LINE"
);
}
);
width = 839;
}
);
leftMetricsKey = guilsinglleft;
rightMetricsKey = guilsinglleft;
unicode = 00AB;
},
{
color = 4;
glyphname = quoteright;
lastChange = "2017-09-20 14:09:04 +0000";
layers = (
{
background = {
paths = (
{
closed = 1;
nodes = (
"62 770 OFFCURVE",
"30 746 OFFCURVE",
"30 695 CURVE SMOOTH",
"30 643 OFFCURVE",
"62 619 OFFCURVE",
"111 619 CURVE",
"99 648 LINE",
"98 595 OFFCURVE",
"58 518 OFFCURVE",
"26 464 CURVE",
"108 464 LINE",
"138 505 OFFCURVE",
"192 589 OFFCURVE",
"192 675 CURVE SMOOTH",
"192 726 OFFCURVE",
"170 770 OFFCURVE",
"111 770 CURVE SMOOTH"
);
}
);
};
layerId = "C76CAC8E-7AD6-478C-8F7E-02FEF6F1EA84";
paths = (
{
closed = 1;
nodes = (
"56 770 OFFCURVE",
"20 743 OFFCURVE",
"20 692 CURVE SMOOTH",
"20 640 OFFCURVE",
"59 619 OFFCURVE",
"108 619 CURVE",
"96 648 LINE",
"85 605 OFFCURVE",
"55 548 OFFCURVE",
"23 504 CURVE",
"105 504 LINE",
"145 545 OFFCURVE",
"189 612 OFFCURVE",
"189 678 CURVE SMOOTH",
"189 732 OFFCURVE",
"161 770 OFFCURVE",
"102 770 CURVE SMOOTH"
);
}
);
width = 219;
},
{
layerId = "CC363ACD-D5A5-4E19-A940-9AF36D109D9E";
paths = (
{
closed = 1;
nodes = (
"49 770 OFFCURVE",
"29 756 OFFCURVE",
"29 727 CURVE SMOOTH",
"29 691 OFFCURVE",
"57 683 OFFCURVE",
"88 684 CURVE",
"78 708 LINE",
"78 665 OFFCURVE",
"44 609 OFFCURVE",
"20 575 CURVE",
"61 575 LINE",
"80 603 OFFCURVE",
"117 654 OFFCURVE",
"117 715 CURVE SMOOTH",
"117 753 OFFCURVE",
"98 770 OFFCURVE",
"72 770 CURVE SMOOTH"
);
}
);
width = 147;
},
{
layerId = "C1DA716A-5F29-4CD0-A38F-CCADF5849A80";
paths = (
{
closed = 1;
nodes = (
"64 770 OFFCURVE",
"20 730 OFFCURVE",
"20 666 CURVE SMOOTH",
"20 602 OFFCURVE",
"66 567 OFFCURVE",
"132 566 CURVE",
"108 599 LINE",
"99 556 OFFCURVE",
"75 510 OFFCURVE",
"35 446 CURVE",
"150 446 LINE",
"194 505 OFFCURVE",
"245 582 OFFCURVE",
"245 653 CURVE SMOOTH",
"245 734 OFFCURVE",
"198 770 OFFCURVE",
"129 770 CURVE SMOOTH"
);
}
);
width = 275;
}
);
unicode = 2019;
},
{
color = 4;
glyphname = apostrophemodifier;
lastChange = "2017-09-20 14:09:04 +0000";
layers = (
{
anchors = (
{
name = _apostrophe;
position = "{0, 525}";
}
);
background = {
paths = (
{
closed = 1;
nodes = (
"-50 771 OFFCURVE",
"-82 746 OFFCURVE",
"-82 700 CURVE SMOOTH",
"-82 653 OFFCURVE",
"-47 634 OFFCURVE",
"-2 634 CURVE",
"-14 660 LINE",
"-24 621 OFFCURVE",
"-46 579 OFFCURVE",
"-75 539 CURVE",
"5 539 LINE",
"35 576 OFFCURVE",
"71 637 OFFCURVE",
"71 687 CURVE SMOOTH",
"71 736 OFFCURVE",
"46 771 OFFCURVE",
"-8 771 CURVE SMOOTH"
);
}
);
};
layerId = "C76CAC8E-7AD6-478C-8F7E-02FEF6F1EA84";
paths = (
{
closed = 1;
nodes = (
"-30 771 OFFCURVE",
"-65 747 OFFCURVE",
"-65 701 CURVE SMOOTH",
"-65 654 OFFCURVE",
"-27 634 OFFCURVE",
"18 634 CURVE",
"6 660 LINE",
"-4 621 OFFCURVE",
"-26 579 OFFCURVE",
"-55 539 CURVE",
"25 539 LINE",
"55 573 OFFCURVE",
"95 632 OFFCURVE",
"95 692 CURVE SMOOTH",
"95 741 OFFCURVE",
"70 771 OFFCURVE",
"12 771 CURVE SMOOTH"
);
}
);
width = 0;
},
{
anchors = (
{
name = _apostrophe;
position = "{0, 515}";
}
);
layerId = "CC363ACD-D5A5-4E19-A940-9AF36D109D9E";
paths = (
{
closed = 1;
nodes = (
"49 770 OFFCURVE",
"29 756 OFFCURVE",
"29 727 CURVE SMOOTH",
"29 691 OFFCURVE",
"57 683 OFFCURVE",
"88 684 CURVE",
"78 708 LINE",
"78 665 OFFCURVE",
"44 609 OFFCURVE",
"20 575 CURVE",
"61 575 LINE",
"80 603 OFFCURVE",
"117 654 OFFCURVE",
"117 715 CURVE SMOOTH",
"117 753 OFFCURVE",
"98 770 OFFCURVE",
"72 770 CURVE SMOOTH"
);
}
);
width = 0;
},
{
anchors = (
{
name = _apostrophe;
position = "{0, 535}";
}
);
layerId = "C1DA716A-5F29-4CD0-A38F-CCADF5849A80";
paths = (
{
closed = 1;
nodes = (
"-40 835 OFFCURVE",
"-80 799 OFFCURVE",
"-80 741 CURVE SMOOTH",
"-80 683 OFFCURVE",
"-38 651 OFFCURVE",
"22 650 CURVE",
"10 680 LINE",
"2 641 OFFCURVE",
"-20 609 OFFCURVE",
"-56 551 CURVE",
"48 551 LINE",
"88 604 OFFCURVE",
"125 664 OFFCURVE",
"125 729 CURVE SMOOTH",
"125 803 OFFCURVE",
"82 835 OFFCURVE",
"19 835 CURVE SMOOTH"
);
}
);
width = 0;
}
);
unicode = 02BC;
},
{
color = 4;
glyphname = periodcentered.CAT;
lastChange = "2017-09-20 14:09:04 +0000";
layers = (
{
anchors = (
{
name = _periodcentered;
position = "{0, 370}";
}
);
layerId = "C76CAC8E-7AD6-478C-8F7E-02FEF6F1EA84";
paths = (
{
closed = 1;
nodes = (
"74 300 OFFCURVE",
"103 324 OFFCURVE",
"103 376 CURVE SMOOTH",
"103 427 OFFCURVE",
"74 451 OFFCURVE",
"32 451 CURVE SMOOTH",
"-10 451 OFFCURVE",
"-39 427 OFFCURVE",
"-39 376 CURVE SMOOTH",
"-39 324 OFFCURVE",
"-10 300 OFFCURVE",
"32 300 CURVE SMOOTH"
);
}
);
width = 0;
},
{
anchors = (
{
name = _periodcentered;
position = "{0, 370}";
}
);
layerId = "CC363ACD-D5A5-4E19-A940-9AF36D109D9E";
paths = (
{
closed = 1;
nodes = (
"58 335 OFFCURVE",
"76 349 OFFCURVE",
"76 378 CURVE SMOOTH",
"76 407 OFFCURVE",
"58 421 OFFCURVE",
"34 421 CURVE SMOOTH",
"10 421 OFFCURVE",
"-7 407 OFFCURVE",
"-7 378 CURVE SMOOTH",
"-7 349 OFFCURVE",
"10 335 OFFCURVE",
"34 335 CURVE SMOOTH"
);
}
);
width = 0;
},
{
anchors = (
{
name = _periodcentered;
position = "{0, 370}";
}
);
layerId = "C1DA716A-5F29-4CD0-A38F-CCADF5849A80";
paths = (
{
closed = 1;
nodes = (
"128 276 OFFCURVE",
"164 314 OFFCURVE",
"164 378 CURVE SMOOTH",
"164 442 OFFCURVE",
"128 480 OFFCURVE",
"66 480 CURVE SMOOTH",
"4 480 OFFCURVE",
"-31 442 OFFCURVE",
"-31 378 CURVE SMOOTH",
"-31 314 OFFCURVE",
"4 276 OFFCURVE",
"66 276 CURVE SMOOTH"
);
}
);
width = 0;
}
);
},
{
color = 4;
glyphname = periodcentered.CAT.case;
lastChange = "2017-09-20 14:09:04 +0000";
layers = (
{
anchors = (
{
name = _periodcentered;
position = "{0, 370}";
}
);
layerId = "C76CAC8E-7AD6-478C-8F7E-02FEF6F1EA84";
paths = (
{
closed = 1;
nodes = (
"74 340 OFFCURVE",
"103 364 OFFCURVE",
"103 416 CURVE SMOOTH",
"103 467 OFFCURVE",
"74 491 OFFCURVE",
"32 491 CURVE SMOOTH",
"-10 491 OFFCURVE",
"-39 467 OFFCURVE",
"-39 416 CURVE SMOOTH",
"-39 364 OFFCURVE",
"-10 340 OFFCURVE",
"32 340 CURVE SMOOTH"
);
}
);
width = 0;
},
{
anchors = (
{
name = _periodcentered;
position = "{0, 370}";
}
);
layerId = "CC363ACD-D5A5-4E19-A940-9AF36D109D9E";
paths = (
{
closed = 1;
nodes = (
"58 345 OFFCURVE",
"76 359 OFFCURVE",
"76 388 CURVE SMOOTH",
"76 417 OFFCURVE",
"58 431 OFFCURVE",
"34 431 CURVE SMOOTH",
"10 431 OFFCURVE",
"-7 417 OFFCURVE",
"-7 388 CURVE SMOOTH",
"-7 359 OFFCURVE",
"10 345 OFFCURVE",
"34 345 CURVE SMOOTH"
);
}
);
width = 0;
},
{
anchors = (
{
name = _periodcentered;
position = "{0, 370}";
}
);
layerId = "C1DA716A-5F29-4CD0-A38F-CCADF5849A80";
paths = (
{
closed = 1;
nodes = (
"128 336 OFFCURVE",
"164 374 OFFCURVE",
"164 438 CURVE SMOOTH",
"164 502 OFFCURVE",
"128 540 OFFCURVE",
"66 540 CURVE SMOOTH",
"4 540 OFFCURVE",
"-31 502 OFFCURVE",
"-31 438 CURVE SMOOTH",
"-31 374 OFFCURVE",
"4 336 OFFCURVE",
"66 336 CURVE SMOOTH"
);
}
);
width = 0;
}
);
},
{
color = 4;
glyphname = endash;
lastChange = "2017-09-20 14:09:04 +0000";
layers = (
{
layerId = "C76CAC8E-7AD6-478C-8F7E-02FEF6F1EA84";
paths = (
{
closed = 1;
nodes = (
"80 204 LINE",
"570 204 LINE",
"570 324 LINE",
"80 324 LINE"
);
}
);
width = 650;
},
{
layerId = "CC363ACD-D5A5-4E19-A940-9AF36D109D9E";
paths = (
{
closed = 1;
nodes = (
"80 231 LINE",
"500 231 LINE",
"500 278 LINE",
"80 278 LINE"
);
}
);
width = 580;
},
{
layerId = "C1DA716A-5F29-4CD0-A38F-CCADF5849A80";
paths = (
{
closed = 1;
nodes = (
"80 191 LINE",
"635 191 LINE",
"635 346 LINE",
"80 346 LINE"
);
}
);
width = 715;
}
);
leftMetricsKey = hyphen;
rightMetricsKey = hyphen;
unicode = 2013;
},
{
color = 4;
glyphname = emdash;
lastChange = "2017-09-20 14:09:04 +0000";
layers = (
{
layerId = "C76CAC8E-7AD6-478C-8F7E-02FEF6F1EA84";
paths = (
{
closed = 1;
nodes = (
"80 204 LINE",
"900 204 LINE",
"900 324 LINE",
"80 324 LINE"
);
}
);
width = 980;
},
{
layerId = "CC363ACD-D5A5-4E19-A940-9AF36D109D9E";
paths = (
{
closed = 1;
nodes = (
"80 231 LINE",
"840 231 LINE",
"840 278 LINE",
"80 278 LINE"
);
}
);
width = 920;
},
{
layerId = "C1DA716A-5F29-4CD0-A38F-CCADF5849A80";
paths = (
{
closed = 1;
nodes = (
"80 191 LINE",
"935 191 LINE",
"935 346 LINE",
"80 346 LINE"
);
}
);
width = 1015;
}
);
leftMetricsKey = hyphen;
rightMetricsKey = hyphen;
unicode = 2014;
},
{
color = 4;
glyphname = circumflexcomb;
lastChange = "2017-09-20 14:09:04 +0000";
layers = (
{
anchors = (
{
name = _top;
position = "{0, 505}";
}
);
associatedMasterId = "C76CAC8E-7AD6-478C-8F7E-02FEF6F1EA84";
layerId = "7B99921F-A039-442D-B9C0-B0BA1B017383";
paths = (
{
closed = 1;
nodes = (
"-77 808 LINE",
"-227 634 LINE",
"-140 554 LINE",
"47 703 LINE",
"-49 703 LINE",
"140 554 LINE",
"230 634 LINE",
"77 812 LINE"
);
}
);
width = 0;
},
{
anchors = (
{
name = _top;
position = "{0, 525}";
}
);
background = {
paths = (
{
closed = 1;
nodes = (
"189 594 LINE",
"72 763 LINE",
"-73 763 LINE",
"-190 594 LINE",
"-75 594 LINE",
"-5 677 LINE",
"5 677 LINE",
"74 594 LINE"
);
}
);
};
layerId = "C76CAC8E-7AD6-478C-8F7E-02FEF6F1EA84";
paths = (
{
closed = 1;
nodes = (
"209 594 LINE",
"72 763 LINE",
"-73 763 LINE",
"-210 594 LINE",
"-85 594 LINE",
"-5 672 LINE",
"5 672 LINE",
"84 594 LINE"
);
}
);
width = 0;
},
{
anchors = (
{
name = _top;
position = "{0, 474}";
}
);
associatedMasterId = "C76CAC8E-7AD6-478C-8F7E-02FEF6F1EA84";
layerId = "0784270B-128F-47CD-B9CD-1A7CF23A33A2";
paths = (
{
closed = 1;
nodes = (
"-43 741 LINE",
"-176 597 LINE",
"-124 540 LINE",
"24 672 LINE",
"-24 672 LINE",
"121 540 LINE",
"176 596 LINE",
"43 744 LINE"
);
}
);
width = 0;
},
{
anchors = (
{
name = _top;
position = "{0, 456}";
}
);
associatedMasterId = "C76CAC8E-7AD6-478C-8F7E-02FEF6F1EA84";
layerId = "F7700227-3129-48D1-BD84-546BE00F4B40";
paths = (
{
closed = 1;
nodes = (
"-15 695 LINE",
"-141 549 LINE",
"-120 531 LINE",
"7 669 LINE",
"-6 669 LINE",
"115 532 LINE",
"136 551 LINE",
"13 699 LINE"
);
}
);
width = 0;
},
{
anchors = (
{
name = _top;
position = "{0, 515}";
}
);
layerId = "CC363ACD-D5A5-4E19-A940-9AF36D109D9E";
paths = (
{
closed = 1;
nodes = (
"164 594 LINE",
"24 753 LINE",
"-24 753 LINE",
"-165 594 LINE",
"-108 594 LINE",
"-2 707 LINE",
"2 707 LINE",
"107 594 LINE"
);
}
);
width = 0;
},
{
anchors = (
{
name = _top;
position = "{0, 535}";
}
);
layerId = "C1DA716A-5F29-4CD0-A38F-CCADF5849A80";
paths = (
{
closed = 1;
nodes = (
"236 594 LINE",
"99 784 LINE",
"-99 784 LINE",
"-236 594 LINE",
"-82 594 LINE",
"-5 673 LINE",
"5 673 LINE",
"82 594 LINE"
);
}
);
width = 0;
}
);
unicode = 0302;
userData = {
public.markColor = "0.98,0.36,0.67,1";
};
},
